# Cook No Evil! · sokak modelleri
# MM-04 · Karşı cephe yer tutucu blokları (11 Ekim)
# Pivot: Dünya koordinatı
# birim m · Y yukarı · ön +Z · üçgen 168
mtllib CNE_Sokak.mtl
v -30.00000 6.00000 -15.70000
v -22.00000 6.00000 -15.70000
v -22.00000 6.00000 -18.70000
v -30.00000 6.00000 -18.70000
v -30.00000 0.00000 -15.70000
v -22.00000 0.00000 -15.70000
v -22.00000 3.75000 -15.70000
v -22.00000 4.00000 -15.70000
v -30.00000 4.00000 -15.70000
v -30.00000 3.75000 -15.70000
v -30.00000 0.00000 -18.70000
v -22.00000 3.75000 -15.50000
v -30.00000 3.75000 -15.50000
v -30.00000 4.00000 -15.50000
v -22.00000 4.00000 -15.50000
v -22.00000 7.50000 -15.70000
v -14.00000 7.50000 -15.70000
v -14.00000 7.50000 -18.70000
v -22.00000 7.50000 -18.70000
v -14.00000 0.00000 -15.70000
v -14.00000 3.75000 -15.70000
v -14.00000 4.00000 -15.70000
v -14.00000 4.50000 -15.70000
v -14.00000 4.50000 -18.70000
v -14.00000 3.75000 -15.50000
v -14.00000 4.00000 -15.50000
v -7.00000 4.50000 -15.70000
v -7.00000 4.50000 -18.70000
v -7.00000 0.00000 -15.70000
v -7.00000 3.75000 -15.70000
v -7.00000 4.00000 -15.70000
v -7.00000 3.75000 -15.50000
v -7.00000 4.00000 -15.50000
v -7.00000 6.00000 -15.70000
v -1.00000 6.00000 -15.70000
v -1.00000 6.00000 -18.70000
v -7.00000 6.00000 -18.70000
v -1.00000 0.00000 -15.70000
v -1.00000 3.75000 -15.70000
v -1.00000 4.00000 -15.70000
v -1.00000 3.75000 -15.50000
v -1.00000 4.00000 -15.50000
v 8.00000 6.00000 -15.70000
v 8.00000 6.00000 -18.70000
v 8.00000 0.00000 -15.70000
v 8.00000 3.75000 -15.70000
v 8.00000 4.00000 -15.70000
v 8.00000 3.75000 -15.50000
v 8.00000 4.00000 -15.50000
v 8.00000 7.50000 -15.70000
v 14.00000 7.50000 -15.70000
v 14.00000 7.50000 -18.70000
v 8.00000 7.50000 -18.70000
v 14.00000 0.00000 -15.70000
v 14.00000 3.75000 -15.70000
v 14.00000 4.00000 -15.70000
v 14.00000 5.00000 -15.70000
v 14.00000 5.00000 -18.70000
v 14.00000 3.75000 -15.50000
v 14.00000 4.00000 -15.50000
v 22.00000 5.00000 -15.70000
v 22.00000 5.00000 -18.70000
v 22.00000 0.00000 -15.70000
v 22.00000 3.75000 -15.70000
v 22.00000 4.00000 -15.70000
v 22.00000 0.00000 -18.70000
v 22.00000 3.75000 -15.50000
v 22.00000 4.00000 -15.50000
v 28.00000 7.00000 -15.70000
v 34.00000 7.00000 -15.70000
v 34.00000 7.00000 -18.70000
v 28.00000 7.00000 -18.70000
v 28.00000 0.00000 -15.70000
v 34.00000 0.00000 -15.70000
v 34.00000 3.75000 -15.70000
v 34.00000 4.00000 -15.70000
v 34.00000 6.00000 -15.70000
v 28.00000 4.00000 -15.70000
v 28.00000 3.75000 -15.70000
v 28.00000 0.00000 -18.70000
v 34.00000 6.00000 -18.70000
v 34.00000 3.75000 -15.50000
v 28.00000 3.75000 -15.50000
v 28.00000 4.00000 -15.50000
v 34.00000 4.00000 -15.50000
v 40.00000 6.00000 -15.70000
v 40.00000 6.00000 -18.70000
v 40.00000 0.00000 -15.70000
v 40.00000 3.75000 -15.70000
v 40.00000 4.00000 -15.70000
v 40.00000 0.00000 -18.70000
v 40.00000 3.75000 -15.50000
v 40.00000 4.00000 -15.50000
vt 0.500000 0.500000
vn 0.0000 1.0000 0.0000
vn -0.0000 0.0000 1.0000
vn -1.0000 0.0000 0.0000
vn 0.0000 -1.0000 0.0000
vn 1.0000 0.0000 0.0000
o Blok_01
g Blok_01
usemtl MI_Arch_Cephe_K4
f 1/1/1 2/1/1 3/1/1 4/1/1
f 5/1/2 6/1/2 7/1/2 8/1/2 2/1/2 1/1/2 9/1/2 10/1/2
f 11/1/3 5/1/3 10/1/3 9/1/3 1/1/3 4/1/3
usemtl MI_Arch_Bordur
f 10/1/4 7/1/4 12/1/4 13/1/4
f 14/1/1 15/1/1 8/1/1 9/1/1
f 13/1/2 12/1/2 15/1/2 14/1/2
f 10/1/3 13/1/3 14/1/3 9/1/3
o Blok_02
g Blok_02
usemtl MI_Arch_Cephe_K5
f 16/1/1 17/1/1 18/1/1 19/1/1
f 6/1/2 20/1/2 21/1/2 22/1/2 23/1/2 17/1/2 16/1/2 2/1/2 8/1/2 7/1/2
f 3/1/3 2/1/3 16/1/3 19/1/3
f 18/1/5 17/1/5 23/1/5 24/1/5
usemtl MI_Arch_Bordur
f 7/1/4 21/1/4 25/1/4 12/1/4
f 15/1/1 26/1/1 22/1/1 8/1/1
f 12/1/2 25/1/2 26/1/2 15/1/2
o Blok_03
g Blok_03
usemtl MI_Arch_Cephe_K6
f 23/1/1 27/1/1 28/1/1 24/1/1
f 20/1/2 29/1/2 30/1/2 31/1/2 27/1/2 23/1/2 22/1/2 21/1/2
usemtl MI_Arch_Bordur
f 21/1/4 30/1/4 32/1/4 25/1/4
f 26/1/1 33/1/1 31/1/1 22/1/1
f 25/1/2 32/1/2 33/1/2 26/1/2
o Blok_04
g Blok_04
usemtl MI_Arch_Cephe_K4
f 34/1/1 35/1/1 36/1/1 37/1/1
f 29/1/2 38/1/2 39/1/2 40/1/2 35/1/2 34/1/2 27/1/2 31/1/2 30/1/2
f 28/1/3 27/1/3 34/1/3 37/1/3
usemtl MI_Arch_Bordur
f 30/1/4 39/1/4 41/1/4 32/1/4
f 33/1/1 42/1/1 40/1/1 31/1/1
f 32/1/2 41/1/2 42/1/2 33/1/2
o Blok_05
g Blok_05
usemtl MI_Arch_Cephe_K0
f 35/1/1 43/1/1 44/1/1 36/1/1
f 38/1/2 45/1/2 46/1/2 47/1/2 43/1/2 35/1/2 40/1/2 39/1/2
usemtl MI_Arch_Bordur
f 39/1/4 46/1/4 48/1/4 41/1/4
f 42/1/1 49/1/1 47/1/1 40/1/1
f 41/1/2 48/1/2 49/1/2 42/1/2
o Blok_06
g Blok_06
usemtl MI_Arch_Cephe_K5
f 50/1/1 51/1/1 52/1/1 53/1/1
f 45/1/2 54/1/2 55/1/2 56/1/2 57/1/2 51/1/2 50/1/2 43/1/2 47/1/2 46/1/2
f 44/1/3 43/1/3 50/1/3 53/1/3
f 52/1/5 51/1/5 57/1/5 58/1/5
usemtl MI_Arch_Bordur
f 46/1/4 55/1/4 59/1/4 48/1/4
f 49/1/1 60/1/1 56/1/1 47/1/1
f 48/1/2 59/1/2 60/1/2 49/1/2
o Blok_07
g Blok_07
usemtl MI_Arch_Cephe_K6
f 57/1/1 61/1/1 62/1/1 58/1/1
f 54/1/2 63/1/2 64/1/2 65/1/2 61/1/2 57/1/2 56/1/2 55/1/2
f 62/1/5 61/1/5 65/1/5 64/1/5 63/1/5 66/1/5
usemtl MI_Arch_Bordur
f 55/1/4 64/1/4 67/1/4 59/1/4
f 60/1/1 68/1/1 65/1/1 56/1/1
f 59/1/2 67/1/2 68/1/2 60/1/2
f 65/1/5 68/1/5 67/1/5 64/1/5
o Blok_08
g Blok_08
usemtl MI_Arch_Cephe_K4
f 69/1/1 70/1/1 71/1/1 72/1/1
f 73/1/2 74/1/2 75/1/2 76/1/2 77/1/2 70/1/2 69/1/2 78/1/2 79/1/2
f 80/1/3 73/1/3 79/1/3 78/1/3 69/1/3 72/1/3
f 71/1/5 70/1/5 77/1/5 81/1/5
usemtl MI_Arch_Bordur
f 79/1/4 75/1/4 82/1/4 83/1/4
f 84/1/1 85/1/1 76/1/1 78/1/1
f 83/1/2 82/1/2 85/1/2 84/1/2
f 79/1/3 83/1/3 84/1/3 78/1/3
o Blok_09
g Blok_09
usemtl MI_Arch_Cephe_K5
f 77/1/1 86/1/1 87/1/1 81/1/1
f 74/1/2 88/1/2 89/1/2 90/1/2 86/1/2 77/1/2 76/1/2 75/1/2
f 87/1/5 86/1/5 90/1/5 89/1/5 88/1/5 91/1/5
usemtl MI_Arch_Bordur
f 75/1/4 89/1/4 92/1/4 82/1/4
f 85/1/1 93/1/1 90/1/1 76/1/1
f 82/1/2 92/1/2 93/1/2 85/1/2
f 90/1/5 93/1/5 92/1/5 89/1/5
