# Cook No Evil! · sokak modelleri
# MM-01…03, MM-05 · Sokak mimarisi: yakın kaldırım, yol, karşı kaldırım, ara sokak
# Pivot: Yerleşim kökü = salon kökü (dünya koordinatı)
# birim m · Y yukarı · ön +Z · üçgen 46
mtllib CNE_Sokak.mtl
v -30.00000 0.00000 -0.20000
v 40.00000 0.00000 -0.20000
v 40.00000 0.00000 -3.00000
v -30.00000 0.00000 -3.00000
v -30.00000 -0.15000 -3.20000
v -30.00000 -0.15000 -0.20000
v -30.00000 0.00000 -3.20000
v 40.00000 0.00000 -3.20000
v 40.00000 -0.15000 -0.20000
v 40.00000 -0.15000 -3.20000
v 40.00000 -0.15000 -12.70000
v -30.00000 -0.15000 -12.70000
v -30.00000 -0.14900 -9.14000
v 40.00000 -0.14900 -9.14000
v 40.00000 -0.14900 -9.26000
v -30.00000 -0.14900 -9.26000
v -30.00000 0.00000 -12.90000
v 40.00000 0.00000 -12.90000
v 40.00000 0.00000 -15.70000
v -30.00000 0.00000 -15.70000
v -30.00000 -0.15000 -15.70000
v -30.00000 0.00000 -12.70000
v 40.00000 0.00000 -12.70000
v 40.00000 -0.15000 -15.70000
v 22.00000 0.00000 -15.70000
v 22.20000 0.00000 -15.70000
v 27.80000 0.00000 -15.70000
v 28.00000 0.00000 -15.70000
v 28.00000 0.00000 -35.70000
v 27.80000 0.00000 -35.70000
v 22.20000 0.00000 -35.70000
v 22.00000 0.00000 -35.70000
v 22.20000 7.50000 -35.70000
v 22.20000 7.50000 -15.70000
v 22.00000 7.50000 -15.70000
v 22.00000 7.50000 -35.70000
v 27.80000 7.50000 -15.70000
v 27.80000 7.50000 -35.70000
v 28.00000 7.50000 -15.70000
v 28.00000 7.50000 -35.70000
vt 0.500000 0.500000
vn 0.0000 1.0000 0.0000
vn -1.0000 -0.0000 0.0000
vn 1.0000 0.0000 0.0000
vn 0.0000 0.0000 -1.0000
vn 0.0000 0.0000 1.0000
o Kaldirim_Yakin
g Kaldirim_Yakin
usemtl MI_Arch_Kaldirim
f 1/1/1 2/1/1 3/1/1 4/1/1
f 5/1/2 6/1/2 1/1/2 4/1/2 7/1/2
f 8/1/3 3/1/3 2/1/3 9/1/3 10/1/3
usemtl MI_Arch_Bordur
f 4/1/1 3/1/1 8/1/1 7/1/1
f 7/1/4 8/1/4 10/1/4 5/1/4
o Yol
g Yol
usemtl MI_Arch_Asfalt
f 5/1/1 10/1/1 11/1/1 12/1/1
usemtl MI_Arch_Bordur
f 13/1/1 14/1/1 15/1/1 16/1/1
o Kaldirim_Karsi
g Kaldirim_Karsi
usemtl MI_Arch_Kaldirim
f 17/1/1 18/1/1 19/1/1 20/1/1
f 21/1/2 12/1/2 22/1/2 17/1/2 20/1/2
f 19/1/3 18/1/3 23/1/3 11/1/3 24/1/3
usemtl MI_Arch_Bordur
f 22/1/1 23/1/1 18/1/1 17/1/1
f 12/1/5 11/1/5 23/1/5 22/1/5
o AraSokak
g AraSokak
usemtl MI_Arch_Kaldirim
f 25/1/1 26/1/1 27/1/1 28/1/1 29/1/1 30/1/1 31/1/1 32/1/1
usemtl MI_Arch_YanDuvar
f 33/1/3 34/1/3 26/1/3 31/1/3
f 35/1/1 34/1/1 33/1/1 36/1/1
f 25/1/5 26/1/5 34/1/5 35/1/5
f 30/1/2 27/1/2 37/1/2 38/1/2
f 37/1/1 39/1/1 40/1/1 38/1/1
f 27/1/5 28/1/5 39/1/5 37/1/5
