# Cook No Evil! · sokak modelleri
# CK-05 · Tente 450 · Bebek
# Pivot: Arka üst kenar ortası (Socket_Awning)
# birim m · Y yukarı · ön +Z · üçgen 20
mtllib CNE_Sokak.mtl
v -2.25000 -0.20000 0.60000
v 2.25000 -0.20000 0.60000
v 2.25000 0.00000 0.00000
v -2.25000 0.00000 0.00000
v -2.25000 -0.00500 0.00000
v 2.25000 -0.00500 0.00000
v 2.25000 -0.20500 0.60000
v -2.25000 -0.20500 0.60000
v -2.25000 -0.50000 1.20000
v 2.25000 -0.50000 1.20000
v 2.25000 -0.50500 1.20000
v -2.25000 -0.50500 1.20000
v -2.25000 -0.65000 1.20000
v 2.25000 -0.65000 1.20000
v -2.24500 -0.50000 1.19500
v 2.24500 -0.50000 1.19500
v 2.24500 -0.64500 1.19500
v -2.24500 -0.64500 1.19500
v -2.24500 0.00000 0.00000
v -2.24500 -0.20000 0.60000
v -2.24500 -0.50000 1.20000
v -2.24500 -0.65000 1.20000
v 2.24500 -0.65000 1.20000
v 2.24500 -0.50000 1.20000
v 2.24500 -0.20000 0.60000
v 2.24500 0.00000 0.00000
vt 0.593750 0.281250
vt 0.468750 0.281250
vn 0.0000 0.9487 0.3162
vn 0.0000 -0.9487 -0.3162
vn 0.0000 0.8944 0.4472
vn 0.0000 -0.8944 -0.4472
vn 0.0000 0.0000 1.0000
vn 0.0000 0.0000 -1.0000
vn -1.0000 0.0000 0.0000
vn 1.0000 0.0000 0.0000
o Awning
g Awning
usemtl MI_Palette
f 1/1/1 2/1/1 3/1/1 4/1/1
f 5/2/2 6/2/2 7/2/2 8/2/2
f 9/1/3 10/1/3 2/1/3 1/1/3
f 8/2/4 7/2/4 11/2/4 12/2/4
f 13/1/5 14/1/5 10/1/5 9/1/5
f 15/2/6 16/2/6 17/2/6 18/2/6
f 13/1/7 9/1/7 1/1/7 4/1/7
f 19/2/8 20/2/8 21/2/8 22/2/8
f 3/1/8 2/1/8 10/1/8 14/1/8
f 23/2/7 24/2/7 25/2/7 26/2/7
