# Cook No Evil! · sokak modelleri
# SE-04 · Bank
# Pivot: Taban, arka kenar ortası (cepheye yaslı)
# birim m · Y yukarı · ön +Z · üçgen 132
mtllib CNE_Sokak.mtl
v -0.73000 0.00000 0.00000
v -0.73000 0.00000 0.07000
v -0.77000 0.00000 0.07000
v -0.77000 0.00000 0.00000
v -0.73000 0.40000 0.07000
v -0.77000 0.40000 0.07000
v -0.73000 0.40000 0.48000
v -0.77000 0.40000 0.48000
v -0.73000 0.00000 0.48000
v -0.77000 0.00000 0.48000
v -0.73000 0.00000 0.55000
v -0.77000 0.00000 0.55000
v -0.73000 0.46000 0.55000
v -0.77000 0.46000 0.55000
v -0.73000 0.46000 0.07000
v -0.77000 0.46000 0.07000
v -0.73000 0.85000 0.07000
v -0.77000 0.85000 0.07000
v -0.73000 0.85000 0.00000
v -0.77000 0.85000 0.00000
v 0.77000 0.00000 0.00000
v 0.77000 0.00000 0.07000
v 0.73000 0.00000 0.07000
v 0.73000 0.00000 0.00000
v 0.77000 0.40000 0.07000
v 0.73000 0.40000 0.07000
v 0.77000 0.40000 0.48000
v 0.73000 0.40000 0.48000
v 0.77000 0.00000 0.48000
v 0.73000 0.00000 0.48000
v 0.77000 0.00000 0.55000
v 0.73000 0.00000 0.55000
v 0.77000 0.46000 0.55000
v 0.73000 0.46000 0.55000
v 0.77000 0.46000 0.07000
v 0.73000 0.46000 0.07000
v 0.77000 0.85000 0.07000
v 0.73000 0.85000 0.07000
v 0.77000 0.85000 0.00000
v 0.73000 0.85000 0.00000
v -0.90000 0.46000 0.10000
v -0.90000 0.46000 0.22000
v -0.90000 0.49000 0.22000
v -0.90000 0.49000 0.10000
v 0.90000 0.49000 0.10000
v 0.90000 0.49000 0.22000
v 0.90000 0.46000 0.22000
v 0.90000 0.46000 0.10000
v -0.90000 0.46000 0.25000
v -0.90000 0.46000 0.37000
v -0.90000 0.49000 0.37000
v -0.90000 0.49000 0.25000
v 0.90000 0.49000 0.25000
v 0.90000 0.49000 0.37000
v 0.90000 0.46000 0.37000
v 0.90000 0.46000 0.25000
v -0.90000 0.46000 0.40000
v -0.90000 0.46000 0.52000
v -0.90000 0.49000 0.52000
v -0.90000 0.49000 0.40000
v 0.90000 0.49000 0.40000
v 0.90000 0.49000 0.52000
v 0.90000 0.46000 0.52000
v 0.90000 0.46000 0.40000
v -0.90000 0.58000 0.07000
v -0.90000 0.58000 0.10000
v -0.90000 0.70000 0.10000
v -0.90000 0.70000 0.07000
v 0.90000 0.70000 0.07000
v 0.90000 0.70000 0.10000
v 0.90000 0.58000 0.10000
v 0.90000 0.58000 0.07000
v -0.90000 0.73000 0.07000
v -0.90000 0.73000 0.10000
v -0.90000 0.85000 0.10000
v -0.90000 0.85000 0.07000
v 0.90000 0.85000 0.07000
v 0.90000 0.85000 0.10000
v 0.90000 0.73000 0.10000
v 0.90000 0.73000 0.07000
vt 0.406250 0.656250
vt 0.218750 0.718750
vn 0.0000 -1.0000 0.0000
vn 0.0000 0.0000 1.0000
vn 0.0000 0.0000 -1.0000
vn 0.0000 1.0000 0.0000
vn -1.0000 0.0000 0.0000
vn 1.0000 0.0000 0.0000
o Bench
g Bench
usemtl MI_Palette
f 1/1/1 2/1/1 3/1/1 4/1/1
f 2/1/2 5/1/2 6/1/2 3/1/2
f 5/1/1 7/1/1 8/1/1 6/1/1
f 7/1/3 9/1/3 10/1/3 8/1/3
f 9/1/1 11/1/1 12/1/1 10/1/1
f 11/1/2 13/1/2 14/1/2 12/1/2
f 13/1/4 15/1/4 16/1/4 14/1/4
f 15/1/2 17/1/2 18/1/2 16/1/2
f 17/1/4 19/1/4 20/1/4 18/1/4
f 19/1/3 1/1/3 4/1/3 20/1/3
f 20/1/5 4/1/5 3/1/5
f 20/1/5 3/1/5 6/1/5
f 8/1/5 10/1/5 12/1/5
f 8/1/5 12/1/5 14/1/5
f 6/1/5 8/1/5 14/1/5
f 6/1/5 14/1/5 16/1/5
f 20/1/5 6/1/5 16/1/5
f 16/1/5 18/1/5 20/1/5
f 1/1/6 19/1/6 17/1/6
f 1/1/6 17/1/6 15/1/6
f 13/1/6 11/1/6 9/1/6
f 13/1/6 9/1/6 7/1/6
f 15/1/6 13/1/6 7/1/6
f 15/1/6 7/1/6 5/1/6
f 1/1/6 15/1/6 5/1/6
f 5/1/6 2/1/6 1/1/6
f 21/1/1 22/1/1 23/1/1 24/1/1
f 22/1/2 25/1/2 26/1/2 23/1/2
f 25/1/1 27/1/1 28/1/1 26/1/1
f 27/1/3 29/1/3 30/1/3 28/1/3
f 29/1/1 31/1/1 32/1/1 30/1/1
f 31/1/2 33/1/2 34/1/2 32/1/2
f 33/1/4 35/1/4 36/1/4 34/1/4
f 35/1/2 37/1/2 38/1/2 36/1/2
f 37/1/4 39/1/4 40/1/4 38/1/4
f 39/1/3 21/1/3 24/1/3 40/1/3
f 40/1/5 24/1/5 23/1/5
f 40/1/5 23/1/5 26/1/5
f 28/1/5 30/1/5 32/1/5
f 28/1/5 32/1/5 34/1/5
f 26/1/5 28/1/5 34/1/5
f 26/1/5 34/1/5 36/1/5
f 40/1/5 26/1/5 36/1/5
f 36/1/5 38/1/5 40/1/5
f 21/1/6 39/1/6 37/1/6
f 21/1/6 37/1/6 35/1/6
f 33/1/6 31/1/6 29/1/6
f 33/1/6 29/1/6 27/1/6
f 35/1/6 33/1/6 27/1/6
f 35/1/6 27/1/6 25/1/6
f 21/1/6 35/1/6 25/1/6
f 25/1/6 22/1/6 21/1/6
f 41/2/5 42/2/5 43/2/5 44/2/5
f 45/2/6 46/2/6 47/2/6 48/2/6
f 41/2/1 48/2/1 47/2/1 42/2/1
f 43/2/4 46/2/4 45/2/4 44/2/4
f 44/2/3 45/2/3 48/2/3 41/2/3
f 42/2/2 47/2/2 46/2/2 43/2/2
f 49/2/5 50/2/5 51/2/5 52/2/5
f 53/2/6 54/2/6 55/2/6 56/2/6
f 49/2/1 56/2/1 55/2/1 50/2/1
f 51/2/4 54/2/4 53/2/4 52/2/4
f 52/2/3 53/2/3 56/2/3 49/2/3
f 50/2/2 55/2/2 54/2/2 51/2/2
f 57/2/5 58/2/5 59/2/5 60/2/5
f 61/2/6 62/2/6 63/2/6 64/2/6
f 57/2/1 64/2/1 63/2/1 58/2/1
f 59/2/4 62/2/4 61/2/4 60/2/4
f 60/2/3 61/2/3 64/2/3 57/2/3
f 58/2/2 63/2/2 62/2/2 59/2/2
f 65/2/5 66/2/5 67/2/5 68/2/5
f 69/2/6 70/2/6 71/2/6 72/2/6
f 65/2/1 72/2/1 71/2/1 66/2/1
f 67/2/4 70/2/4 69/2/4 68/2/4
f 68/2/3 69/2/3 72/2/3 65/2/3
f 66/2/2 71/2/2 70/2/2 67/2/2
f 73/2/5 74/2/5 75/2/5 76/2/5
f 77/2/6 78/2/6 79/2/6 80/2/6
f 73/2/1 80/2/1 79/2/1 74/2/1
f 75/2/4 78/2/4 77/2/4 76/2/4
f 76/2/3 77/2/3 80/2/3 73/2/3
f 74/2/2 79/2/2 78/2/2 75/2/2
