# Cook No Evil! · sokak modelleri
# CK-07 · Bıçak tabela · KİTAP
# Pivot: Pilaster yüzü, tabelanın alt kenarı (Socket_Blade)
# birim m · Y yukarı · ön +Z · üçgen 96
mtllib CNE_Sokak.mtl
v 0.04000 0.00000 0.70000
v 0.04000 0.01340 0.75000
v -0.04000 0.01340 0.75000
v -0.04000 0.00000 0.70000
v 0.04000 0.05000 0.78660
v -0.04000 0.05000 0.78660
v 0.04000 0.10000 0.80000
v -0.04000 0.10000 0.80000
v 0.04000 1.10000 0.80000
v -0.04000 1.10000 0.80000
v 0.04000 1.15000 0.78660
v -0.04000 1.15000 0.78660
v 0.04000 1.18660 0.75000
v -0.04000 1.18660 0.75000
v 0.04000 1.20000 0.70000
v -0.04000 1.20000 0.70000
v 0.04000 1.20000 0.20000
v -0.04000 1.20000 0.20000
v 0.04000 1.18660 0.15000
v -0.04000 1.18660 0.15000
v 0.04000 1.15000 0.11340
v -0.04000 1.15000 0.11340
v 0.04000 1.10000 0.10000
v -0.04000 1.10000 0.10000
v 0.04000 0.10000 0.10000
v -0.04000 0.10000 0.10000
v 0.04000 0.05000 0.11340
v -0.04000 0.05000 0.11340
v 0.04000 0.01340 0.15000
v -0.04000 0.01340 0.15000
v 0.04000 0.00000 0.20000
v -0.04000 0.00000 0.20000
v -0.02000 1.28000 0.00000
v -0.02000 1.28000 0.86000
v -0.02000 1.32000 0.86000
v -0.02000 1.32000 0.00000
v 0.02000 1.32000 0.00000
v 0.02000 1.32000 0.86000
v 0.02000 1.28000 0.86000
v 0.02000 1.28000 0.00000
v -0.00800 1.20000 0.21200
v -0.00800 1.20000 0.22800
v -0.00800 1.28000 0.22800
v -0.00800 1.28000 0.21200
v 0.00800 1.28000 0.21200
v 0.00800 1.28000 0.22800
v 0.00800 1.20000 0.22800
v 0.00800 1.20000 0.21200
v -0.00800 1.20000 0.67200
v -0.00800 1.20000 0.68800
v -0.00800 1.28000 0.68800
v -0.00800 1.28000 0.67200
v 0.00800 1.28000 0.67200
v 0.00800 1.28000 0.68800
v 0.00800 1.20000 0.68800
v 0.00800 1.20000 0.67200
v -0.05000 1.22000 0.00000
v -0.05000 1.22000 0.02000
v -0.05000 1.38000 0.02000
v -0.05000 1.38000 0.00000
v 0.05000 1.38000 0.00000
v 0.05000 1.38000 0.02000
v 0.05000 1.22000 0.02000
v 0.05000 1.22000 0.00000
vt 0.406250 0.656250
vt 0.453125 0.000000
vt 0.468750 0.004187
vt 0.480188 0.015625
vt 0.484375 0.031250
vt 0.484375 0.343750
vt 0.480188 0.359375
vt 0.468750 0.370813
vt 0.453125 0.375000
vt 0.296875 0.375000
vt 0.281250 0.370813
vt 0.269812 0.359375
vt 0.265625 0.343750
vt 0.265625 0.031250
vt 0.269812 0.015625
vt 0.281250 0.004187
vt 0.296875 0.000000
vn 0.0000 -0.9997 0.0244
vn 0.0000 -0.8660 0.5000
vn 0.0000 -0.5000 0.8660
vn 0.0000 -0.0128 0.9999
vn 0.0000 0.0128 0.9999
vn 0.0000 0.5000 0.8660
vn 0.0000 0.8660 0.5000
vn 0.0000 0.9997 0.0244
vn 0.0000 0.9997 -0.0244
vn 0.0000 0.8660 -0.5000
vn 0.0000 0.5000 -0.8660
vn 0.0000 0.0128 -0.9999
vn 0.0000 -0.0128 -0.9999
vn 0.0000 -0.5000 -0.8660
vn 0.0000 -0.8660 -0.5000
vn 0.0000 -0.9997 -0.0244
vn -1.0000 0.0000 0.0000
vn 1.0000 0.0000 0.0000
vn 0.0000 -1.0000 0.0000
vn 0.0000 1.0000 0.0000
vn 0.0000 0.0000 1.0000
vn 0.0000 0.0000 -1.0000
o BladeSign
g BladeSign
usemtl MI_Palette
f 1/1/1 2/1/2 3/1/2 4/1/1
f 2/1/2 5/1/3 6/1/3 3/1/2
f 5/1/3 7/1/4 8/1/4 6/1/3
f 7/1/4 9/1/5 10/1/5 8/1/4
f 9/1/5 11/1/6 12/1/6 10/1/5
f 11/1/6 13/1/7 14/1/7 12/1/6
f 13/1/7 15/1/8 16/1/8 14/1/7
f 15/1/8 17/1/9 18/1/9 16/1/8
f 17/1/9 19/1/10 20/1/10 18/1/9
f 19/1/10 21/1/11 22/1/11 20/1/10
f 21/1/11 23/1/12 24/1/12 22/1/11
f 23/1/12 25/1/13 26/1/13 24/1/12
f 25/1/13 27/1/14 28/1/14 26/1/13
f 27/1/14 29/1/15 30/1/15 28/1/14
f 29/1/15 31/1/16 32/1/16 30/1/15
f 31/1/16 1/1/1 4/1/1 32/1/16
f 33/1/17 34/1/17 35/1/17 36/1/17
f 37/1/18 38/1/18 39/1/18 40/1/18
f 33/1/19 40/1/19 39/1/19 34/1/19
f 35/1/20 38/1/20 37/1/20 36/1/20
f 34/1/21 39/1/21 38/1/21 35/1/21
f 41/1/17 42/1/17 43/1/17 44/1/17
f 45/1/18 46/1/18 47/1/18 48/1/18
f 44/1/22 45/1/22 48/1/22 41/1/22
f 42/1/21 47/1/21 46/1/21 43/1/21
f 49/1/17 50/1/17 51/1/17 52/1/17
f 53/1/18 54/1/18 55/1/18 56/1/18
f 52/1/22 53/1/22 56/1/22 49/1/22
f 50/1/21 55/1/21 54/1/21 51/1/21
f 57/1/17 58/1/17 59/1/17 60/1/17
f 61/1/18 62/1/18 63/1/18 64/1/18
f 57/1/19 64/1/19 63/1/19 58/1/19
f 59/1/20 62/1/20 61/1/20 60/1/20
f 58/1/21 63/1/21 62/1/21 59/1/21
usemtl MI_Ext_Signs
f 31/2/18 29/3/18 27/4/18 25/5/18 23/6/18 21/7/18 19/8/18 17/9/18 15/10/18 13/11/18 11/12/18 9/13/18 7/14/18 5/15/18 2/16/18 1/17/18
f 4/2/17 3/3/17 6/4/17 8/5/17 10/6/17 12/7/17 14/8/17 16/9/17 18/10/17 20/11/17 22/12/17 24/13/17 26/14/17 28/15/17 30/16/17 32/17/17
