# Cook No Evil! · sokak modelleri
# AR-02 · Pikap (gövde + cam)
# Pivot: Taban ortası, ön +Z
# birim m · Y yukarı · ön +Z · üçgen 740
mtllib CNE_Sokak.mtl
v 0.92000 0.32000 -0.20000
v 0.97000 0.37000 -0.20000
v 0.97000 0.37000 0.40000
v 0.92000 0.32000 0.40000
v 0.97000 0.95000 -0.20000
v 0.97000 0.95000 0.40000
v 0.94071 1.02071 -0.20000
v 0.94071 1.02071 0.40000
v 0.87000 1.05000 -0.20000
v 0.87000 1.05000 0.40000
v 0.48500 1.05000 -0.20000
v 0.48500 1.05000 0.40000
v 0.00000 1.05000 -0.20000
v 0.00000 1.05000 0.40000
v -0.48500 1.05000 -0.20000
v -0.48500 1.05000 0.40000
v -0.87000 1.05000 -0.20000
v -0.87000 1.05000 0.40000
v -0.94071 1.02071 -0.20000
v -0.94071 1.02071 0.40000
v -0.97000 0.95000 -0.20000
v -0.97000 0.95000 0.40000
v -0.97000 0.37000 -0.20000
v -0.97000 0.37000 0.40000
v -0.92000 0.32000 -0.20000
v -0.92000 0.32000 0.40000
v 0.97000 0.37000 0.95000
v 0.92000 0.32000 0.95000
v 0.97000 0.95000 0.95000
v 0.94071 1.02071 0.95000
v 0.87000 1.05000 0.95000
v 0.48500 1.05000 0.95000
v 0.00000 1.05000 0.95000
v -0.48500 1.05000 0.95000
v -0.87000 1.05000 0.95000
v -0.94071 1.02071 0.95000
v -0.97000 0.95000 0.95000
v -0.97000 0.37000 0.95000
v -0.92000 0.32000 0.95000
v 0.97000 0.37000 1.14000
v 0.92000 0.32000 1.14000
v 0.97000 0.92000 1.14000
v 0.93485 1.00485 1.14000
v 0.85000 1.04000 1.14000
v 0.48500 1.04000 1.14000
v 0.00000 0.98000 1.14000
v -0.48500 1.04000 1.14000
v -0.85000 1.04000 1.14000
v -0.93485 1.00485 1.14000
v -0.97000 0.92000 1.14000
v -0.97000 0.37000 1.14000
v -0.92000 0.32000 1.14000
v 0.97500 0.66850 1.25000
v 0.92500 0.61850 1.25000
v 0.97500 0.91000 1.25000
v 0.93692 1.00192 1.25000
v 0.84500 1.04000 1.25000
v 0.48750 1.04000 1.25000
v 0.00000 0.97000 1.25000
v -0.48750 1.04000 1.25000
v -0.84500 1.04000 1.25000
v -0.93692 1.00192 1.25000
v -0.97500 0.91000 1.25000
v -0.97500 0.66850 1.25000
v -0.92500 0.61850 1.25000
v 0.98000 0.79332 1.42000
v 0.93000 0.74332 1.42000
v 0.98000 0.91000 1.42000
v 0.94192 1.00192 1.42000
v 0.85000 1.04000 1.42000
v 0.49000 1.04000 1.42000
v 0.00000 0.96000 1.42000
v -0.49000 1.04000 1.42000
v -0.85000 1.04000 1.42000
v -0.94192 1.00192 1.42000
v -0.98000 0.91000 1.42000
v -0.98000 0.79332 1.42000
v -0.93000 0.74332 1.42000
v 0.98000 0.83000 1.60000
v 0.93000 0.78000 1.60000
v 0.98000 0.91000 1.60000
v 0.94192 1.00192 1.60000
v 0.85000 1.04000 1.60000
v 0.49000 1.04000 1.60000
v 0.00000 0.95000 1.60000
v -0.49000 1.04000 1.60000
v -0.85000 1.04000 1.60000
v -0.94192 1.00192 1.60000
v -0.98000 0.91000 1.60000
v -0.98000 0.83000 1.60000
v -0.93000 0.78000 1.60000
v 0.98000 0.79332 1.78000
v 0.93000 0.74332 1.78000
v 0.98000 0.91000 1.78000
v 0.94192 1.00192 1.78000
v 0.85000 1.04000 1.78000
v 0.49000 1.04000 1.78000
v 0.00000 0.94000 1.78000
v -0.49000 1.04000 1.78000
v -0.85000 1.04000 1.78000
v -0.94192 1.00192 1.78000
v -0.98000 0.91000 1.78000
v -0.98000 0.79332 1.78000
v -0.93000 0.74332 1.78000
v 0.97500 0.66850 1.95000
v 0.92500 0.61850 1.95000
v 0.97500 0.90000 1.95000
v 0.93692 0.99192 1.95000
v 0.84500 1.03000 1.95000
v 0.48750 1.03000 1.95000
v 0.00000 0.94000 1.95000
v -0.48750 1.03000 1.95000
v -0.84500 1.03000 1.95000
v -0.93692 0.99192 1.95000
v -0.97500 0.90000 1.95000
v -0.97500 0.66850 1.95000
v -0.92500 0.61850 1.95000
v 0.97000 0.37000 2.06000
v 0.92000 0.32000 2.06000
v 0.97000 0.89000 2.06000
v 0.93192 0.98192 2.06000
v 0.84000 1.02000 2.06000
v 0.48500 1.02000 2.06000
v 0.00000 0.93000 2.06000
v -0.48500 1.02000 2.06000
v -0.84000 1.02000 2.06000
v -0.93192 0.98192 2.06000
v -0.97000 0.89000 2.06000
v -0.97000 0.37000 2.06000
v -0.92000 0.32000 2.06000
v 0.95000 0.37000 2.25000
v 0.90000 0.32000 2.25000
v 0.95000 0.88000 2.25000
v 0.91485 0.96485 2.25000
v 0.83000 1.00000 2.25000
v 0.47500 1.00000 2.25000
v 0.00000 0.92000 2.25000
v -0.47500 1.00000 2.25000
v -0.83000 1.00000 2.25000
v -0.91485 0.96485 2.25000
v -0.95000 0.88000 2.25000
v -0.95000 0.37000 2.25000
v -0.90000 0.32000 2.25000
v 0.90000 0.43000 2.44000
v 0.85000 0.38000 2.44000
v 0.90000 0.84000 2.44000
v 0.87071 0.91071 2.44000
v 0.80000 0.94000 2.44000
v 0.45000 0.94000 2.44000
v 0.00000 0.90000 2.44000
v -0.45000 0.94000 2.44000
v -0.80000 0.94000 2.44000
v -0.87071 0.91071 2.44000
v -0.90000 0.84000 2.44000
v -0.90000 0.43000 2.44000
v -0.85000 0.38000 2.44000
v 0.82000 0.52000 2.50000
v 0.77000 0.47000 2.50000
v 0.82000 0.78000 2.50000
v 0.79657 0.83657 2.50000
v 0.74000 0.86000 2.50000
v 0.41000 0.86000 2.50000
v 0.00000 0.84000 2.50000
v -0.41000 0.86000 2.50000
v -0.74000 0.86000 2.50000
v -0.79657 0.83657 2.50000
v -0.82000 0.78000 2.50000
v -0.82000 0.52000 2.50000
v -0.77000 0.47000 2.50000
v 0.74207 1.62000 -0.12000
v -0.74207 1.62000 -0.12000
v -0.74207 1.62000 0.58000
v 0.74207 1.62000 0.58000
v 0.81207 1.55000 0.62103
v 0.81207 1.55000 -0.12603
v -0.81207 1.55000 0.62103
v -0.81207 1.55000 -0.12603
v 0.90000 1.04000 0.92000
v 0.90000 1.04000 -0.17000
v -0.90000 1.04000 0.92000
v -0.90000 1.04000 -0.17000
v 0.93000 0.32000 -0.60000
v 0.97000 0.36000 -0.60000
v 0.97000 0.36000 -0.21000
v 0.93000 0.32000 -0.21000
v 0.97000 1.03000 -0.60000
v 0.97000 1.03000 -0.21000
v 0.94000 1.06000 -0.60000
v 0.94000 1.06000 -0.21000
v 0.90000 1.06000 -0.60000
v 0.90000 1.06000 -0.21000
v -0.90000 1.06000 -0.60000
v -0.94000 1.06000 -0.60000
v -0.94000 1.06000 -0.21000
v -0.90000 1.06000 -0.21000
v -0.97000 1.03000 -0.60000
v -0.97000 1.03000 -0.21000
v -0.97000 0.36000 -0.60000
v -0.97000 0.36000 -0.21000
v -0.93000 0.32000 -0.60000
v -0.93000 0.32000 -0.21000
v 0.93000 0.32000 -1.09000
v 0.97000 0.36000 -1.09000
v 0.97000 1.03000 -1.09000
v 0.94000 1.06000 -1.09000
v 0.90000 1.06000 -1.09000
v -0.90000 1.06000 -1.09000
v -0.94000 1.06000 -1.09000
v -0.97000 1.03000 -1.09000
v -0.97000 0.36000 -1.09000
v -0.93000 0.32000 -1.09000
v 0.93000 0.61850 -1.20000
v 0.97000 0.65850 -1.20000
v 0.97000 1.03000 -1.20000
v 0.94000 1.06000 -1.20000
v 0.90000 1.06000 -1.20000
v -0.90000 1.06000 -1.20000
v -0.94000 1.06000 -1.20000
v -0.97000 1.03000 -1.20000
v -0.97000 0.65850 -1.20000
v -0.93000 0.61850 -1.20000
v 0.93000 0.74332 -1.37000
v 0.97000 0.78332 -1.37000
v 0.97000 1.03000 -1.37000
v 0.94000 1.06000 -1.37000
v 0.90000 1.06000 -1.37000
v -0.90000 1.06000 -1.37000
v -0.94000 1.06000 -1.37000
v -0.97000 1.03000 -1.37000
v -0.97000 0.78332 -1.37000
v -0.93000 0.74332 -1.37000
v 0.93000 0.78000 -1.55000
v 0.97000 0.82000 -1.55000
v 0.97000 1.03000 -1.55000
v 0.94000 1.06000 -1.55000
v 0.90000 1.06000 -1.55000
v -0.90000 1.06000 -1.55000
v -0.94000 1.06000 -1.55000
v -0.97000 1.03000 -1.55000
v -0.97000 0.82000 -1.55000
v -0.93000 0.78000 -1.55000
v 0.93000 0.74332 -1.73000
v 0.97000 0.78332 -1.73000
v 0.97000 1.03000 -1.73000
v 0.94000 1.06000 -1.73000
v 0.90000 1.06000 -1.73000
v -0.90000 1.06000 -1.73000
v -0.94000 1.06000 -1.73000
v -0.97000 1.03000 -1.73000
v -0.97000 0.78332 -1.73000
v -0.93000 0.74332 -1.73000
v 0.93000 0.61850 -1.90000
v 0.97000 0.65850 -1.90000
v 0.97000 1.03000 -1.90000
v 0.94000 1.06000 -1.90000
v 0.90000 1.06000 -1.90000
v -0.90000 1.06000 -1.90000
v -0.94000 1.06000 -1.90000
v -0.97000 1.03000 -1.90000
v -0.97000 0.65850 -1.90000
v -0.93000 0.61850 -1.90000
v 0.93000 0.32000 -2.01000
v 0.97000 0.36000 -2.01000
v 0.97000 1.03000 -2.01000
v 0.94000 1.06000 -2.01000
v 0.90000 1.06000 -2.01000
v -0.90000 1.06000 -2.01000
v -0.94000 1.06000 -2.01000
v -0.97000 1.03000 -2.01000
v -0.97000 0.36000 -2.01000
v -0.93000 0.32000 -2.01000
v 0.93000 0.32000 -2.30000
v 0.97000 0.36000 -2.30000
v 0.97000 1.03000 -2.30000
v 0.94000 1.06000 -2.30000
v 0.90000 1.06000 -2.30000
v -0.90000 1.06000 -2.30000
v -0.94000 1.06000 -2.30000
v -0.97000 1.03000 -2.30000
v -0.97000 0.36000 -2.30000
v -0.93000 0.32000 -2.30000
v 0.93000 0.36000 -2.48000
v 0.97000 0.40000 -2.48000
v 0.97000 1.03000 -2.48000
v 0.94000 1.06000 -2.48000
v 0.90000 1.06000 -2.48000
v -0.90000 1.06000 -2.48000
v -0.94000 1.06000 -2.48000
v -0.97000 1.03000 -2.48000
v -0.97000 0.40000 -2.48000
v -0.93000 0.36000 -2.48000
v 0.90000 0.84000 -0.21000
v -0.90000 0.84000 -0.21000
v -0.90000 0.84000 -2.48000
v 0.90000 0.84000 -2.48000
v -0.90000 1.06000 -2.42000
v 0.90000 1.06000 -2.42000
v 0.90000 0.84000 -0.60000
v -0.90000 0.84000 -0.60000
v 0.90000 0.84000 -1.09000
v -0.90000 0.84000 -1.09000
v 0.90000 0.84000 -1.20000
v -0.90000 0.84000 -1.20000
v 0.90000 0.84000 -1.37000
v -0.90000 0.84000 -1.37000
v 0.90000 0.84000 -1.55000
v -0.90000 0.84000 -1.55000
v 0.90000 0.84000 -1.73000
v -0.90000 0.84000 -1.73000
v 0.90000 0.84000 -1.90000
v -0.90000 0.84000 -1.90000
v 0.90000 0.84000 -2.01000
v -0.90000 0.84000 -2.01000
v 0.90000 0.84000 -2.30000
v -0.90000 0.84000 -2.30000
v -0.90000 0.84000 -2.42000
v 0.90000 0.84000 -2.42000
v -0.38000 0.58000 2.50600
v 0.38000 0.58000 2.50600
v 0.38000 0.77000 2.50600
v -0.38000 0.77000 2.50600
v 0.73391 0.68939 2.53000
v 0.69061 0.64609 2.53000
v 0.69061 0.64609 2.47000
v 0.73391 0.68939 2.47000
v 0.62939 0.64609 2.53000
v 0.62939 0.64609 2.47000
v 0.58609 0.68939 2.53000
v 0.58609 0.68939 2.47000
v 0.58609 0.75061 2.53000
v 0.58609 0.75061 2.47000
v 0.62939 0.79391 2.53000
v 0.62939 0.79391 2.47000
v 0.69061 0.79391 2.53000
v 0.69061 0.79391 2.47000
v 0.73391 0.75061 2.53000
v 0.73391 0.75061 2.47000
v 0.80000 1.00000 -2.48400
v 0.92000 1.00000 -2.48400
v 0.92000 0.88000 -2.48400
v 0.80000 0.88000 -2.48400
v -0.58609 0.68939 2.53000
v -0.62939 0.64609 2.53000
v -0.62939 0.64609 2.47000
v -0.58609 0.68939 2.47000
v -0.69061 0.64609 2.53000
v -0.69061 0.64609 2.47000
v -0.73391 0.68939 2.53000
v -0.73391 0.68939 2.47000
v -0.73391 0.75061 2.53000
v -0.73391 0.75061 2.47000
v -0.69061 0.79391 2.53000
v -0.69061 0.79391 2.47000
v -0.62939 0.79391 2.53000
v -0.62939 0.79391 2.47000
v -0.58609 0.75061 2.53000
v -0.58609 0.75061 2.47000
v -0.92000 1.00000 -2.48400
v -0.80000 1.00000 -2.48400
v -0.80000 0.88000 -2.48400
v -0.92000 0.88000 -2.48400
v 0.64000 0.32000 1.14000
v 0.64000 0.55000 1.20163
v 0.64000 0.71837 1.37000
v 0.64000 0.78000 1.60000
v 0.64000 0.71837 1.83000
v 0.64000 0.55000 1.99837
v 0.64000 0.32000 2.06000
v -0.64000 0.32000 2.06000
v -0.64000 0.55000 1.99837
v -0.64000 0.71837 1.83000
v -0.64000 0.78000 1.60000
v -0.64000 0.71837 1.37000
v -0.64000 0.55000 1.20163
v -0.64000 0.32000 1.14000
v 0.64000 0.32000 -2.01000
v 0.64000 0.55000 -1.94837
v 0.64000 0.71837 -1.78000
v 0.64000 0.78000 -1.55000
v 0.64000 0.71837 -1.32000
v 0.64000 0.55000 -1.15163
v 0.64000 0.32000 -1.09000
v -0.64000 0.32000 -1.09000
v -0.64000 0.55000 -1.15163
v -0.64000 0.71837 -1.32000
v -0.64000 0.78000 -1.55000
v -0.64000 0.71837 -1.78000
v -0.64000 0.55000 -1.94837
v -0.64000 0.32000 -2.01000
v -0.99000 0.36000 2.24000
v -0.95000 0.36000 2.56000
v -0.95000 0.50000 2.56000
v -0.99000 0.50000 2.24000
v 0.95000 0.36000 2.56000
v 0.95000 0.50000 2.56000
v 0.99000 0.36000 2.24000
v 0.99000 0.50000 2.24000
v 0.92000 0.36000 2.24000
v 0.92000 0.50000 2.24000
v 0.88000 0.36000 2.48000
v 0.88000 0.50000 2.48000
v -0.88000 0.36000 2.48000
v -0.88000 0.50000 2.48000
v -0.92000 0.36000 2.24000
v -0.92000 0.50000 2.24000
v -0.95000 0.38000 -2.56000
v -0.95000 0.38000 -2.48000
v -0.95000 0.48000 -2.48000
v -0.95000 0.48000 -2.56000
v 0.95000 0.48000 -2.56000
v 0.95000 0.48000 -2.48000
v 0.95000 0.38000 -2.48000
v 0.95000 0.38000 -2.56000
v -0.42000 0.55000 2.50200
v 0.42000 0.55000 2.50200
v 0.42000 0.80000 2.50200
v -0.42000 0.80000 2.50200
v 0.83042 1.09378 0.89311
v 0.75528 1.52957 0.63765
v 0.71459 1.57026 0.61379
v -0.71459 1.57026 0.61379
v -0.75528 1.52957 0.63765
v -0.83042 1.09378 0.89311
v 0.78136 1.13997 -0.16540
v -0.78136 1.13997 -0.16540
v -0.71887 1.50238 -0.13415
v -0.70054 1.52071 -0.13257
v 0.70054 1.52071 -0.13257
v 0.71887 1.50238 -0.13415
v 0.89538 1.09000 0.81069
v 0.89538 1.09000 -0.00569
v 0.82297 1.51000 0.03052
v 0.82297 1.51000 0.56448
v -0.82297 1.51000 0.56448
v -0.82297 1.51000 0.03052
v -0.89538 1.09000 -0.00569
v -0.89538 1.09000 0.81069
vt 0.593750 0.281250
vt 0.531250 0.656250
vt 0.468750 0.281250
vt 0.031250 0.531250
vt 0.406250 0.593750
vt 0.031250 0.656250
vt 0.406250 0.656250
vn 0.0264 -0.9997 0.0000
vn 0.9969 -0.0791 0.0000
vn 0.9990 0.0450 0.0000
vn 0.7071 0.7071 0.0000
vn 0.0641 0.9979 0.0000
vn 0.0000 1.0000 0.0000
vn -0.0641 0.9979 0.0000
vn -0.7071 0.7071 0.0000
vn -0.9990 0.0450 0.0000
vn -0.9969 -0.0791 0.0000
vn -0.0264 -0.9997 0.0000
vn 0.9968 -0.0796 0.0000
vn 0.9989 0.0463 0.0020
vn 0.7069 0.7069 0.0222
vn 0.0659 0.9977 0.0153
vn 0.0000 0.9999 0.0104
vn -0.0000 0.9985 0.0540
vn -0.0659 0.9977 0.0153
vn -0.7069 0.7069 0.0222
vn -0.9989 0.0463 0.0020
vn -0.9968 -0.0796 0.0000
vn 0.9982 -0.0591 -0.0123
vn 0.9983 0.0578 -0.0062
vn 0.7062 0.7062 0.0509
vn 0.0746 0.9964 0.0394
vn -0.0498 0.9938 0.0994
vn -0.0000 0.9662 0.2577
vn 0.0498 0.9938 0.0994
vn -0.0746 0.9964 0.0394
vn -0.7062 0.7062 0.0509
vn -0.9983 0.0578 -0.0062
vn -0.9982 -0.0591 -0.0123
vn 0.0091 -0.3459 0.9382
vn 0.3312 -0.3312 0.8836
vn 0.4892 -0.4892 0.7221
vn 0.0145 -0.5525 0.8334
vn 0.9939 0.1051 -0.0341
vn 0.9992 0.0000 -0.0388
vn 0.7071 0.7071 -0.0107
vn 0.0830 0.9965 -0.0001
vn -0.0786 0.9968 0.0124
vn -0.0000 0.9986 0.0521
vn 0.0786 0.9968 0.0124
vn -0.0830 0.9965 -0.0001
vn -0.7071 0.7071 -0.0107
vn -0.9939 0.1051 -0.0341
vn -0.9992 0.0000 -0.0388
vn -0.3312 -0.3312 0.8836
vn -0.0091 -0.3459 0.9382
vn -0.0145 -0.5525 0.8334
vn -0.4892 -0.4892 0.7221
vn 0.0337 -0.7935 0.6076
vn 0.6742 -0.6742 0.3015
vn 0.0238 -0.9080 0.4183
vn 0.9864 0.1637 -0.0166
vn 0.9877 -0.1556 0.0162
vn 0.7071 0.7071 -0.0101
vn 0.0841 0.9965 -0.0012
vn -0.0660 0.9978 0.0005
vn -0.0000 0.9996 0.0291
vn 0.0660 0.9978 0.0005
vn -0.0841 0.9965 -0.0012
vn -0.7071 0.7071 -0.0101
vn -0.9864 0.1637 -0.0166
vn -0.9877 -0.1556 0.0162
vn -0.0337 -0.7935 0.6076
vn -0.0238 -0.9080 0.4183
vn -0.6742 -0.6742 0.3015
vn 0.9613 -0.2563 0.1015
vn 0.9476 -0.3194 0.0000
vn 0.0262 -0.9997 0.0000
vn 0.9806 0.1962 0.0000
vn 0.0840 0.9965 0.0000
vn -0.0890 0.9960 0.0093
vn 0.0000 0.9993 0.0370
vn 0.0890 0.9960 0.0093
vn -0.0840 0.9965 0.0000
vn -0.9806 0.1962 0.0000
vn -0.9476 -0.3194 0.0000
vn -0.9613 -0.2563 0.1015
vn -0.0262 -0.9997 0.0000
vn 0.9603 -0.2593 -0.1031
vn 0.0238 -0.9080 -0.4183
vn 0.9860 0.1653 0.0212
vn 0.9873 -0.1578 -0.0169
vn 0.7068 0.7068 0.0303
vn 0.0840 0.9960 0.0296
vn -0.0996 0.9945 0.0325
vn 0.0000 0.9993 0.0375
vn 0.0996 0.9945 0.0325
vn -0.0840 0.9960 0.0296
vn -0.7068 0.7068 0.0303
vn -0.9860 0.1653 0.0212
vn -0.9873 -0.1578 -0.0169
vn -0.0238 -0.9080 -0.4183
vn -0.9603 -0.2593 -0.1031
vn 0.6742 -0.6742 -0.3015
vn 0.4892 -0.4892 -0.7221
vn 0.0337 -0.7935 -0.6076
vn 0.9929 0.1095 0.0455
vn 0.9992 0.0000 0.0387
vn 0.7051 0.7051 0.0755
vn 0.0841 0.9937 0.0739
vn -0.0998 0.9934 0.0558
vn -0.0000 0.9988 0.0500
vn 0.0998 0.9934 0.0558
vn -0.0841 0.9937 0.0739
vn -0.7051 0.7051 0.0755
vn -0.9929 0.1095 0.0455
vn -0.9992 0.0000 0.0387
vn -0.6742 -0.6742 -0.3015
vn -0.0337 -0.7935 -0.6076
vn -0.4892 -0.4892 -0.7221
vn 0.0145 -0.5525 -0.8334
vn 0.3312 -0.3312 -0.8836
vn 0.0091 -0.3459 -0.9382
vn 0.9936 0.0667 0.0907
vn 0.9941 -0.0635 0.0881
vn 0.7024 0.7024 0.1148
vn 0.0827 0.9912 0.1032
vn -0.0887 0.9915 0.0953
vn -0.0000 0.9970 0.0778
vn 0.0887 0.9915 0.0953
vn -0.0827 0.9912 0.1032
vn -0.7024 0.7024 0.1148
vn -0.9936 0.0667 0.0907
vn -0.9941 -0.0635 0.0881
vn -0.0145 -0.5525 -0.8334
vn -0.0091 -0.3459 -0.9382
vn -0.3312 -0.3312 -0.8836
vn 0.0267 -0.9996 0.0028
vn 0.9775 -0.0909 0.1905
vn 0.0269 -0.9871 0.1578
vn 0.9812 0.0592 0.1838
vn 0.6878 0.6878 0.2323
vn 0.0768 0.9744 0.2114
vn -0.0860 0.9808 0.1749
vn -0.0000 0.9887 0.1496
vn 0.0860 0.9808 0.1749
vn -0.0768 0.9744 0.2114
vn -0.6878 0.6878 0.2323
vn -0.9812 0.0592 0.1838
vn -0.9775 -0.0909 0.1905
vn -0.0267 -0.9996 0.0028
vn -0.0269 -0.9871 0.1578
vn 0.8793 -0.0916 0.4675
vn 0.0242 -0.8577 0.5136
vn 0.8970 0.0548 0.4386
vn 0.9017 -0.0732 0.4262
vn 0.6555 0.5962 0.4636
vn 0.0630 0.8662 0.4958
vn 0.5962 0.6555 0.4636
vn -0.0610 0.9132 0.4030
vn 0.0000 0.8959 0.4443
vn 0.0610 0.9132 0.4030
vn -0.0630 0.8662 0.4958
vn -0.5962 0.6555 0.4636
vn -0.8970 0.0548 0.4386
vn -0.6555 0.5962 0.4636
vn -0.9017 -0.0732 0.4262
vn -0.0242 -0.8577 0.5136
vn -0.8793 -0.0916 0.4675
vn 0.0644 -0.5648 0.8227
vn 0.6071 -0.2328 0.7598
vn 0.5462 -0.0709 0.8347
vn 0.0163 -0.5446 0.8386
vn 0.5810 0.0384 0.8130
vn 0.6790 0.3877 0.6234
vn 0.3512 0.3512 0.8679
vn 0.3840 0.6726 0.6326
vn 0.0380 0.5812 0.8129
vn -0.0246 0.6315 0.7750
vn 0.0000 0.7071 0.7071
vn 0.0246 0.6315 0.7750
vn -0.0380 0.5812 0.8129
vn -0.3840 0.6726 0.6326
vn -0.3512 0.3512 0.8679
vn -0.6790 0.3877 0.6234
vn -0.5810 0.0384 0.8130
vn -0.5462 -0.0709 0.8347
vn -0.6071 -0.2328 0.7598
vn -0.0644 -0.5648 0.8227
vn -0.0163 -0.5446 0.8386
vn 0.0000 0.0000 -1.0000
vn 0.0000 0.0000 1.0000
vn 0.9855 0.1699 0.0000
vn -0.9855 0.1699 0.0000
vn 0.0000 0.5057 0.8627
vn 0.0000 0.0859 -0.9963
vn 0.0210 -0.9998 -0.0000
vn 0.9984 -0.0562 -0.0000
vn 0.9991 0.0428 0.0000
vn 0.3939 0.9191 0.0000
vn -0.3939 0.9191 0.0000
vn -0.9991 0.0428 0.0000
vn -0.9984 -0.0562 -0.0000
vn -0.0210 -0.9998 -0.0000
vn 0.9988 -0.0483 -0.0000
vn 0.9990 0.0446 0.0000
vn -0.9990 0.0446 0.0000
vn -0.9988 -0.0483 -0.0000
vn 0.0116 -0.5516 -0.8340
vn 0.4830 -0.4830 -0.7303
vn 0.3268 -0.3268 -0.8868
vn 0.0073 -0.3458 -0.9383
vn 1.0000 0.0000 0.0000
vn 0.9975 0.0709 0.0000
vn -0.9975 0.0709 0.0000
vn -1.0000 0.0000 0.0000
vn -0.4830 -0.4830 -0.7303
vn -0.0116 -0.5516 -0.8340
vn -0.0073 -0.3458 -0.9383
vn -0.3268 -0.3268 -0.8868
vn 0.0191 -0.9078 -0.4189
vn 0.6722 -0.6722 -0.3102
vn 0.9974 -0.0712 -0.0145
vn 0.9950 0.1003 0.0000
vn -0.9950 0.1003 0.0000
vn -0.9974 -0.0712 -0.0145
vn -0.6722 -0.6722 -0.3102
vn -0.0191 -0.9078 -0.4189
vn 0.9891 -0.1474 0.0000
vn 0.9899 -0.1287 -0.0594
vn 0.9933 0.1154 0.0000
vn -0.9933 0.1154 0.0000
vn -0.9891 -0.1474 0.0000
vn -0.9899 -0.1287 -0.0594
vn 0.0191 -0.9078 0.4189
vn 0.9899 -0.1287 0.0594
vn 0.9974 -0.0712 0.0145
vn -0.9974 -0.0712 0.0145
vn -0.9899 -0.1287 0.0594
vn -0.0191 -0.9078 0.4189
vn 0.0116 -0.5516 0.8340
vn 0.4830 -0.4830 0.7303
vn 0.6722 -0.6722 0.3102
vn -0.4830 -0.4830 0.7303
vn -0.0116 -0.5516 0.8340
vn -0.6722 -0.6722 0.3102
vn 0.0073 -0.3458 0.9383
vn 0.3268 -0.3268 0.8868
vn 0.9990 -0.0440 0.0000
vn 0.9990 0.0455 0.0000
vn -0.9990 0.0455 0.0000
vn -0.9990 -0.0440 0.0000
vn -0.3268 -0.3268 0.8868
vn -0.0073 -0.3458 0.9383
vn 0.0210 -0.9962 -0.0848
vn 0.9984 -0.0569 -0.0048
vn 0.9991 0.0433 0.0000
vn -0.9991 0.0433 0.0000
vn -0.9984 -0.0569 -0.0048
vn -0.0210 -0.9962 -0.0848
vn 0.0205 -0.9760 -0.2169
vn 0.9982 -0.0579 -0.0129
vn 0.9990 0.0441 0.0000
vn -0.9990 0.0441 0.0000
vn -0.9982 -0.0579 -0.0129
vn -0.0205 -0.9760 -0.2169
vn 0.0058 -0.5492 0.8356
vn -0.0058 -0.5492 0.8356
vn -0.0058 -0.5492 -0.8356
vn 0.0058 -0.5492 -0.8356
vn 0.0187 -0.8635 0.5039
vn -0.0187 -0.8635 0.5039
vn 0.9239 -0.3827 0.0000
vn 0.3827 -0.9239 0.0000
vn -0.3827 -0.9239 0.0000
vn -0.9239 -0.3827 0.0000
vn -0.9239 0.3827 0.0000
vn -0.3827 0.9239 0.0000
vn 0.3827 0.9239 0.0000
vn 0.9239 0.3827 0.0000
vn -0.9923 0.0000 0.1240
vn 0.9923 0.0000 0.1240
vn -0.9864 0.0000 -0.1644
vn 0.9864 0.0000 -0.1644
vn 0.0000 -1.0000 0.0000
o Body
g Body
usemtl MI_CarBody_Bebek
f 1/1/1 2/1/2 3/1/2 4/1/1
f 2/1/2 5/1/3 6/1/3 3/1/2
f 5/1/3 7/1/4 8/1/4 6/1/3
f 7/1/4 9/1/5 10/1/5 8/1/4
f 9/1/5 11/1/6 12/1/6 10/1/5
f 11/1/6 13/1/6 14/1/6 12/1/6
f 13/1/6 15/1/6 16/1/6 14/1/6
f 15/1/6 17/1/7 18/1/7 16/1/6
f 17/1/7 19/1/8 20/1/8 18/1/7
f 19/1/8 21/1/9 22/1/9 20/1/8
f 21/1/9 23/1/10 24/1/10 22/1/9
f 23/1/10 25/1/11 26/1/11 24/1/10
f 4/1/1 3/1/2 27/1/12 28/1/1
f 3/1/2 6/1/3 29/1/13 27/1/12
f 6/1/3 8/1/4 30/1/14 29/1/13
f 8/1/4 10/1/5 31/1/15 30/1/14
f 10/1/5 12/1/6 32/1/16 31/1/15
f 12/1/6 14/1/6 33/1/17 32/1/16
f 14/1/6 16/1/6 34/1/16 33/1/17
f 16/1/6 18/1/7 35/1/18 34/1/16
f 18/1/7 20/1/8 36/1/19 35/1/18
f 20/1/8 22/1/9 37/1/20 36/1/19
f 22/1/9 24/1/10 38/1/21 37/1/20
f 24/1/10 26/1/11 39/1/11 38/1/21
f 28/1/1 27/1/12 40/1/22 41/1/1
f 27/1/12 29/1/13 42/1/23 40/1/22
f 29/1/13 30/1/14 43/1/24 42/1/23
f 30/1/14 31/1/15 44/1/25 43/1/24
f 31/1/15 32/1/16 45/1/26 44/1/25
f 32/1/16 33/1/17 45/1/26
f 33/1/17 46/1/27 45/1/26
f 33/1/17 34/1/16 47/1/28
f 33/1/17 47/1/28 46/1/27
f 34/1/16 35/1/18 48/1/29 47/1/28
f 35/1/18 36/1/19 49/1/30 48/1/29
f 36/1/19 37/1/20 50/1/31 49/1/30
f 37/1/20 38/1/21 51/1/32 50/1/31
f 38/1/21 39/1/11 52/1/11 51/1/32
f 41/1/33 40/1/34 53/1/35 54/1/36
f 40/1/22 42/1/23 55/1/37 53/1/38
f 42/1/23 43/1/24 56/1/39 55/1/37
f 43/1/24 44/1/25 57/1/40 56/1/39
f 44/1/25 45/1/26 58/1/41 57/1/40
f 45/1/26 46/1/27 59/1/42
f 45/1/26 59/1/42 58/1/41
f 46/1/27 47/1/28 59/1/42
f 47/1/28 60/1/43 59/1/42
f 47/1/28 48/1/29 61/1/44 60/1/43
f 48/1/29 49/1/30 62/1/45 61/1/44
f 49/1/30 50/1/31 63/1/46 62/1/45
f 50/1/31 51/1/32 64/1/47 63/1/46
f 51/1/48 52/1/49 65/1/50 64/1/51
f 54/1/52 53/1/35 66/1/53 67/1/54
f 53/1/38 55/1/37 68/1/55 66/1/56
f 55/1/37 56/1/39 69/1/57 68/1/55
f 56/1/39 57/1/40 70/1/58 69/1/57
f 57/1/40 58/1/41 71/1/59 70/1/58
f 58/1/41 59/1/42 72/1/60
f 58/1/41 72/1/60 71/1/59
f 59/1/42 60/1/43 72/1/60
f 60/1/43 73/1/61 72/1/60
f 60/1/43 61/1/44 74/1/62 73/1/61
f 61/1/44 62/1/45 75/1/63 74/1/62
f 62/1/45 63/1/46 76/1/64 75/1/63
f 63/1/46 64/1/47 77/1/65 76/1/64
f 64/1/51 65/1/66 78/1/67 77/1/68
f 67/1/54 66/1/69 79/1/70 80/1/71
f 66/1/56 68/1/55 81/1/72 79/1/70
f 68/1/55 69/1/57 82/1/4 81/1/72
f 69/1/57 70/1/58 83/1/73 82/1/4
f 70/1/58 71/1/59 84/1/74 83/1/73
f 71/1/59 72/1/60 84/1/74
f 72/1/60 85/1/75 84/1/74
f 72/1/60 73/1/61 86/1/76
f 72/1/60 86/1/76 85/1/75
f 73/1/61 74/1/62 87/1/77 86/1/76
f 74/1/62 75/1/63 88/1/8 87/1/77
f 75/1/63 76/1/64 89/1/78 88/1/8
f 76/1/64 77/1/65 90/1/79 89/1/78
f 77/1/80 78/1/67 91/1/81 90/1/79
f 80/1/71 79/1/70 92/1/82 93/1/83
f 79/1/70 81/1/72 94/1/84 92/1/85
f 81/1/72 82/1/4 95/1/86 94/1/84
f 82/1/4 83/1/73 96/1/87 95/1/86
f 83/1/73 84/1/74 97/1/88 96/1/87
f 84/1/74 85/1/75 97/1/88
f 85/1/75 98/1/89 97/1/88
f 85/1/75 86/1/76 99/1/90
f 85/1/75 99/1/90 98/1/89
f 86/1/76 87/1/77 100/1/91 99/1/90
f 87/1/77 88/1/8 101/1/92 100/1/91
f 88/1/8 89/1/78 102/1/93 101/1/92
f 89/1/78 90/1/79 103/1/94 102/1/93
f 90/1/79 91/1/81 104/1/95 103/1/96
f 93/1/83 92/1/97 105/1/98 106/1/99
f 92/1/85 94/1/84 107/1/100 105/1/101
f 94/1/84 95/1/86 108/1/102 107/1/100
f 95/1/86 96/1/87 109/1/103 108/1/102
f 96/1/87 97/1/88 110/1/104 109/1/103
f 97/1/88 98/1/89 110/1/104
f 98/1/89 111/1/105 110/1/104
f 98/1/89 99/1/90 112/1/106
f 98/1/89 112/1/106 111/1/105
f 99/1/90 100/1/91 113/1/107 112/1/106
f 100/1/91 101/1/92 114/1/108 113/1/107
f 101/1/92 102/1/93 115/1/109 114/1/108
f 102/1/93 103/1/94 116/1/110 115/1/109
f 103/1/111 104/1/95 117/1/112 116/1/113
f 106/1/114 105/1/98 118/1/115 119/1/116
f 105/1/101 107/1/100 120/1/117 118/1/118
f 107/1/100 108/1/102 121/1/119 120/1/117
f 108/1/102 109/1/103 122/1/120 121/1/119
f 109/1/103 110/1/104 123/1/121 122/1/120
f 110/1/104 111/1/105 123/1/121
f 111/1/105 124/1/122 123/1/121
f 111/1/105 112/1/106 125/1/123
f 111/1/105 125/1/123 124/1/122
f 112/1/106 113/1/107 126/1/124 125/1/123
f 113/1/107 114/1/108 127/1/125 126/1/124
f 114/1/108 115/1/109 128/1/126 127/1/125
f 115/1/109 116/1/110 129/1/127 128/1/126
f 116/1/113 117/1/128 130/1/129 129/1/130
f 119/1/131 118/1/118 131/1/132 132/1/133
f 118/1/118 120/1/117 133/1/134 131/1/132
f 120/1/117 121/1/119 134/1/135 133/1/134
f 121/1/119 122/1/120 135/1/136 134/1/135
f 122/1/120 123/1/121 136/1/137 135/1/136
f 123/1/121 124/1/122 136/1/137
f 124/1/122 137/1/138 136/1/137
f 124/1/122 125/1/123 138/1/139
f 124/1/122 138/1/139 137/1/138
f 125/1/123 126/1/124 139/1/140 138/1/139
f 126/1/124 127/1/125 140/1/141 139/1/140
f 127/1/125 128/1/126 141/1/142 140/1/141
f 128/1/126 129/1/127 142/1/143 141/1/142
f 129/1/127 130/1/144 143/1/145 142/1/143
f 132/1/133 131/1/132 144/1/146 145/1/147
f 131/1/132 133/1/134 146/1/148 144/1/149
f 133/1/134 134/1/135 147/1/150 146/1/148
f 134/1/135 135/1/136 148/1/151 147/1/152
f 135/1/136 136/1/137 149/1/153 148/1/151
f 136/1/137 137/1/138 149/1/153
f 137/1/138 150/1/154 149/1/153
f 137/1/138 138/1/139 151/1/155
f 137/1/138 151/1/155 150/1/154
f 138/1/139 139/1/140 152/1/156 151/1/155
f 139/1/140 140/1/141 153/1/157 152/1/156
f 140/1/141 141/1/142 154/1/158 153/1/159
f 141/1/142 142/1/143 155/1/160 154/1/158
f 142/1/143 143/1/145 156/1/161 155/1/162
f 145/1/163 144/1/164 157/1/165 158/1/166
f 144/1/146 146/1/148 159/1/167 157/1/165
f 146/1/148 147/1/168 160/1/169 159/1/167
f 147/1/170 148/1/151 161/1/171 160/1/169
f 148/1/151 149/1/153 162/1/172 161/1/171
f 149/1/153 150/1/154 162/1/172
f 150/1/154 163/1/173 162/1/172
f 150/1/154 151/1/155 164/1/174
f 150/1/154 164/1/174 163/1/173
f 151/1/155 152/1/156 165/1/175 164/1/174
f 152/1/156 153/1/176 166/1/177 165/1/175
f 153/1/178 154/1/158 167/1/179 166/1/177
f 154/1/158 155/1/162 168/1/180 167/1/179
f 155/1/181 156/1/182 169/1/183 168/1/180
f 25/1/184 23/1/184 21/1/184 19/1/184 17/1/184 15/1/184 13/1/184 11/1/184 9/1/184 7/1/184 5/1/184 2/1/184 1/1/184
f 169/1/185 158/1/185 157/1/185
f 169/1/185 157/1/185 159/1/185
f 169/1/185 159/1/185 160/1/185
f 169/1/185 160/1/185 161/1/185
f 169/1/185 161/1/185 162/1/185
f 169/1/185 162/1/185 163/1/185
f 169/1/185 163/1/185 164/1/185
f 169/1/185 164/1/185 165/1/185
f 169/1/185 165/1/185 166/1/185
f 169/1/185 166/1/185 167/1/185
f 167/1/185 168/1/185 169/1/185
f 170/1/6 171/1/6 172/1/6 173/1/6
f 174/1/4 175/1/4 170/1/4 173/1/4
f 176/1/8 172/1/8 171/1/8 177/1/8
f 178/1/186 179/1/186 175/1/186 174/1/186
f 180/1/187 176/1/187 177/1/187 181/1/187
f 178/1/188 174/1/188 173/1/188 172/1/188 176/1/188 180/1/188
f 179/1/189 181/1/189 177/1/189 171/1/189 170/1/189 175/1/189
f 182/1/190 183/1/191 184/1/191 185/1/190
f 183/1/191 186/1/192 187/1/192 184/1/191
f 186/1/192 188/1/193 189/1/193 187/1/192
f 188/1/193 190/1/6 191/1/6 189/1/193
f 192/1/6 193/1/194 194/1/194 195/1/6
f 193/1/194 196/1/195 197/1/195 194/1/194
f 196/1/195 198/1/196 199/1/196 197/1/195
f 198/1/196 200/1/197 201/1/197 199/1/196
f 202/1/190 203/1/198 183/1/191 182/1/190
f 203/1/198 204/1/199 186/1/192 183/1/191
f 204/1/199 205/1/193 188/1/193 186/1/192
f 205/1/193 206/1/6 190/1/6 188/1/193
f 207/1/6 208/1/194 193/1/194 192/1/6
f 208/1/194 209/1/200 196/1/195 193/1/194
f 209/1/200 210/1/201 198/1/196 196/1/195
f 210/1/201 211/1/197 200/1/197 198/1/196
f 212/1/202 213/1/203 203/1/204 202/1/205
f 213/1/206 214/1/207 204/1/199 203/1/198
f 214/1/207 215/1/193 205/1/193 204/1/199
f 215/1/193 216/1/6 206/1/6 205/1/193
f 217/1/6 218/1/194 208/1/194 207/1/6
f 218/1/194 219/1/208 209/1/200 208/1/194
f 219/1/208 220/1/209 210/1/201 209/1/200
f 220/1/210 221/1/211 211/1/212 210/1/213
f 222/1/214 223/1/215 213/1/203 212/1/202
f 223/1/216 224/1/217 214/1/207 213/1/206
f 224/1/217 225/1/193 215/1/193 214/1/207
f 225/1/193 226/1/6 216/1/6 215/1/193
f 227/1/6 228/1/194 218/1/194 217/1/6
f 228/1/194 229/1/218 219/1/208 218/1/194
f 229/1/218 230/1/219 220/1/209 219/1/208
f 230/1/220 231/1/221 221/1/211 220/1/210
f 232/1/190 233/1/222 223/1/223 222/1/214
f 233/1/222 234/1/224 224/1/217 223/1/216
f 234/1/224 235/1/193 225/1/193 224/1/217
f 235/1/193 236/1/6 226/1/6 225/1/193
f 237/1/6 238/1/194 228/1/194 227/1/6
f 238/1/194 239/1/225 229/1/218 228/1/194
f 239/1/225 240/1/226 230/1/219 229/1/218
f 240/1/226 241/1/197 231/1/221 230/1/227
f 242/1/228 243/1/229 233/1/222 232/1/190
f 243/1/230 244/1/217 234/1/224 233/1/222
f 244/1/217 245/1/193 235/1/193 234/1/224
f 245/1/193 246/1/6 236/1/6 235/1/193
f 247/1/6 248/1/194 238/1/194 237/1/6
f 248/1/194 249/1/218 239/1/225 238/1/194
f 249/1/218 250/1/231 240/1/226 239/1/225
f 250/1/232 251/1/233 241/1/197 240/1/226
f 252/1/234 253/1/235 243/1/236 242/1/228
f 253/1/206 254/1/207 244/1/217 243/1/230
f 254/1/207 255/1/193 245/1/193 244/1/217
f 255/1/193 256/1/6 246/1/6 245/1/193
f 257/1/6 258/1/194 248/1/194 247/1/6
f 258/1/194 259/1/208 249/1/218 248/1/194
f 259/1/208 260/1/209 250/1/231 249/1/218
f 260/1/237 261/1/238 251/1/233 250/1/239
f 262/1/240 263/1/241 253/1/235 252/1/234
f 263/1/242 264/1/243 254/1/207 253/1/206
f 264/1/243 265/1/193 255/1/193 254/1/207
f 265/1/193 266/1/6 256/1/6 255/1/193
f 267/1/6 268/1/194 258/1/194 257/1/6
f 268/1/194 269/1/244 259/1/208 258/1/194
f 269/1/244 270/1/245 260/1/209 259/1/208
f 270/1/246 271/1/247 261/1/238 260/1/237
f 272/1/248 273/1/249 263/1/242 262/1/190
f 273/1/249 274/1/250 264/1/243 263/1/242
f 274/1/250 275/1/193 265/1/193 264/1/243
f 275/1/193 276/1/6 266/1/6 265/1/193
f 277/1/6 278/1/194 268/1/194 267/1/6
f 278/1/194 279/1/251 269/1/244 268/1/194
f 279/1/251 280/1/252 270/1/245 269/1/244
f 280/1/252 281/1/253 271/1/197 270/1/245
f 282/1/254 283/1/255 273/1/249 272/1/248
f 283/1/255 284/1/256 274/1/250 273/1/249
f 284/1/256 285/1/193 275/1/193 274/1/250
f 285/1/193 286/1/6 276/1/6 275/1/193
f 287/1/6 288/1/194 278/1/194 277/1/6
f 288/1/194 289/1/257 279/1/251 278/1/194
f 289/1/257 290/1/258 280/1/252 279/1/251
f 290/1/258 291/1/259 281/1/253 280/1/252
f 201/1/185 185/1/185 184/1/185
f 184/1/185 187/1/185 189/1/185
f 184/1/185 189/1/185 191/1/185
f 184/1/185 191/1/185 292/1/185
f 201/1/185 184/1/185 292/1/185
f 201/1/185 292/1/185 293/1/185
f 201/1/185 293/1/185 195/1/185
f 201/1/185 195/1/185 194/1/185
f 201/1/185 194/1/185 197/1/185
f 197/1/185 199/1/185 201/1/185
f 282/1/184 291/1/184 290/1/184
f 290/1/184 289/1/184 288/1/184
f 290/1/184 288/1/184 287/1/184
f 290/1/184 287/1/184 294/1/184
f 282/1/184 290/1/184 294/1/184
f 282/1/184 294/1/184 295/1/184
f 282/1/184 295/1/184 286/1/184
f 282/1/184 286/1/184 285/1/184
f 282/1/184 285/1/184 284/1/184
f 284/1/184 283/1/184 282/1/184
f 287/1/184 286/1/184 295/1/184 294/1/184
f 296/1/6 297/1/6 286/1/6 287/1/6
usemtl MI_Palette
f 25/2/11 1/2/1 4/2/1 26/2/11
f 26/2/11 4/2/1 28/2/1 39/2/11
f 39/2/11 28/2/1 41/2/1 52/2/11
f 52/2/49 41/2/33 54/2/260 65/2/261
f 65/2/50 54/2/36 67/2/54 78/2/67
f 78/2/67 67/2/54 80/2/71 91/2/81
f 91/2/81 80/2/71 93/2/83 104/2/95
f 104/2/95 93/2/83 106/2/114 117/2/128
f 117/2/262 106/2/263 119/2/116 130/2/129
f 130/2/144 119/2/131 132/2/133 143/2/145
f 143/2/145 132/2/133 145/2/264 156/2/265
f 156/2/161 145/2/147 158/2/166 169/2/183
f 190/3/209 298/3/209 292/3/209 191/3/209
f 298/3/6 299/3/6 293/3/6 292/3/6
f 299/3/206 192/3/206 195/3/206 293/3/206
f 200/2/197 182/2/190 185/2/190 201/2/197
f 206/3/209 300/3/209 298/3/209 190/3/209
f 300/3/6 301/3/6 299/3/6 298/3/6
f 301/3/206 207/3/206 192/3/206 299/3/206
f 211/2/197 202/2/190 182/2/190 200/2/197
f 216/3/209 302/3/209 300/3/209 206/3/209
f 302/3/6 303/3/6 301/3/6 300/3/6
f 303/3/206 217/3/206 207/3/206 301/3/206
f 221/2/211 212/2/202 202/2/205 211/2/212
f 226/3/209 304/3/209 302/3/209 216/3/209
f 304/3/6 305/3/6 303/3/6 302/3/6
f 305/3/206 227/3/206 217/3/206 303/3/206
f 231/2/221 222/2/214 212/2/202 221/2/211
f 236/3/209 306/3/209 304/3/209 226/3/209
f 306/3/6 307/3/6 305/3/6 304/3/6
f 307/3/206 237/3/206 227/3/206 305/3/206
f 241/2/197 232/2/190 222/2/214 231/2/221
f 246/3/209 308/3/209 306/3/209 236/3/209
f 308/3/6 309/3/6 307/3/6 306/3/6
f 309/3/206 247/3/206 237/3/206 307/3/206
f 251/2/233 242/2/228 232/2/190 241/2/197
f 256/3/209 310/3/209 308/3/209 246/3/209
f 310/3/6 311/3/6 309/3/6 308/3/6
f 311/3/206 257/3/206 247/3/206 309/3/206
f 261/2/238 252/2/234 242/2/228 251/2/233
f 266/3/209 312/3/209 310/3/209 256/3/209
f 312/3/6 313/3/6 311/3/6 310/3/6
f 313/3/206 267/3/206 257/3/206 311/3/206
f 271/2/247 262/2/240 252/2/234 261/2/238
f 276/3/209 314/3/209 312/3/209 266/3/209
f 314/3/6 315/3/6 313/3/6 312/3/6
f 315/3/206 277/3/206 267/3/206 313/3/206
f 281/2/253 272/2/248 262/2/190 271/2/197
f 286/3/209 295/3/209 314/3/209 276/3/209
f 295/3/6 294/3/6 315/3/6 314/3/6
f 294/3/206 287/3/206 277/3/206 315/3/206
f 291/2/259 282/2/254 272/2/248 281/2/253
f 316/3/185 317/3/185 297/3/185 296/3/185
f 318/2/185 319/2/185 320/2/185 321/2/185
f 322/4/266 323/4/267 324/4/267 325/4/266
f 323/4/267 326/4/268 327/4/268 324/4/267
f 326/4/268 328/4/269 329/4/269 327/4/268
f 328/4/269 330/4/270 331/4/270 329/4/269
f 330/4/270 332/4/271 333/4/271 331/4/270
f 332/4/271 334/4/272 335/4/272 333/4/271
f 334/4/272 336/4/273 337/4/273 335/4/272
f 336/4/273 322/4/266 325/4/266 337/4/273
f 336/4/185 334/4/185 332/4/185 330/4/185 328/4/185 326/4/185 323/4/185 322/4/185
f 338/5/184 339/5/184 340/5/184 341/5/184
f 342/4/266 343/4/267 344/4/267 345/4/266
f 343/4/267 346/4/268 347/4/268 344/4/267
f 346/4/268 348/4/269 349/4/269 347/4/268
f 348/4/269 350/4/270 351/4/270 349/4/269
f 350/4/270 352/4/271 353/4/271 351/4/270
f 352/4/271 354/4/272 355/4/272 353/4/271
f 354/4/272 356/4/273 357/4/273 355/4/272
f 356/4/273 342/4/266 345/4/266 357/4/273
f 356/4/185 354/4/185 352/4/185 350/4/185 348/4/185 346/4/185 343/4/185 342/4/185
f 358/5/184 359/5/184 360/5/184 361/5/184
f 362/2/206 363/2/206 364/2/206 365/2/206 366/2/206 367/2/206 368/2/206
f 369/2/209 370/2/209 371/2/209 372/2/209 373/2/209 374/2/209 375/2/209
f 376/2/206 377/2/206 378/2/206 379/2/206 380/2/206 381/2/206 382/2/206
f 383/2/209 384/2/209 385/2/209 386/2/209 387/2/209 388/2/209 389/2/209
usemtl MI_Palette_Chrome
f 390/6/274 391/6/274 392/6/274 393/6/274
f 391/6/185 394/6/185 395/6/185 392/6/185
f 394/6/275 396/6/275 397/6/275 395/6/275
f 396/6/184 398/6/184 399/6/184 397/6/184
f 398/6/276 400/6/276 401/6/276 399/6/276
f 400/6/184 402/6/184 403/6/184 401/6/184
f 402/6/277 404/6/277 405/6/277 403/6/277
f 404/6/184 390/6/184 393/6/184 405/6/184
f 390/6/278 404/6/278 402/6/278
f 400/6/278 398/6/278 396/6/278
f 400/6/278 396/6/278 394/6/278
f 402/6/278 400/6/278 394/6/278
f 402/6/278 394/6/278 391/6/278
f 402/6/278 391/6/278 390/6/278
f 405/6/6 393/6/6 392/6/6
f 395/6/6 397/6/6 399/6/6
f 395/6/6 399/6/6 401/6/6
f 392/6/6 395/6/6 401/6/6
f 392/6/6 401/6/6 403/6/6
f 392/6/6 403/6/6 405/6/6
f 406/6/209 407/6/209 408/6/209 409/6/209
f 410/6/206 411/6/206 412/6/206 413/6/206
f 406/6/278 413/6/278 412/6/278 407/6/278
f 408/6/6 411/6/6 410/6/6 409/6/6
f 409/6/184 410/6/184 413/6/184 406/6/184
f 414/6/185 415/6/185 416/6/185 417/6/185
usemtl MI_CarGlass
f 418/7/188 419/7/188 420/7/188 421/7/188 422/7/188 423/7/188
f 424/7/189 425/7/189 426/7/189 427/7/189 428/7/189 429/7/189
f 430/7/186 431/7/186 432/7/186 433/7/186
f 434/7/187 435/7/187 436/7/187 437/7/187
