# Cook No Evil! · sokak modelleri
# AR-01 · Sedan (gövde + cam)
# Pivot: Taban ortası, ön +Z
# birim m · Y yukarı · ön +Z · üçgen 772
mtllib CNE_Sokak.mtl
v 0.75000 0.46000 -2.46000
v 0.80000 0.51000 -2.46000
v 0.87000 0.43000 -2.40000
v 0.82000 0.38000 -2.40000
v 0.80000 0.82000 -2.46000
v 0.87000 0.86000 -2.40000
v 0.77657 0.87657 -2.46000
v 0.84364 0.92364 -2.40000
v 0.72000 0.90000 -2.46000
v 0.78000 0.95000 -2.40000
v 0.40000 0.90000 -2.46000
v 0.43500 0.95000 -2.40000
v 0.00000 0.89000 -2.46000
v 0.00000 0.94000 -2.40000
v -0.40000 0.90000 -2.46000
v -0.43500 0.95000 -2.40000
v -0.72000 0.90000 -2.46000
v -0.78000 0.95000 -2.40000
v -0.77657 0.87657 -2.46000
v -0.84364 0.92364 -2.40000
v -0.80000 0.82000 -2.46000
v -0.87000 0.86000 -2.40000
v -0.80000 0.51000 -2.46000
v -0.87000 0.43000 -2.40000
v -0.75000 0.46000 -2.46000
v -0.82000 0.38000 -2.40000
v 0.92000 0.35000 -2.20000
v 0.87000 0.30000 -2.20000
v 0.92000 0.87000 -2.20000
v 0.89071 0.94071 -2.20000
v 0.82000 0.97000 -2.20000
v 0.46000 0.97000 -2.20000
v 0.00000 0.95000 -2.20000
v -0.46000 0.97000 -2.20000
v -0.82000 0.97000 -2.20000
v -0.89071 0.94071 -2.20000
v -0.92000 0.87000 -2.20000
v -0.92000 0.35000 -2.20000
v -0.87000 0.30000 -2.20000
v 0.95000 0.35000 -1.90000
v 0.90000 0.30000 -1.90000
v 0.95000 0.87000 -1.90000
v 0.92071 0.94071 -1.90000
v 0.85000 0.97000 -1.90000
v 0.47500 0.97000 -1.90000
v 0.00000 0.95000 -1.90000
v -0.47500 0.97000 -1.90000
v -0.85000 0.97000 -1.90000
v -0.92071 0.94071 -1.90000
v -0.95000 0.87000 -1.90000
v -0.95000 0.35000 -1.90000
v -0.90000 0.30000 -1.90000
v 0.95000 0.63284 -1.80000
v 0.90000 0.58284 -1.80000
v 0.95000 0.87000 -1.80000
v 0.92071 0.94071 -1.80000
v 0.85000 0.97000 -1.80000
v 0.47500 0.97000 -1.80000
v 0.00000 0.95000 -1.80000
v -0.47500 0.97000 -1.80000
v -0.85000 0.97000 -1.80000
v -0.92071 0.94071 -1.80000
v -0.95000 0.87000 -1.80000
v -0.95000 0.63284 -1.80000
v -0.90000 0.58284 -1.80000
v 0.95500 0.76665 -1.62000
v 0.90500 0.71665 -1.62000
v 0.95500 0.87000 -1.62000
v 0.92571 0.94071 -1.62000
v 0.85500 0.97000 -1.62000
v 0.47750 0.97000 -1.62000
v 0.00000 0.95000 -1.62000
v -0.47750 0.97000 -1.62000
v -0.85500 0.97000 -1.62000
v -0.92571 0.94071 -1.62000
v -0.95500 0.87000 -1.62000
v -0.95500 0.76665 -1.62000
v -0.90500 0.71665 -1.62000
v 0.95500 0.80000 -1.45000
v 0.90500 0.75000 -1.45000
v 0.95500 0.87000 -1.45000
v 0.92571 0.94071 -1.45000
v 0.85500 0.97000 -1.45000
v 0.47750 0.97000 -1.45000
v 0.00000 0.95000 -1.45000
v -0.47750 0.97000 -1.45000
v -0.85500 0.97000 -1.45000
v -0.92571 0.94071 -1.45000
v -0.95500 0.87000 -1.45000
v -0.95500 0.80000 -1.45000
v -0.90500 0.75000 -1.45000
v 0.95500 0.76665 -1.28000
v 0.90500 0.71665 -1.28000
v 0.95500 0.87000 -1.28000
v 0.92571 0.94071 -1.28000
v 0.85500 0.97000 -1.28000
v 0.47750 0.97000 -1.28000
v 0.00000 0.95000 -1.28000
v -0.47750 0.97000 -1.28000
v -0.85500 0.97000 -1.28000
v -0.92571 0.94071 -1.28000
v -0.95500 0.87000 -1.28000
v -0.95500 0.76665 -1.28000
v -0.90500 0.71665 -1.28000
v 0.95000 0.63284 -1.10000
v 0.90000 0.58284 -1.10000
v 0.95000 0.86000 -1.10000
v 0.92071 0.93071 -1.10000
v 0.85000 0.96000 -1.10000
v 0.47500 0.96000 -1.10000
v 0.00000 0.95000 -1.10000
v -0.47500 0.96000 -1.10000
v -0.85000 0.96000 -1.10000
v -0.92071 0.93071 -1.10000
v -0.95000 0.86000 -1.10000
v -0.95000 0.63284 -1.10000
v -0.90000 0.58284 -1.10000
v 0.94500 0.35000 -1.00000
v 0.89500 0.30000 -1.00000
v 0.94500 0.86000 -1.00000
v 0.91571 0.93071 -1.00000
v 0.84500 0.96000 -1.00000
v 0.47250 0.96000 -1.00000
v 0.00000 0.95500 -1.00000
v -0.47250 0.96000 -1.00000
v -0.84500 0.96000 -1.00000
v -0.91571 0.93071 -1.00000
v -0.94500 0.86000 -1.00000
v -0.94500 0.35000 -1.00000
v -0.89500 0.30000 -1.00000
v 0.93500 0.35000 -0.50000
v 0.88500 0.30000 -0.50000
v 0.93500 0.85500 -0.50000
v 0.90571 0.92571 -0.50000
v 0.83500 0.95500 -0.50000
v 0.46750 0.95500 -0.50000
v 0.00000 0.95500 -0.50000
v -0.46750 0.95500 -0.50000
v -0.83500 0.95500 -0.50000
v -0.90571 0.92571 -0.50000
v -0.93500 0.85500 -0.50000
v -0.93500 0.35000 -0.50000
v -0.88500 0.30000 -0.50000
v 0.93000 0.35000 0.00000
v 0.88000 0.30000 0.00000
v 0.93000 0.85500 0.00000
v 0.90071 0.92571 0.00000
v 0.83000 0.95500 0.00000
v 0.46500 0.95500 0.00000
v 0.00000 0.95500 0.00000
v -0.46500 0.95500 0.00000
v -0.83000 0.95500 0.00000
v -0.90071 0.92571 0.00000
v -0.93000 0.85500 0.00000
v -0.93000 0.35000 0.00000
v -0.88000 0.30000 0.00000
v 0.93500 0.35000 0.50000
v 0.88500 0.30000 0.50000
v 0.93500 0.85500 0.50000
v 0.90571 0.92571 0.50000
v 0.83500 0.95500 0.50000
v 0.46750 0.95500 0.50000
v 0.00000 0.95500 0.50000
v -0.46750 0.95500 0.50000
v -0.83500 0.95500 0.50000
v -0.90571 0.92571 0.50000
v -0.93500 0.85500 0.50000
v -0.93500 0.35000 0.50000
v -0.88500 0.30000 0.50000
v 0.94500 0.35000 1.00000
v 0.89500 0.30000 1.00000
v 0.94500 0.86500 1.00000
v 0.91571 0.93571 1.00000
v 0.84500 0.96500 1.00000
v 0.47250 0.96500 1.00000
v 0.00000 0.95000 1.00000
v -0.47250 0.96500 1.00000
v -0.84500 0.96500 1.00000
v -0.91571 0.93571 1.00000
v -0.94500 0.86500 1.00000
v -0.94500 0.35000 1.00000
v -0.89500 0.30000 1.00000
v 0.95000 0.63284 1.10000
v 0.90000 0.58284 1.10000
v 0.95000 0.87000 1.10000
v 0.92071 0.94071 1.10000
v 0.85000 0.97000 1.10000
v 0.47500 0.97000 1.10000
v 0.00000 0.94500 1.10000
v -0.47500 0.97000 1.10000
v -0.85000 0.97000 1.10000
v -0.92071 0.94071 1.10000
v -0.95000 0.87000 1.10000
v -0.95000 0.63284 1.10000
v -0.90000 0.58284 1.10000
v 0.95500 0.76665 1.28000
v 0.90500 0.71665 1.28000
v 0.95500 0.87500 1.28000
v 0.92571 0.94571 1.28000
v 0.85500 0.97500 1.28000
v 0.47750 0.97500 1.28000
v 0.00000 0.93500 1.28000
v -0.47750 0.97500 1.28000
v -0.85500 0.97500 1.28000
v -0.92571 0.94571 1.28000
v -0.95500 0.87500 1.28000
v -0.95500 0.76665 1.28000
v -0.90500 0.71665 1.28000
v 0.95500 0.80000 1.45000
v 0.90500 0.75000 1.45000
v 0.95500 0.87500 1.45000
v 0.92571 0.94571 1.45000
v 0.85500 0.97500 1.45000
v 0.47750 0.97500 1.45000
v 0.00000 0.92500 1.45000
v -0.47750 0.97500 1.45000
v -0.85500 0.97500 1.45000
v -0.92571 0.94571 1.45000
v -0.95500 0.87500 1.45000
v -0.95500 0.80000 1.45000
v -0.90500 0.75000 1.45000
v 0.95500 0.76665 1.62000
v 0.90500 0.71665 1.62000
v 0.95500 0.87000 1.62000
v 0.92571 0.94071 1.62000
v 0.85500 0.97000 1.62000
v 0.47750 0.97000 1.62000
v 0.00000 0.91500 1.62000
v -0.47750 0.97000 1.62000
v -0.85500 0.97000 1.62000
v -0.92571 0.94071 1.62000
v -0.95500 0.87000 1.62000
v -0.95500 0.76665 1.62000
v -0.90500 0.71665 1.62000
v 0.95000 0.63284 1.80000
v 0.90000 0.58284 1.80000
v 0.95000 0.86500 1.80000
v 0.92071 0.93571 1.80000
v 0.85000 0.96500 1.80000
v 0.47500 0.96500 1.80000
v 0.00000 0.90500 1.80000
v -0.47500 0.96500 1.80000
v -0.85000 0.96500 1.80000
v -0.92071 0.93571 1.80000
v -0.95000 0.86500 1.80000
v -0.95000 0.63284 1.80000
v -0.90000 0.58284 1.80000
v 0.94500 0.35000 1.90000
v 0.89500 0.30000 1.90000
v 0.94500 0.86000 1.90000
v 0.91571 0.93071 1.90000
v 0.84500 0.96000 1.90000
v 0.47250 0.96000 1.90000
v 0.00000 0.90000 1.90000
v -0.47250 0.96000 1.90000
v -0.84500 0.96000 1.90000
v -0.91571 0.93071 1.90000
v -0.94500 0.86000 1.90000
v -0.94500 0.35000 1.90000
v -0.89500 0.30000 1.90000
v 0.92000 0.37000 2.20000
v 0.87000 0.32000 2.20000
v 0.92000 0.83000 2.20000
v 0.89071 0.90071 2.20000
v 0.82000 0.93000 2.20000
v 0.46000 0.93000 2.20000
v 0.00000 0.88000 2.20000
v -0.46000 0.93000 2.20000
v -0.82000 0.93000 2.20000
v -0.89071 0.90071 2.20000
v -0.92000 0.83000 2.20000
v -0.92000 0.37000 2.20000
v -0.87000 0.32000 2.20000
v 0.87000 0.43000 2.40000
v 0.82000 0.38000 2.40000
v 0.87000 0.79000 2.40000
v 0.84364 0.85364 2.40000
v 0.78000 0.88000 2.40000
v 0.43500 0.88000 2.40000
v 0.00000 0.85000 2.40000
v -0.43500 0.88000 2.40000
v -0.78000 0.88000 2.40000
v -0.84364 0.85364 2.40000
v -0.87000 0.79000 2.40000
v -0.87000 0.43000 2.40000
v -0.82000 0.38000 2.40000
v 0.79000 0.51000 2.46000
v 0.74000 0.46000 2.46000
v 0.79000 0.74000 2.46000
v 0.76657 0.79657 2.46000
v 0.71000 0.82000 2.46000
v 0.39500 0.82000 2.46000
v 0.00000 0.80000 2.46000
v -0.39500 0.82000 2.46000
v -0.71000 0.82000 2.46000
v -0.76657 0.79657 2.46000
v -0.79000 0.74000 2.46000
v -0.79000 0.51000 2.46000
v -0.74000 0.46000 2.46000
v 0.65882 1.45000 -0.50000
v -0.65882 1.45000 -0.50000
v -0.65882 1.45000 0.35000
v 0.65882 1.45000 0.35000
v 0.73882 1.37000 0.42843
v 0.73882 1.37000 -0.55490
v -0.73882 1.37000 0.42843
v -0.73882 1.37000 -0.55490
v 0.84000 0.94000 0.85000
v 0.84000 0.94000 -0.85000
v -0.84000 0.94000 0.85000
v -0.84000 0.94000 -0.85000
v 0.78000 0.95000 -1.10000
v 0.78000 0.95000 -2.38000
v 0.86000 0.95000 -2.38000
v 0.86000 0.95000 -1.10000
v 0.78000 1.10000 -2.38000
v 0.86000 1.10000 -2.38000
v -0.86000 0.95000 -1.10000
v -0.86000 0.95000 -2.38000
v -0.78000 0.95000 -2.38000
v -0.78000 0.95000 -1.10000
v -0.86000 1.10000 -2.38000
v -0.78000 1.10000 -2.38000
v 0.78500 1.08000 -2.38500
v 0.85500 1.08000 -2.38500
v 0.85500 0.98000 -2.38500
v 0.78500 0.98000 -2.38500
v -0.85500 1.08000 -2.38500
v -0.78500 1.08000 -2.38500
v -0.78500 0.98000 -2.38500
v -0.85500 0.98000 -2.38500
v -0.36000 0.59000 2.46600
v 0.36000 0.59000 2.46600
v 0.36000 0.71000 2.46600
v -0.36000 0.71000 2.46600
v 0.67853 0.66747 2.49000
v 0.63253 0.62147 2.49000
v 0.63253 0.62147 2.43000
v 0.67853 0.66747 2.43000
v 0.56747 0.62147 2.49000
v 0.56747 0.62147 2.43000
v 0.52147 0.66747 2.49000
v 0.52147 0.66747 2.43000
v 0.52147 0.73253 2.49000
v 0.52147 0.73253 2.43000
v 0.56747 0.77853 2.49000
v 0.56747 0.77853 2.43000
v 0.63253 0.77853 2.49000
v 0.63253 0.77853 2.43000
v 0.67853 0.73253 2.49000
v 0.67853 0.73253 2.43000
v -0.52147 0.66747 2.49000
v -0.56747 0.62147 2.49000
v -0.56747 0.62147 2.43000
v -0.52147 0.66747 2.43000
v -0.63253 0.62147 2.49000
v -0.63253 0.62147 2.43000
v -0.67853 0.66747 2.49000
v -0.67853 0.66747 2.43000
v -0.67853 0.73253 2.49000
v -0.67853 0.73253 2.43000
v -0.63253 0.77853 2.49000
v -0.63253 0.77853 2.43000
v -0.56747 0.77853 2.49000
v -0.56747 0.77853 2.43000
v -0.52147 0.73253 2.49000
v -0.52147 0.73253 2.43000
v 0.62000 0.30000 1.00000
v 0.62000 0.52500 1.06029
v 0.62000 0.68971 1.22500
v 0.62000 0.75000 1.45000
v 0.62000 0.68971 1.67500
v 0.62000 0.52500 1.83971
v 0.62000 0.30000 1.90000
v -0.62000 0.30000 1.90000
v -0.62000 0.52500 1.83971
v -0.62000 0.68971 1.67500
v -0.62000 0.75000 1.45000
v -0.62000 0.68971 1.22500
v -0.62000 0.52500 1.06029
v -0.62000 0.30000 1.00000
v 0.62000 0.30000 -1.90000
v 0.62000 0.52500 -1.83971
v 0.62000 0.68971 -1.67500
v 0.62000 0.75000 -1.45000
v 0.62000 0.68971 -1.22500
v 0.62000 0.52500 -1.06029
v 0.62000 0.30000 -1.00000
v -0.62000 0.30000 -1.00000
v -0.62000 0.52500 -1.06029
v -0.62000 0.68971 -1.22500
v -0.62000 0.75000 -1.45000
v -0.62000 0.68971 -1.67500
v -0.62000 0.52500 -1.83971
v -0.62000 0.30000 -1.90000
v -0.97000 0.36000 2.20000
v -0.93000 0.36000 2.52000
v -0.93000 0.50000 2.52000
v -0.97000 0.50000 2.20000
v 0.93000 0.36000 2.52000
v 0.93000 0.50000 2.52000
v 0.97000 0.36000 2.20000
v 0.97000 0.50000 2.20000
v 0.90000 0.36000 2.20000
v 0.90000 0.50000 2.20000
v 0.86000 0.36000 2.44000
v 0.86000 0.50000 2.44000
v -0.86000 0.36000 2.44000
v -0.86000 0.50000 2.44000
v -0.90000 0.36000 2.20000
v -0.90000 0.50000 2.20000
v -0.95000 0.52000 -2.20000
v -0.91000 0.52000 -2.52000
v -0.91000 0.38000 -2.52000
v -0.95000 0.38000 -2.20000
v 0.91000 0.52000 -2.52000
v 0.91000 0.38000 -2.52000
v 0.95000 0.52000 -2.20000
v 0.95000 0.38000 -2.20000
v 0.88000 0.52000 -2.20000
v 0.88000 0.38000 -2.20000
v 0.84000 0.52000 -2.44000
v 0.84000 0.38000 -2.44000
v -0.84000 0.52000 -2.44000
v -0.84000 0.38000 -2.44000
v -0.88000 0.52000 -2.20000
v -0.88000 0.38000 -2.20000
v -0.40000 0.56000 2.46200
v 0.40000 0.56000 2.46200
v 0.40000 0.74000 2.46200
v -0.40000 0.74000 2.46200
v 0.76908 0.98564 0.81085
v 0.68195 1.35595 0.44781
v 0.62794 1.40996 0.39486
v -0.62794 1.40996 0.39486
v -0.68195 1.35595 0.44781
v -0.76908 0.98564 0.81085
v 0.75511 0.99998 -0.81369
v -0.75511 0.99998 -0.81369
v -0.67349 1.34687 -0.57563
v -0.62581 1.39455 -0.54291
v 0.62581 1.39455 -0.54291
v 0.67349 1.34687 -0.57563
v 0.83224 0.99000 0.72098
v 0.83224 0.99000 0.01000
v 0.75224 1.33000 0.01000
v 0.75224 1.33000 0.38765
v 0.83224 0.99000 -0.07000
v 0.83224 0.99000 -0.72569
v 0.75224 1.33000 -0.49235
v 0.75224 1.33000 -0.07000
v -0.75224 1.33000 0.38765
v -0.75224 1.33000 0.01000
v -0.83224 0.99000 0.01000
v -0.83224 0.99000 0.72098
v -0.75224 1.33000 -0.07000
v -0.75224 1.33000 -0.49235
v -0.83224 0.99000 -0.72569
v -0.83224 0.99000 -0.07000
vt 0.531250 0.281250
vt 0.531250 0.656250
vt 0.406250 0.593750
vt 0.031250 0.531250
vt 0.031250 0.656250
vt 0.406250 0.656250
vn 0.0182 -0.5897 -0.8074
vn 0.6007 -0.0715 -0.7962
vn 0.6427 -0.2373 -0.7285
vn 0.0248 -0.8507 -0.5251
vn 0.6381 0.0369 -0.7691
vn 0.9157 0.0481 -0.3990
vn 0.8948 -0.0893 -0.4374
vn 0.4219 0.4219 -0.8025
vn 0.7354 0.4232 -0.5293
vn 0.0472 0.7437 -0.6669
vn 0.0630 0.9598 -0.2735
vn 0.4335 0.7535 -0.4943
vn -0.0103 0.7697 -0.6384
vn -0.0167 0.9781 -0.2073
vn 0.0000 0.7682 -0.6402
vn 0.0000 0.9486 -0.3165
vn 0.0103 0.7697 -0.6384
vn 0.0167 0.9781 -0.2073
vn -0.0472 0.7437 -0.6669
vn -0.0630 0.9598 -0.2735
vn -0.4219 0.4219 -0.8025
vn -0.4335 0.7535 -0.4943
vn -0.6381 0.0369 -0.7691
vn -0.9157 0.0481 -0.3990
vn -0.7354 0.4232 -0.5293
vn -0.6007 -0.0715 -0.7962
vn -0.8948 -0.0893 -0.4374
vn -0.0182 -0.5897 -0.8074
vn -0.0248 -0.8507 -0.5251
vn -0.6427 -0.2373 -0.7285
vn 0.9817 -0.0889 -0.1684
vn 0.0639 -0.9283 -0.3662
vn 0.9125 -0.0717 -0.4028
vn 0.9865 0.0496 -0.1558
vn 0.6948 0.6299 -0.3472
vn 0.7011 0.7011 -0.1301
vn 0.6345 0.6999 -0.3279
vn 0.0664 0.9966 -0.0481
vn -0.0218 0.9993 -0.0306
vn 0.0000 0.9992 -0.0411
vn 0.0218 0.9993 -0.0306
vn -0.0664 0.9966 -0.0481
vn -0.6345 0.6999 -0.3279
vn -0.7011 0.7011 -0.1301
vn -0.6948 0.6299 -0.3472
vn -0.9865 0.0496 -0.1558
vn -0.9125 -0.0717 -0.4028
vn -0.9817 -0.0889 -0.1684
vn -0.0639 -0.9283 -0.3662
vn 0.0276 -0.9870 -0.1581
vn 0.9941 -0.0714 -0.0814
vn 0.0275 -0.9996 -0.0027
vn 0.9955 0.0525 -0.0794
vn 0.7061 0.7061 -0.0530
vn 0.0664 0.9978 -0.0050
vn -0.0188 0.9998 0.0006
vn 0.0000 1.0000 0.0008
vn 0.0188 0.9998 0.0006
vn -0.0664 0.9978 -0.0050
vn -0.7061 0.7061 -0.0530
vn -0.9955 0.0525 -0.0794
vn -0.9941 -0.0714 -0.0814
vn -0.0276 -0.9870 -0.1581
vn -0.0275 -0.9996 -0.0027
vn 0.0090 -0.3333 0.9428
vn 0.3162 -0.3162 0.8944
vn 0.4902 -0.4902 0.7207
vn 0.0151 -0.5582 0.8296
vn 0.9956 0.0925 -0.0136
vn 0.9999 0.0000 -0.0124
vn 0.7071 0.7071 -0.0126
vn 0.0655 0.9979 -0.0012
vn -0.0235 0.9997 0.0001
vn 0.0000 1.0000 0.0002
vn 0.0235 0.9997 0.0001
vn -0.0655 0.9979 -0.0012
vn -0.7071 0.7071 -0.0126
vn -0.9956 0.0925 -0.0136
vn -0.9999 0.0000 -0.0124
vn -0.3162 -0.3162 0.8944
vn -0.0090 -0.3333 0.9428
vn -0.0151 -0.5582 0.8296
vn -0.4902 -0.4902 0.7207
vn 0.0327 -0.7906 0.6115
vn 0.6720 -0.6720 0.3113
vn 0.0243 -0.9024 0.4303
vn 0.9893 0.1446 -0.0170
vn 0.9877 -0.1558 0.0150
vn 0.7071 0.7071 -0.0101
vn 0.0653 0.9979 -0.0009
vn -0.0234 0.9997 0.0001
vn 0.0000 1.0000 0.0001
vn 0.0234 0.9997 0.0001
vn -0.0653 0.9979 -0.0009
vn -0.7071 0.7071 -0.0101
vn -0.9893 0.1446 -0.0170
vn -0.9877 -0.1558 0.0150
vn -0.0327 -0.7906 0.6115
vn -0.0243 -0.9024 0.4303
vn -0.6720 -0.6720 0.3113
vn 0.9575 -0.2665 0.1105
vn 0.9391 -0.3436 0.0000
vn 0.0269 -0.9996 0.0000
vn 0.9831 0.1830 0.0000
vn 0.7071 0.7071 0.0000
vn 0.0652 0.9979 0.0000
vn -0.0234 0.9997 0.0000
vn 0.0000 1.0000 0.0000
vn 0.0234 0.9997 0.0000
vn -0.0652 0.9979 0.0000
vn -0.7071 0.7071 0.0000
vn -0.9831 0.1830 0.0000
vn -0.9391 -0.3436 0.0000
vn -0.9575 -0.2665 0.1105
vn -0.0269 -0.9996 0.0000
vn 0.9563 -0.2700 -0.1123
vn 0.0243 -0.9024 -0.4303
vn 0.9890 0.1464 0.0210
vn 0.9873 -0.1584 -0.0157
vn 0.7068 0.7068 0.0303
vn 0.0653 0.9974 0.0294
vn -0.0203 0.9995 0.0239
vn 0.0000 0.9999 0.0142
vn 0.0203 0.9995 0.0239
vn -0.0653 0.9974 0.0294
vn -0.7068 0.7068 0.0303
vn -0.9890 0.1464 0.0210
vn -0.9873 -0.1584 -0.0157
vn -0.0243 -0.9024 -0.4303
vn -0.9563 -0.2700 -0.1123
vn 0.6720 -0.6720 -0.3113
vn 0.4933 -0.4933 -0.7164
vn 0.0327 -0.7909 -0.6111
vn 0.9946 0.0944 0.0422
vn 0.9992 0.0000 0.0400
vn 0.7062 0.7062 0.0504
vn 0.0655 0.9971 0.0380
vn -0.0149 0.9995 0.0285
vn 0.0000 0.9999 -0.0132
vn 0.0149 0.9995 0.0285
vn -0.0655 0.9971 0.0380
vn -0.7062 0.7062 0.0504
vn -0.9946 0.0944 0.0422
vn -0.9992 0.0000 0.0400
vn -0.6720 -0.6720 -0.3113
vn -0.0327 -0.7909 -0.6111
vn -0.4933 -0.4933 -0.7164
vn 0.0151 -0.5586 -0.8293
vn 0.3208 -0.3208 -0.8912
vn 0.0090 -0.3335 -0.9427
vn 0.9983 0.0527 0.0244
vn 0.9966 -0.0789 0.0234
vn 0.7069 0.7069 0.0236
vn 0.0662 0.9978 0.0100
vn -0.0052 1.0000 0.0047
vn 0.0052 1.0000 0.0047
vn -0.0662 0.9978 0.0100
vn -0.7069 0.7069 0.0236
vn -0.9983 0.0527 0.0244
vn -0.9966 -0.0789 0.0234
vn -0.0151 -0.5586 -0.8293
vn -0.0090 -0.3335 -0.9427
vn -0.3208 -0.3208 -0.8912
vn 0.0273 -0.9996 0.0005
vn 0.9959 -0.0895 0.0149
vn 0.0274 -0.9996 0.0004
vn 0.9986 0.0507 0.0152
vn 0.7070 0.7070 0.0141
vn 0.0666 0.9978 0.0060
vn -0.0015 1.0000 0.0036
vn 0.0015 1.0000 0.0036
vn -0.0666 0.9978 0.0060
vn -0.7070 0.7070 0.0141
vn -0.9986 0.0507 0.0152
vn -0.9959 -0.0895 0.0149
vn -0.0273 -0.9996 0.0005
vn -0.0274 -0.9996 0.0004
vn 0.9960 -0.0897 0.0000
vn 0.0275 -0.9996 -0.0000
vn 0.9987 0.0508 0.0000
vn 0.0669 0.9978 0.0000
vn -0.0669 0.9978 -0.0000
vn -0.9987 0.0508 0.0000
vn -0.9960 -0.0897 0.0000
vn -0.0275 -0.9996 -0.0000
vn 0.9959 -0.0893 -0.0150
vn 0.0274 -0.9996 -0.0004
vn 0.9986 0.0506 -0.0155
vn 0.7070 0.7070 -0.0177
vn 0.0666 0.9977 -0.0110
vn -0.0045 1.0000 -0.0058
vn 0.0000 1.0000 0.0033
vn 0.0045 1.0000 -0.0058
vn -0.0666 0.9977 -0.0110
vn -0.7070 0.7070 -0.0177
vn -0.9986 0.0506 -0.0155
vn -0.9959 -0.0893 -0.0150
vn -0.0274 -0.9996 -0.0004
vn 0.9966 -0.0784 -0.0235
vn 0.0273 -0.9996 -0.0005
vn 0.9983 0.0524 -0.0253
vn 0.7067 0.7067 -0.0353
vn 0.0662 0.9975 -0.0266
vn -0.0148 0.9997 -0.0203
vn 0.0148 0.9997 -0.0203
vn -0.0662 0.9975 -0.0266
vn -0.7067 0.7067 -0.0353
vn -0.9983 0.0524 -0.0253
vn -0.9966 -0.0784 -0.0235
vn -0.0273 -0.9996 -0.0005
vn 0.0090 -0.3335 0.9427
vn 0.3208 -0.3208 0.8912
vn 0.4933 -0.4933 0.7164
vn 0.0151 -0.5586 0.8293
vn 0.9949 0.0922 -0.0421
vn 0.9992 0.0000 -0.0399
vn 0.7062 0.7062 -0.0504
vn 0.0655 0.9971 -0.0379
vn -0.0331 0.9993 -0.0171
vn 0.0000 0.9996 0.0266
vn 0.0331 0.9993 -0.0171
vn -0.0655 0.9971 -0.0379
vn -0.7062 0.7062 -0.0504
vn -0.9949 0.0922 -0.0421
vn -0.9992 0.0000 -0.0399
vn -0.3208 -0.3208 0.8912
vn -0.0090 -0.3335 0.9427
vn -0.0151 -0.5586 0.8293
vn -0.4933 -0.4933 0.7164
vn 0.0327 -0.7909 0.6111
vn 0.9897 0.1420 -0.0189
vn 0.9882 -0.1522 0.0144
vn 0.7070 0.7070 -0.0202
vn 0.0653 0.9978 -0.0152
vn -0.0325 0.9994 -0.0140
vn -0.0000 0.9998 0.0217
vn 0.0325 0.9994 -0.0140
vn -0.0653 0.9978 -0.0152
vn -0.7070 0.7070 -0.0202
vn -0.9897 0.1420 -0.0189
vn -0.9882 -0.1522 0.0144
vn -0.0327 -0.7909 0.6111
vn 0.9591 -0.2615 0.1083
vn 0.9421 -0.3354 0.0000
vn 0.9839 0.1788 0.0026
vn 0.7071 0.7071 0.0104
vn 0.0652 0.9978 0.0147
vn -0.0475 0.9986 0.0218
vn -0.0000 0.9988 0.0490
vn 0.0475 0.9986 0.0218
vn -0.0652 0.9978 0.0147
vn -0.7071 0.7071 0.0104
vn -0.9839 0.1788 0.0026
vn -0.9421 -0.3354 0.0000
vn -0.9591 -0.2615 0.1083
vn 0.9574 -0.2666 -0.1107
vn 0.9893 0.1447 0.0210
vn 0.9877 -0.1559 -0.0152
vn -0.0541 0.9980 0.0330
vn 0.0000 0.9989 0.0466
vn 0.0541 0.9980 0.0330
vn -0.9893 0.1447 0.0210
vn -0.9877 -0.1559 -0.0152
vn -0.9574 -0.2666 -0.1107
vn 0.9947 0.0937 0.0422
vn 0.0655 0.9971 0.0379
vn -0.0684 0.9969 0.0399
vn 0.0000 0.9987 0.0517
vn 0.0684 0.9969 0.0399
vn -0.0655 0.9971 0.0379
vn -0.9947 0.0937 0.0422
vn 0.9952 0.0553 0.0808
vn 0.9938 -0.0754 0.0816
vn 0.7025 0.7025 0.1142
vn 0.0663 0.9936 0.0918
vn -0.0562 0.9951 0.0819
vn -0.0000 0.9974 0.0725
vn 0.0562 0.9951 0.0819
vn -0.0663 0.9936 0.0918
vn -0.7025 0.7025 0.1142
vn -0.9952 0.0553 0.0808
vn -0.9938 -0.0754 0.0816
vn 0.0275 -0.9973 0.0688
vn 0.9828 -0.0973 0.1571
vn 0.0276 -0.9868 0.1597
vn 0.9873 0.0540 0.1497
vn 0.6922 0.6922 0.2040
vn 0.0657 0.9842 0.1645
vn -0.0580 0.9888 0.1372
vn -0.0000 0.9905 0.1375
vn 0.0580 0.9888 0.1372
vn -0.0657 0.9842 0.1645
vn -0.6922 0.6922 0.2040
vn -0.9873 0.0540 0.1497
vn -0.9828 -0.0973 0.1571
vn -0.0275 -0.9973 0.0688
vn -0.0276 -0.9868 0.1597
vn 0.8858 -0.1022 0.4527
vn 0.0257 -0.8799 0.4744
vn 0.9044 0.0547 0.4232
vn 0.9081 -0.0828 0.4106
vn 0.6649 0.6028 0.4411
vn 0.0601 0.9136 0.4021
vn 0.6082 0.6709 0.4242
vn -0.0435 0.9433 0.3291
vn 0.0000 0.9214 0.3886
vn 0.0435 0.9433 0.3291
vn -0.0601 0.9136 0.4021
vn -0.6082 0.6709 0.4242
vn -0.9044 0.0547 0.4232
vn -0.6649 0.6028 0.4411
vn -0.9081 -0.0828 0.4106
vn -0.0257 -0.8799 0.4744
vn -0.8858 -0.1022 0.4527
vn 0.0742 -0.6088 0.7898
vn 0.6155 -0.2606 0.7438
vn 0.5462 -0.0792 0.8339
vn 0.0183 -0.5881 0.8085
vn 0.5830 0.0409 0.8114
vn 0.6960 0.4005 0.5960
vn 0.3780 0.3780 0.8451
vn 0.4005 0.6960 0.5960
vn 0.0434 0.6806 0.7313
vn -0.0244 0.7275 0.6856
vn 0.0000 0.7682 0.6402
vn 0.0244 0.7275 0.6856
vn -0.0434 0.6806 0.7313
vn -0.4005 0.6960 0.5960
vn -0.3780 0.3780 0.8451
vn -0.6960 0.4005 0.5960
vn -0.5830 0.0409 0.8114
vn -0.5462 -0.0792 0.8339
vn -0.6155 -0.2606 0.7438
vn -0.0742 -0.6088 0.7898
vn -0.0183 -0.5881 0.8085
vn 0.0000 0.0000 -1.0000
vn 0.0000 0.0000 1.0000
vn 0.9734 0.2290 0.0000
vn -0.9734 0.2290 0.0000
vn 0.0000 0.7001 0.7141
vn 0.0000 0.5658 -0.8245
vn 0.0000 -1.0000 0.0000
vn 0.0000 0.9932 0.1164
vn -1.0000 0.0000 0.0000
vn 1.0000 0.0000 0.0000
vn -0.0168 -0.9881 -0.1528
vn 0.0168 -0.9881 -0.1528
vn 0.0054 -0.5547 0.8320
vn -0.0054 -0.5547 0.8320
vn -0.0054 -0.5552 -0.8317
vn 0.0054 -0.5552 -0.8317
vn 0.0054 -0.5552 0.8317
vn -0.0054 -0.5552 0.8317
vn 0.0200 -0.8853 0.4645
vn -0.0200 -0.8853 0.4645
vn 0.9239 -0.3827 0.0000
vn 0.3827 -0.9239 0.0000
vn -0.3827 -0.9239 0.0000
vn -0.9239 -0.3827 0.0000
vn -0.9239 0.3827 0.0000
vn -0.3827 0.9239 0.0000
vn 0.3827 0.9239 0.0000
vn 0.9239 0.3827 0.0000
vn -0.9923 0.0000 0.1240
vn 0.9923 0.0000 0.1240
vn -0.9864 0.0000 -0.1644
vn 0.9864 0.0000 -0.1644
vn -0.9923 0.0000 -0.1240
vn 0.9923 0.0000 -0.1240
vn -0.9864 0.0000 0.1644
vn 0.9864 0.0000 0.1644
o Body
g Body
usemtl MI_CarBody_Nane
f 1/1/1 2/1/2 3/1/3 4/1/4
f 2/1/2 5/1/5 6/1/6 3/1/7
f 5/1/5 7/1/8 8/1/9 6/1/6
f 7/1/8 9/1/10 10/1/11 8/1/12
f 9/1/10 11/1/13 12/1/14 10/1/11
f 11/1/13 13/1/15 14/1/16
f 11/1/13 14/1/16 12/1/14
f 13/1/15 15/1/17 14/1/16
f 15/1/17 16/1/18 14/1/16
f 15/1/17 17/1/19 18/1/20 16/1/18
f 17/1/19 19/1/21 20/1/22 18/1/20
f 19/1/21 21/1/23 22/1/24 20/1/25
f 21/1/23 23/1/26 24/1/27 22/1/24
f 23/1/26 25/1/28 26/1/29 24/1/30
f 4/1/4 3/1/7 27/1/31 28/1/32
f 3/1/33 6/1/6 29/1/34 27/1/31
f 6/1/6 8/1/35 30/1/36 29/1/34
f 8/1/37 10/1/11 31/1/38 30/1/36
f 10/1/11 12/1/14 32/1/39 31/1/38
f 12/1/14 14/1/16 33/1/40
f 12/1/14 33/1/40 32/1/39
f 14/1/16 16/1/18 33/1/40
f 16/1/18 34/1/41 33/1/40
f 16/1/18 18/1/20 35/1/42 34/1/41
f 18/1/20 20/1/43 36/1/44 35/1/42
f 20/1/45 22/1/24 37/1/46 36/1/44
f 22/1/24 24/1/47 38/1/48 37/1/46
f 24/1/27 26/1/29 39/1/49 38/1/48
f 28/1/50 27/1/31 40/1/51 41/1/52
f 27/1/31 29/1/34 42/1/53 40/1/51
f 29/1/34 30/1/36 43/1/54 42/1/53
f 30/1/36 31/1/38 44/1/55 43/1/54
f 31/1/38 32/1/39 45/1/56 44/1/55
f 32/1/39 33/1/40 46/1/57
f 32/1/39 46/1/57 45/1/56
f 33/1/40 34/1/41 46/1/57
f 34/1/41 47/1/58 46/1/57
f 34/1/41 35/1/42 48/1/59 47/1/58
f 35/1/42 36/1/44 49/1/60 48/1/59
f 36/1/44 37/1/46 50/1/61 49/1/60
f 37/1/46 38/1/48 51/1/62 50/1/61
f 38/1/48 39/1/63 52/1/64 51/1/62
f 41/1/65 40/1/66 53/1/67 54/1/68
f 40/1/51 42/1/53 55/1/69 53/1/70
f 42/1/53 43/1/54 56/1/71 55/1/69
f 43/1/54 44/1/55 57/1/72 56/1/71
f 44/1/55 45/1/56 58/1/73 57/1/72
f 45/1/56 46/1/57 59/1/74 58/1/73
f 46/1/57 47/1/58 60/1/75 59/1/74
f 47/1/58 48/1/59 61/1/76 60/1/75
f 48/1/59 49/1/60 62/1/77 61/1/76
f 49/1/60 50/1/61 63/1/78 62/1/77
f 50/1/61 51/1/62 64/1/79 63/1/78
f 51/1/80 52/1/81 65/1/82 64/1/83
f 54/1/84 53/1/67 66/1/85 67/1/86
f 53/1/70 55/1/69 68/1/87 66/1/88
f 55/1/69 56/1/71 69/1/89 68/1/87
f 56/1/71 57/1/72 70/1/90 69/1/89
f 57/1/72 58/1/73 71/1/91 70/1/90
f 58/1/73 59/1/74 72/1/92 71/1/91
f 59/1/74 60/1/75 73/1/93 72/1/92
f 60/1/75 61/1/76 74/1/94 73/1/93
f 61/1/76 62/1/77 75/1/95 74/1/94
f 62/1/77 63/1/78 76/1/96 75/1/95
f 63/1/78 64/1/79 77/1/97 76/1/96
f 64/1/83 65/1/98 78/1/99 77/1/100
f 67/1/86 66/1/101 79/1/102 80/1/103
f 66/1/88 68/1/87 81/1/104 79/1/102
f 68/1/87 69/1/89 82/1/105 81/1/104
f 69/1/89 70/1/90 83/1/106 82/1/105
f 70/1/90 71/1/91 84/1/107 83/1/106
f 71/1/91 72/1/92 85/1/108 84/1/107
f 72/1/92 73/1/93 86/1/109 85/1/108
f 73/1/93 74/1/94 87/1/110 86/1/109
f 74/1/94 75/1/95 88/1/111 87/1/110
f 75/1/95 76/1/96 89/1/112 88/1/111
f 76/1/96 77/1/97 90/1/113 89/1/112
f 77/1/114 78/1/99 91/1/115 90/1/113
f 80/1/103 79/1/102 92/1/116 93/1/117
f 79/1/102 81/1/104 94/1/118 92/1/119
f 81/1/104 82/1/105 95/1/120 94/1/118
f 82/1/105 83/1/106 96/1/121 95/1/120
f 83/1/106 84/1/107 97/1/122 96/1/121
f 84/1/107 85/1/108 98/1/123 97/1/122
f 85/1/108 86/1/109 99/1/124 98/1/123
f 86/1/109 87/1/110 100/1/125 99/1/124
f 87/1/110 88/1/111 101/1/126 100/1/125
f 88/1/111 89/1/112 102/1/127 101/1/126
f 89/1/112 90/1/113 103/1/128 102/1/127
f 90/1/113 91/1/115 104/1/129 103/1/130
f 93/1/117 92/1/131 105/1/132 106/1/133
f 92/1/119 94/1/118 107/1/134 105/1/135
f 94/1/118 95/1/120 108/1/136 107/1/134
f 95/1/120 96/1/121 109/1/137 108/1/136
f 96/1/121 97/1/122 110/1/138 109/1/137
f 97/1/122 98/1/123 110/1/138
f 98/1/123 111/1/139 110/1/138
f 98/1/123 99/1/124 112/1/140
f 98/1/123 112/1/140 111/1/139
f 99/1/124 100/1/125 113/1/141 112/1/140
f 100/1/125 101/1/126 114/1/142 113/1/141
f 101/1/126 102/1/127 115/1/143 114/1/142
f 102/1/127 103/1/128 116/1/144 115/1/143
f 103/1/145 104/1/129 117/1/146 116/1/147
f 106/1/148 105/1/132 118/1/149 119/1/150
f 105/1/135 107/1/134 120/1/151 118/1/152
f 107/1/134 108/1/136 121/1/153 120/1/151
f 108/1/136 109/1/137 122/1/154 121/1/153
f 109/1/137 110/1/138 123/1/155 122/1/154
f 110/1/138 111/1/139 123/1/155
f 111/1/139 124/1/108 123/1/155
f 111/1/139 112/1/140 125/1/156
f 111/1/139 125/1/156 124/1/108
f 112/1/140 113/1/141 126/1/157 125/1/156
f 113/1/141 114/1/142 127/1/158 126/1/157
f 114/1/142 115/1/143 128/1/159 127/1/158
f 115/1/143 116/1/144 129/1/160 128/1/159
f 116/1/147 117/1/161 130/1/162 129/1/163
f 119/1/164 118/1/152 131/1/165 132/1/166
f 118/1/152 120/1/151 133/1/167 131/1/165
f 120/1/151 121/1/153 134/1/168 133/1/167
f 121/1/153 122/1/154 135/1/169 134/1/168
f 122/1/154 123/1/155 136/1/170 135/1/169
f 123/1/155 124/1/108 136/1/170
f 124/1/108 137/1/108 136/1/170
f 124/1/108 125/1/156 138/1/171
f 124/1/108 138/1/171 137/1/108
f 125/1/156 126/1/157 139/1/172 138/1/171
f 126/1/157 127/1/158 140/1/173 139/1/172
f 127/1/158 128/1/159 141/1/174 140/1/173
f 128/1/159 129/1/160 142/1/175 141/1/174
f 129/1/160 130/1/176 143/1/177 142/1/175
f 132/1/166 131/1/165 144/1/178 145/1/179
f 131/1/165 133/1/167 146/1/180 144/1/178
f 133/1/167 134/1/168 147/1/105 146/1/180
f 134/1/168 135/1/169 148/1/181 147/1/105
f 135/1/169 136/1/170 149/1/108 148/1/181
f 136/1/170 137/1/108 150/1/108 149/1/108
f 137/1/108 138/1/171 151/1/108 150/1/108
f 138/1/171 139/1/172 152/1/182 151/1/108
f 139/1/172 140/1/173 153/1/111 152/1/182
f 140/1/173 141/1/174 154/1/183 153/1/111
f 141/1/174 142/1/175 155/1/184 154/1/183
f 142/1/175 143/1/177 156/1/185 155/1/184
f 145/1/179 144/1/178 157/1/186 158/1/187
f 144/1/178 146/1/180 159/1/188 157/1/186
f 146/1/180 147/1/105 160/1/189 159/1/188
f 147/1/105 148/1/181 161/1/190 160/1/189
f 148/1/181 149/1/108 162/1/191 161/1/190
f 149/1/108 150/1/108 163/1/192 162/1/191
f 150/1/108 151/1/108 164/1/193 163/1/192
f 151/1/108 152/1/182 165/1/194 164/1/193
f 152/1/182 153/1/111 166/1/195 165/1/194
f 153/1/111 154/1/183 167/1/196 166/1/195
f 154/1/183 155/1/184 168/1/197 167/1/196
f 155/1/184 156/1/185 169/1/198 168/1/197
f 158/1/187 157/1/186 170/1/199 171/1/200
f 157/1/186 159/1/188 172/1/201 170/1/199
f 159/1/188 160/1/189 173/1/202 172/1/201
f 160/1/189 161/1/190 174/1/203 173/1/202
f 161/1/190 162/1/191 175/1/204 174/1/203
f 162/1/191 163/1/192 176/1/92
f 162/1/191 176/1/92 175/1/204
f 163/1/192 164/1/193 176/1/92
f 164/1/193 177/1/205 176/1/92
f 164/1/193 165/1/194 178/1/206 177/1/205
f 165/1/194 166/1/195 179/1/207 178/1/206
f 166/1/195 167/1/196 180/1/208 179/1/207
f 167/1/196 168/1/197 181/1/209 180/1/208
f 168/1/197 169/1/198 182/1/210 181/1/209
f 171/1/211 170/1/212 183/1/213 184/1/214
f 170/1/199 172/1/201 185/1/215 183/1/216
f 172/1/201 173/1/202 186/1/217 185/1/215
f 173/1/202 174/1/203 187/1/218 186/1/217
f 174/1/203 175/1/204 188/1/219 187/1/218
f 175/1/204 176/1/92 189/1/220
f 175/1/204 189/1/220 188/1/219
f 176/1/92 177/1/205 189/1/220
f 177/1/205 190/1/221 189/1/220
f 177/1/205 178/1/206 191/1/222 190/1/221
f 178/1/206 179/1/207 192/1/223 191/1/222
f 179/1/207 180/1/208 193/1/224 192/1/223
f 180/1/208 181/1/209 194/1/225 193/1/224
f 181/1/226 182/1/227 195/1/228 194/1/229
f 184/1/230 183/1/213 196/1/85 197/1/86
f 183/1/216 185/1/215 198/1/231 196/1/232
f 185/1/215 186/1/217 199/1/233 198/1/231
f 186/1/217 187/1/218 200/1/234 199/1/233
f 187/1/218 188/1/219 201/1/235 200/1/234
f 188/1/219 189/1/220 202/1/236
f 188/1/219 202/1/236 201/1/235
f 189/1/220 190/1/221 202/1/236
f 190/1/221 203/1/237 202/1/236
f 190/1/221 191/1/222 204/1/238 203/1/237
f 191/1/222 192/1/223 205/1/239 204/1/238
f 192/1/223 193/1/224 206/1/240 205/1/239
f 193/1/224 194/1/225 207/1/241 206/1/240
f 194/1/229 195/1/242 208/1/99 207/1/100
f 197/1/86 196/1/243 209/1/244 210/1/103
f 196/1/232 198/1/231 211/1/245 209/1/244
f 198/1/231 199/1/233 212/1/246 211/1/245
f 199/1/233 200/1/234 213/1/247 212/1/246
f 200/1/234 201/1/235 214/1/248 213/1/247
f 201/1/235 202/1/236 214/1/248
f 202/1/236 215/1/249 214/1/248
f 202/1/236 203/1/237 216/1/250
f 202/1/236 216/1/250 215/1/249
f 203/1/237 204/1/238 217/1/251 216/1/250
f 204/1/238 205/1/239 218/1/252 217/1/251
f 205/1/239 206/1/240 219/1/253 218/1/252
f 206/1/240 207/1/241 220/1/254 219/1/253
f 207/1/255 208/1/99 221/1/115 220/1/254
f 210/1/103 209/1/244 222/1/256 223/1/117
f 209/1/244 211/1/245 224/1/257 222/1/258
f 211/1/245 212/1/246 225/1/120 224/1/257
f 212/1/246 213/1/247 226/1/121 225/1/120
f 213/1/247 214/1/248 227/1/259 226/1/121
f 214/1/248 215/1/249 227/1/259
f 215/1/249 228/1/260 227/1/259
f 215/1/249 216/1/250 229/1/261
f 215/1/249 229/1/261 228/1/260
f 216/1/250 217/1/251 230/1/125 229/1/261
f 217/1/251 218/1/252 231/1/126 230/1/125
f 218/1/252 219/1/253 232/1/262 231/1/126
f 219/1/253 220/1/254 233/1/263 232/1/262
f 220/1/254 221/1/115 234/1/129 233/1/264
f 223/1/117 222/1/131 235/1/132 236/1/133
f 222/1/258 224/1/257 237/1/265 235/1/135
f 224/1/257 225/1/120 238/1/136 237/1/265
f 225/1/120 226/1/121 239/1/266 238/1/136
f 226/1/121 227/1/259 240/1/267 239/1/266
f 227/1/259 228/1/260 240/1/267
f 228/1/260 241/1/268 240/1/267
f 228/1/260 229/1/261 242/1/269
f 228/1/260 242/1/269 241/1/268
f 229/1/261 230/1/125 243/1/270 242/1/269
f 230/1/125 231/1/126 244/1/142 243/1/270
f 231/1/126 232/1/262 245/1/271 244/1/142
f 232/1/262 233/1/263 246/1/144 245/1/271
f 233/1/145 234/1/129 247/1/146 246/1/147
f 236/1/148 235/1/132 248/1/149 249/1/150
f 235/1/135 237/1/265 250/1/272 248/1/273
f 237/1/265 238/1/136 251/1/274 250/1/272
f 238/1/136 239/1/266 252/1/275 251/1/274
f 239/1/266 240/1/267 253/1/276 252/1/275
f 240/1/267 241/1/268 254/1/277 253/1/276
f 241/1/268 242/1/269 255/1/278 254/1/277
f 242/1/269 243/1/270 256/1/279 255/1/278
f 243/1/270 244/1/142 257/1/280 256/1/279
f 244/1/142 245/1/271 258/1/281 257/1/280
f 245/1/271 246/1/144 259/1/282 258/1/281
f 246/1/147 247/1/161 260/1/162 259/1/163
f 249/1/283 248/1/273 261/1/284 262/1/285
f 248/1/273 250/1/272 263/1/286 261/1/284
f 250/1/272 251/1/274 264/1/287 263/1/286
f 251/1/274 252/1/275 265/1/288 264/1/287
f 252/1/275 253/1/276 266/1/289 265/1/288
f 253/1/276 254/1/277 266/1/289
f 254/1/277 267/1/290 266/1/289
f 254/1/277 255/1/278 268/1/291
f 254/1/277 268/1/291 267/1/290
f 255/1/278 256/1/279 269/1/292 268/1/291
f 256/1/279 257/1/280 270/1/293 269/1/292
f 257/1/280 258/1/281 271/1/294 270/1/293
f 258/1/281 259/1/282 272/1/295 271/1/294
f 259/1/282 260/1/296 273/1/297 272/1/295
f 262/1/285 261/1/284 274/1/298 275/1/299
f 261/1/284 263/1/286 276/1/300 274/1/301
f 263/1/286 264/1/287 277/1/302 276/1/300
f 264/1/287 265/1/288 278/1/303 277/1/304
f 265/1/288 266/1/289 279/1/305 278/1/303
f 266/1/289 267/1/290 279/1/305
f 267/1/290 280/1/306 279/1/305
f 267/1/290 268/1/291 281/1/307
f 267/1/290 281/1/307 280/1/306
f 268/1/291 269/1/292 282/1/308 281/1/307
f 269/1/292 270/1/293 283/1/309 282/1/308
f 270/1/293 271/1/294 284/1/310 283/1/311
f 271/1/294 272/1/295 285/1/312 284/1/310
f 272/1/295 273/1/297 286/1/313 285/1/314
f 275/1/315 274/1/316 287/1/317 288/1/318
f 274/1/298 276/1/300 289/1/319 287/1/317
f 276/1/300 277/1/320 290/1/321 289/1/319
f 277/1/322 278/1/303 291/1/323 290/1/321
f 278/1/303 279/1/305 292/1/324 291/1/323
f 279/1/305 280/1/306 292/1/324
f 280/1/306 293/1/325 292/1/324
f 280/1/306 281/1/307 294/1/326
f 280/1/306 294/1/326 293/1/325
f 281/1/307 282/1/308 295/1/327 294/1/326
f 282/1/308 283/1/328 296/1/329 295/1/327
f 283/1/330 284/1/310 297/1/331 296/1/329
f 284/1/310 285/1/314 298/1/332 297/1/331
f 285/1/333 286/1/334 299/1/335 298/1/332
f 1/1/336 25/1/336 23/1/336
f 1/1/336 23/1/336 21/1/336
f 1/1/336 21/1/336 19/1/336
f 1/1/336 19/1/336 17/1/336
f 1/1/336 17/1/336 15/1/336
f 1/1/336 15/1/336 13/1/336
f 1/1/336 13/1/336 11/1/336
f 1/1/336 11/1/336 9/1/336
f 1/1/336 9/1/336 7/1/336
f 1/1/336 7/1/336 5/1/336
f 5/1/336 2/1/336 1/1/336
f 299/1/337 288/1/337 287/1/337
f 299/1/337 287/1/337 289/1/337
f 299/1/337 289/1/337 290/1/337
f 299/1/337 290/1/337 291/1/337
f 299/1/337 291/1/337 292/1/337
f 299/1/337 292/1/337 293/1/337
f 299/1/337 293/1/337 294/1/337
f 299/1/337 294/1/337 295/1/337
f 299/1/337 295/1/337 296/1/337
f 299/1/337 296/1/337 297/1/337
f 297/1/337 298/1/337 299/1/337
f 300/1/108 301/1/108 302/1/108 303/1/108
f 304/1/105 305/1/105 300/1/105 303/1/105
f 306/1/111 302/1/111 301/1/111 307/1/111
f 308/1/338 309/1/338 305/1/338 304/1/338
f 310/1/339 306/1/339 307/1/339 311/1/339
f 308/1/340 304/1/340 303/1/340 302/1/340 306/1/340 310/1/340
f 309/1/341 311/1/341 307/1/341 301/1/341 300/1/341 305/1/341
f 312/1/342 313/1/342 314/1/342 315/1/342
f 313/1/336 316/1/336 317/1/336 314/1/336
f 316/1/343 312/1/343 315/1/343 317/1/343
f 316/1/344 313/1/344 312/1/344
f 315/1/345 314/1/345 317/1/345
f 318/1/342 319/1/342 320/1/342 321/1/342
f 319/1/336 322/1/336 323/1/336 320/1/336
f 322/1/343 318/1/343 321/1/343 323/1/343
f 322/1/344 319/1/344 318/1/344
f 321/1/345 320/1/345 323/1/345
usemtl MI_Palette
f 25/2/28 1/2/1 4/2/4 26/2/29
f 26/2/29 4/2/4 28/2/50 39/2/63
f 39/2/346 28/2/347 41/2/52 52/2/64
f 52/2/81 41/2/65 54/2/348 65/2/349
f 65/2/82 54/2/68 67/2/86 78/2/99
f 78/2/99 67/2/86 80/2/103 91/2/115
f 91/2/115 80/2/103 93/2/117 104/2/129
f 104/2/129 93/2/117 106/2/148 117/2/161
f 117/2/350 106/2/351 119/2/150 130/2/162
f 130/2/176 119/2/164 132/2/166 143/2/177
f 143/2/177 132/2/166 145/2/179 156/2/185
f 156/2/185 145/2/179 158/2/187 169/2/198
f 169/2/198 158/2/187 171/2/200 182/2/210
f 182/2/227 171/2/211 184/2/352 195/2/353
f 195/2/228 184/2/214 197/2/86 208/2/99
f 208/2/99 197/2/86 210/2/103 221/2/115
f 221/2/115 210/2/103 223/2/117 234/2/129
f 234/2/129 223/2/117 236/2/148 247/2/161
f 247/2/350 236/2/351 249/2/150 260/2/162
f 260/2/296 249/2/283 262/2/285 273/2/297
f 273/2/297 262/2/285 275/2/354 286/2/355
f 286/2/313 275/2/299 288/2/318 299/2/335
f 324/3/336 325/3/336 326/3/336 327/3/336
f 328/3/336 329/3/336 330/3/336 331/3/336
f 332/2/337 333/2/337 334/2/337 335/2/337
f 336/4/356 337/4/357 338/4/357 339/4/356
f 337/4/357 340/4/358 341/4/358 338/4/357
f 340/4/358 342/4/359 343/4/359 341/4/358
f 342/4/359 344/4/360 345/4/360 343/4/359
f 344/4/360 346/4/361 347/4/361 345/4/360
f 346/4/361 348/4/362 349/4/362 347/4/361
f 348/4/362 350/4/363 351/4/363 349/4/362
f 350/4/363 336/4/356 339/4/356 351/4/363
f 350/4/337 348/4/337 346/4/337 344/4/337 342/4/337 340/4/337 337/4/337 336/4/337
f 352/4/356 353/4/357 354/4/357 355/4/356
f 353/4/357 356/4/358 357/4/358 354/4/357
f 356/4/358 358/4/359 359/4/359 357/4/358
f 358/4/359 360/4/360 361/4/360 359/4/359
f 360/4/360 362/4/361 363/4/361 361/4/360
f 362/4/361 364/4/362 365/4/362 363/4/361
f 364/4/362 366/4/363 367/4/363 365/4/362
f 366/4/363 352/4/356 355/4/356 367/4/363
f 366/4/337 364/4/337 362/4/337 360/4/337 358/4/337 356/4/337 353/4/337 352/4/337
f 368/2/345 369/2/345 370/2/345 371/2/345 372/2/345 373/2/345 374/2/345
f 375/2/344 376/2/344 377/2/344 378/2/344 379/2/344 380/2/344 381/2/344
f 382/2/345 383/2/345 384/2/345 385/2/345 386/2/345 387/2/345 388/2/345
f 389/2/344 390/2/344 391/2/344 392/2/344 393/2/344 394/2/344 395/2/344
usemtl MI_Palette_Chrome
f 396/5/364 397/5/364 398/5/364 399/5/364
f 397/5/337 400/5/337 401/5/337 398/5/337
f 400/5/365 402/5/365 403/5/365 401/5/365
f 402/5/336 404/5/336 405/5/336 403/5/336
f 404/5/366 406/5/366 407/5/366 405/5/366
f 406/5/336 408/5/336 409/5/336 407/5/336
f 408/5/367 410/5/367 411/5/367 409/5/367
f 410/5/336 396/5/336 399/5/336 411/5/336
f 396/5/342 410/5/342 408/5/342
f 406/5/342 404/5/342 402/5/342
f 406/5/342 402/5/342 400/5/342
f 408/5/342 406/5/342 400/5/342
f 408/5/342 400/5/342 397/5/342
f 408/5/342 397/5/342 396/5/342
f 411/5/108 399/5/108 398/5/108
f 401/5/108 403/5/108 405/5/108
f 401/5/108 405/5/108 407/5/108
f 398/5/108 401/5/108 407/5/108
f 398/5/108 407/5/108 409/5/108
f 398/5/108 409/5/108 411/5/108
f 412/5/368 413/5/368 414/5/368 415/5/368
f 413/5/336 416/5/336 417/5/336 414/5/336
f 416/5/369 418/5/369 419/5/369 417/5/369
f 418/5/337 420/5/337 421/5/337 419/5/337
f 420/5/370 422/5/370 423/5/370 421/5/370
f 422/5/337 424/5/337 425/5/337 423/5/337
f 424/5/371 426/5/371 427/5/371 425/5/371
f 426/5/337 412/5/337 415/5/337 427/5/337
f 427/5/342 415/5/342 414/5/342
f 417/5/342 419/5/342 421/5/342
f 417/5/342 421/5/342 423/5/342
f 414/5/342 417/5/342 423/5/342
f 414/5/342 423/5/342 425/5/342
f 414/5/342 425/5/342 427/5/342
f 412/5/108 426/5/108 424/5/108
f 422/5/108 420/5/108 418/5/108
f 422/5/108 418/5/108 416/5/108
f 424/5/108 422/5/108 416/5/108
f 424/5/108 416/5/108 413/5/108
f 424/5/108 413/5/108 412/5/108
f 428/5/337 429/5/337 430/5/337 431/5/337
usemtl MI_CarGlass
f 432/6/340 433/6/340 434/6/340 435/6/340 436/6/340 437/6/340
f 438/6/341 439/6/341 440/6/341 441/6/341 442/6/341 443/6/341
f 444/6/338 445/6/338 446/6/338 447/6/338
f 448/6/338 449/6/338 450/6/338 451/6/338
f 452/6/339 453/6/339 454/6/339 455/6/339
f 456/6/339 457/6/339 458/6/339 459/6/339
