# Cook No Evil! · sokak modelleri
# CK-06 · Cephe tabelası · PLAK
# Pivot: Arka yüz ortası (Socket_Sign)
# birim m · Y yukarı · ön +Z · üçgen 12
mtllib CNE_Sokak.mtl
v -1.50000 -0.25000 0.00000
v -1.50000 -0.25000 0.06000
v -1.50000 0.25000 0.06000
v -1.50000 0.25000 0.00000
v 1.50000 0.25000 0.00000
v 1.50000 0.25000 0.06000
v 1.50000 -0.25000 0.06000
v 1.50000 -0.25000 0.00000
v -1.45000 -0.20000 0.06150
v 1.45000 -0.20000 0.06150
v 1.45000 0.20000 0.06150
v -1.45000 0.20000 0.06150
vt 0.406250 0.656250
vt 0.046875 0.875000
vt 0.953125 0.875000
vt 0.953125 1.000000
vt 0.046875 1.000000
vn -1.0000 0.0000 0.0000
vn 1.0000 0.0000 0.0000
vn 0.0000 -1.0000 0.0000
vn 0.0000 1.0000 0.0000
vn 0.0000 0.0000 1.0000
o FacadeSign
g FacadeSign
usemtl MI_Palette
f 1/1/1 2/1/1 3/1/1 4/1/1
f 5/1/2 6/1/2 7/1/2 8/1/2
f 1/1/3 8/1/3 7/1/3 2/1/3
f 3/1/4 6/1/4 5/1/4 4/1/4
f 2/1/5 7/1/5 6/1/5 3/1/5
usemtl MI_Ext_Signs
f 9/2/5 10/3/5 11/4/5 12/5/5
