# Cook No Evil! · sokak modelleri
# CK-03 · Dolgu duvar 3 m
# Pivot: Taban, ön duvar yüzü, sol kenar
# birim m · Y yukarı · ön +Z · üçgen 20
mtllib CNE_Sokak.mtl
v 0.00000 0.50000 0.00000
v 3.00000 0.50000 0.00000
v 3.00000 3.75000 0.00000
v 0.00000 3.75000 0.00000
v 0.00000 0.50000 0.05000
v 3.00000 0.50000 0.05000
v 0.00000 0.00000 0.05000
v 3.00000 0.00000 0.05000
v 0.00000 0.00000 0.00000
v 3.00000 0.00000 0.00000
v 0.00000 3.75000 0.20000
v 0.00000 4.00000 0.20000
v 0.00000 4.00000 0.00000
v 3.00000 4.00000 0.00000
v 3.00000 4.00000 0.20000
v 3.00000 3.75000 0.20000
vt 0.500000 0.500000
vn 0.0000 0.0000 1.0000
vn 0.0000 1.0000 0.0000
vn -1.0000 0.0000 0.0000
vn 1.0000 0.0000 0.0000
vn 0.0000 -1.0000 0.0000
o FacadeFill
g FacadeFill
usemtl MI_Arch_Cephe
f 1/1/1 2/1/1 3/1/1 4/1/1
usemtl MI_Arch_Bordur
f 5/1/2 6/1/2 2/1/2 1/1/2
f 7/1/1 8/1/1 6/1/1 5/1/1
f 9/1/3 7/1/3 5/1/3 1/1/3
f 2/1/4 6/1/4 8/1/4 10/1/4
f 4/1/3 11/1/3 12/1/3 13/1/3
f 14/1/4 15/1/4 16/1/4 3/1/4
f 4/1/5 3/1/5 16/1/5 11/1/5
f 12/1/2 15/1/2 14/1/2 13/1/2
f 11/1/1 16/1/1 15/1/1 12/1/1
