# Cook No Evil! · sokak modelleri
# SE-02 · Posta kutusu
# Pivot: Taban ortası, ağız +Z
# birim m · Y yukarı · ön +Z · üçgen 82
mtllib CNE_Sokak.mtl
v -0.21000 0.00000 -0.18500
v -0.21000 0.00000 -0.14500
v -0.21000 0.40000 -0.14500
v -0.21000 0.40000 -0.18500
v -0.17000 0.40000 -0.18500
v -0.17000 0.40000 -0.14500
v -0.17000 0.00000 -0.14500
v -0.17000 0.00000 -0.18500
v -0.21000 0.00000 0.14500
v -0.21000 0.00000 0.18500
v -0.21000 0.40000 0.18500
v -0.21000 0.40000 0.14500
v -0.17000 0.40000 0.14500
v -0.17000 0.40000 0.18500
v -0.17000 0.00000 0.18500
v -0.17000 0.00000 0.14500
v 0.17000 0.00000 -0.18500
v 0.17000 0.00000 -0.14500
v 0.17000 0.40000 -0.14500
v 0.17000 0.40000 -0.18500
v 0.21000 0.40000 -0.18500
v 0.21000 0.40000 -0.14500
v 0.21000 0.00000 -0.14500
v 0.21000 0.00000 -0.18500
v 0.17000 0.00000 0.14500
v 0.17000 0.00000 0.18500
v 0.17000 0.40000 0.18500
v 0.17000 0.40000 0.14500
v 0.21000 0.40000 0.14500
v 0.21000 0.40000 0.18500
v 0.21000 0.00000 0.18500
v 0.21000 0.00000 0.14500
v -0.25000 0.40000 -0.22500
v -0.25000 0.40000 0.22500
v -0.25000 0.85000 0.22500
v -0.25000 0.85000 -0.22500
v 0.25000 0.85000 -0.22500
v 0.25000 0.85000 0.22500
v 0.25000 0.40000 0.22500
v 0.25000 0.40000 -0.22500
v 0.23097 0.94567 -0.22500
v 0.23097 0.94567 0.22500
v 0.17678 1.02678 -0.22500
v 0.17678 1.02678 0.22500
v 0.09567 1.08097 -0.22500
v 0.09567 1.08097 0.22500
v 0.00000 1.10000 -0.22500
v 0.00000 1.10000 0.22500
v -0.09567 1.08097 -0.22500
v -0.09567 1.08097 0.22500
v -0.17678 1.02678 -0.22500
v -0.17678 1.02678 0.22500
v -0.23097 0.94567 -0.22500
v -0.23097 0.94567 0.22500
v -0.16000 0.86000 0.22500
v -0.16000 0.86000 0.24500
v -0.16000 0.94000 0.24500
v -0.16000 0.94000 0.22500
v 0.16000 0.94000 0.22500
v 0.16000 0.94000 0.24500
v 0.16000 0.86000 0.24500
v 0.16000 0.86000 0.22500
vt 0.406250 0.656250
vt 0.593750 0.281250
vt 0.031250 0.656250
vn -1.0000 0.0000 0.0000
vn 1.0000 0.0000 0.0000
vn 0.0000 0.0000 -1.0000
vn 0.0000 0.0000 1.0000
vn 0.0000 -1.0000 0.0000
vn 0.9808 0.1951 0.0000
vn 0.9239 0.3827 0.0000
vn 0.7071 0.7071 0.0000
vn 0.3827 0.9239 0.0000
vn 0.0000 1.0000 0.0000
vn -0.3827 0.9239 0.0000
vn -0.7071 0.7071 0.0000
vn -0.9239 0.3827 0.0000
vn -0.9808 0.1951 0.0000
o Mailbox
g Mailbox
usemtl MI_Palette
f 1/1/1 2/1/1 3/1/1 4/1/1
f 5/1/2 6/1/2 7/1/2 8/1/2
f 4/1/3 5/1/3 8/1/3 1/1/3
f 2/1/4 7/1/4 6/1/4 3/1/4
f 9/1/1 10/1/1 11/1/1 12/1/1
f 13/1/2 14/1/2 15/1/2 16/1/2
f 12/1/3 13/1/3 16/1/3 9/1/3
f 10/1/4 15/1/4 14/1/4 11/1/4
f 17/1/1 18/1/1 19/1/1 20/1/1
f 21/1/2 22/1/2 23/1/2 24/1/2
f 20/1/3 21/1/3 24/1/3 17/1/3
f 18/1/4 23/1/4 22/1/4 19/1/4
f 25/1/1 26/1/1 27/1/1 28/1/1
f 29/1/2 30/1/2 31/1/2 32/1/2
f 28/1/3 29/1/3 32/1/3 25/1/3
f 26/1/4 31/1/4 30/1/4 27/1/4
f 33/2/1 34/2/1 35/2/1 36/2/1
f 37/2/2 38/2/2 39/2/2 40/2/2
f 33/2/5 40/2/5 39/2/5 34/2/5
f 36/2/3 37/2/3 40/2/3 33/2/3
f 34/2/4 39/2/4 38/2/4 35/2/4
f 37/2/6 41/2/7 42/2/7 38/2/6
f 41/2/7 43/2/8 44/2/8 42/2/7
f 43/2/8 45/2/9 46/2/9 44/2/8
f 45/2/9 47/2/10 48/2/10 46/2/9
f 47/2/10 49/2/11 50/2/11 48/2/10
f 49/2/11 51/2/12 52/2/12 50/2/11
f 51/2/12 53/2/13 54/2/13 52/2/12
f 53/2/13 36/2/14 35/2/14 54/2/13
f 36/2/3 53/2/3 51/2/3 49/2/3 47/2/3 45/2/3 43/2/3 41/2/3 37/2/3
f 38/2/4 42/2/4 44/2/4 46/2/4 48/2/4 50/2/4 52/2/4 54/2/4 35/2/4
usemtl MI_Palette_Chrome
f 55/3/1 56/3/1 57/3/1 58/3/1
f 59/3/2 60/3/2 61/3/2 62/3/2
f 55/3/5 62/3/5 61/3/5 56/3/5
f 57/3/10 60/3/10 59/3/10 58/3/10
f 56/3/4 61/3/4 60/3/4 57/3/4
