# Cook No Evil! · sokak modelleri
# SE-05 · Gazete otomatı
# Pivot: Taban ortası
# birim m · Y yukarı · ön +Z · üçgen 64
mtllib CNE_Sokak.mtl
v -0.15000 0.00000 -0.15000
v -0.15000 0.00000 0.15000
v -0.15000 0.02000 0.15000
v -0.15000 0.02000 -0.15000
v 0.15000 0.02000 -0.15000
v 0.15000 0.02000 0.15000
v 0.15000 0.00000 0.15000
v 0.15000 0.00000 -0.15000
v -0.08000 0.02000 -0.08000
v -0.08000 0.02000 0.08000
v -0.08000 0.30000 0.08000
v -0.08000 0.30000 -0.08000
v 0.08000 0.30000 -0.08000
v 0.08000 0.30000 0.08000
v 0.08000 0.02000 0.08000
v 0.08000 0.02000 -0.08000
v -0.22500 0.30000 -0.20000
v -0.22500 0.30000 0.20000
v -0.22500 1.00000 0.20000
v -0.22500 1.00000 -0.20000
v 0.22500 1.00000 -0.20000
v 0.22500 1.00000 0.20000
v 0.22500 0.30000 0.20000
v 0.22500 0.30000 -0.20000
v -0.23500 1.00000 -0.21000
v -0.23500 1.00000 0.21000
v -0.23500 1.03000 0.21000
v -0.23500 1.03000 -0.21000
v 0.23500 1.03000 -0.21000
v 0.23500 1.03000 0.21000
v 0.23500 1.00000 0.21000
v 0.23500 1.00000 -0.21000
v -0.15000 0.62000 0.20150
v 0.15000 0.62000 0.20150
v 0.15000 0.82000 0.20150
v -0.15000 0.82000 0.20150
v 0.10000 0.86000 0.20000
v 0.10000 0.86000 0.21500
v 0.10000 0.92000 0.21500
v 0.10000 0.92000 0.20000
v 0.17000 0.92000 0.20000
v 0.17000 0.92000 0.21500
v 0.17000 0.86000 0.21500
v 0.17000 0.86000 0.20000
v -0.08000 0.52000 0.20000
v -0.08000 0.52000 0.23000
v -0.08000 0.55000 0.23000
v -0.08000 0.55000 0.20000
v 0.08000 0.55000 0.20000
v 0.08000 0.55000 0.23000
v 0.08000 0.52000 0.23000
v 0.08000 0.52000 0.20000
vt 0.406250 0.656250
vt 0.406250 0.593750
vt 0.531250 0.593750
vt 0.031250 0.531250
vt 0.531250 0.656250
vt 0.031250 0.656250
vn -1.0000 0.0000 0.0000
vn 1.0000 0.0000 0.0000
vn 0.0000 1.0000 0.0000
vn 0.0000 0.0000 -1.0000
vn 0.0000 0.0000 1.0000
vn 0.0000 -1.0000 0.0000
o NewsBox
g NewsBox
usemtl MI_Palette
f 1/1/1 2/1/1 3/1/1 4/1/1
f 5/1/2 6/1/2 7/1/2 8/1/2
f 3/1/3 6/1/3 5/1/3 4/1/3
f 4/1/4 5/1/4 8/1/4 1/1/4
f 2/1/5 7/1/5 6/1/5 3/1/5
f 9/1/1 10/1/1 11/1/1 12/1/1
f 13/1/2 14/1/2 15/1/2 16/1/2
f 12/1/4 13/1/4 16/1/4 9/1/4
f 10/1/5 15/1/5 14/1/5 11/1/5
f 17/2/1 18/2/1 19/2/1 20/2/1
f 21/2/2 22/2/2 23/2/2 24/2/2
f 17/2/6 24/2/6 23/2/6 18/2/6
f 19/2/3 22/2/3 21/2/3 20/2/3
f 20/2/4 21/2/4 24/2/4 17/2/4
f 18/2/5 23/2/5 22/2/5 19/2/5
f 25/3/1 26/3/1 27/3/1 28/3/1
f 29/3/2 30/3/2 31/3/2 32/3/2
f 25/3/6 32/3/6 31/3/6 26/3/6
f 27/3/3 30/3/3 29/3/3 28/3/3
f 28/3/4 29/3/4 32/3/4 25/3/4
f 26/3/5 31/3/5 30/3/5 27/3/5
f 33/4/5 34/4/5 35/4/5 36/4/5
f 37/5/1 38/5/1 39/5/1 40/5/1
f 41/5/2 42/5/2 43/5/2 44/5/2
f 37/5/6 44/5/6 43/5/6 38/5/6
f 39/5/3 42/5/3 41/5/3 40/5/3
f 38/5/5 43/5/5 42/5/5 39/5/5
usemtl MI_Palette_Chrome
f 45/6/1 46/6/1 47/6/1 48/6/1
f 49/6/2 50/6/2 51/6/2 52/6/2
f 45/6/6 52/6/6 51/6/6 46/6/6
f 47/6/3 50/6/3 49/6/3 48/6/3
f 46/6/5 51/6/5 50/6/5 47/6/5
