# Cook No Evil! · sokak modelleri
# CK-02 · Dükkân cephesi 8 m · ÇİÇEK vitrinleri
# Pivot: Taban, ön duvar yüzü, sol kenar
# birim m · Y yukarı · ön +Z · üçgen 110
mtllib CNE_Sokak.mtl
v 0.40000 2.80000 0.00000
v 3.40000 2.80000 0.00000
v 3.40000 3.75000 0.00000
v 0.40000 3.75000 0.00000
v 3.40000 0.50000 0.00000
v 3.50000 0.50000 0.00000
v 3.50000 2.30000 0.00000
v 3.40000 2.30000 0.00000
v 3.50000 2.80000 0.00000
v 3.50000 3.75000 0.00000
v 4.50000 2.30000 0.00000
v 4.50000 2.80000 0.00000
v 4.50000 3.75000 0.00000
v 4.50000 0.50000 0.00000
v 4.60000 0.50000 0.00000
v 4.60000 2.30000 0.00000
v 4.60000 2.80000 0.00000
v 4.60000 3.75000 0.00000
v 7.60000 2.80000 0.00000
v 7.60000 3.75000 0.00000
v 0.00000 0.00000 0.00000
v 0.00000 0.00000 0.10000
v 0.00000 3.75000 0.10000
v 0.00000 3.75000 0.00000
v 0.40000 3.75000 0.10000
v 0.40000 0.00000 0.10000
v 0.40000 0.00000 0.05000
v 0.40000 0.00000 0.00000
v 0.40000 0.50000 0.00000
v 7.60000 0.00000 0.00000
v 7.60000 0.00000 0.05000
v 7.60000 0.00000 0.10000
v 7.60000 3.75000 0.10000
v 7.60000 0.50000 0.00000
v 8.00000 3.75000 0.00000
v 8.00000 3.75000 0.10000
v 8.00000 0.00000 0.10000
v 8.00000 0.00000 0.00000
v 0.40000 2.80000 -0.15000
v 0.40000 0.50000 -0.15000
v 3.40000 0.50000 -0.15000
v 3.40000 2.80000 -0.15000
v 4.60000 2.80000 -0.15000
v 4.60000 0.50000 -0.15000
v 7.60000 0.50000 -0.15000
v 7.60000 2.80000 -0.15000
v 3.50000 2.30000 -0.15000
v 3.50000 0.00000 0.00000
v 3.50000 0.00000 -0.15000
v 4.50000 0.00000 -0.15000
v 4.50000 0.00000 0.00000
v 4.50000 2.30000 -0.15000
v 0.40000 0.50000 0.05000
v 3.50000 0.50000 0.05000
v 3.50000 0.00000 0.05000
v 4.50000 0.50000 0.05000
v 7.60000 0.50000 0.05000
v 4.50000 0.00000 0.05000
v 0.00000 3.75000 0.20000
v 0.00000 4.00000 0.20000
v 0.00000 4.00000 0.00000
v 8.00000 4.00000 0.00000
v 8.00000 4.00000 0.20000
v 8.00000 3.75000 0.20000
vt 0.500000 0.500000
vt 0.586957 0.750000
vt 0.913043 0.750000
vt 0.913043 1.000000
vt 0.586957 1.000000
vt 0.586957 0.000000
vt 0.913043 0.000000
vt 0.913043 0.250000
vt 0.586957 0.250000
vn 0.0000 0.0000 1.0000
vn -1.0000 0.0000 0.0000
vn 1.0000 0.0000 0.0000
vn 0.0000 -1.0000 0.0000
vn 0.0000 1.0000 0.0000
o ShopFront
g ShopFront
usemtl MI_Arch_Cephe
f 1/1/1 2/1/1 3/1/1 4/1/1
f 5/1/1 6/1/1 7/1/1 8/1/1
f 8/1/1 7/1/1 9/1/1 2/1/1
f 2/1/1 9/1/1 10/1/1 3/1/1
f 7/1/1 11/1/1 12/1/1 9/1/1
f 9/1/1 12/1/1 13/1/1 10/1/1
f 14/1/1 15/1/1 16/1/1 11/1/1
f 11/1/1 16/1/1 17/1/1 12/1/1
f 12/1/1 17/1/1 18/1/1 13/1/1
f 17/1/1 19/1/1 20/1/1 18/1/1
f 21/1/2 22/1/2 23/1/2 24/1/2
f 4/1/3 25/1/3 26/1/3 27/1/3 28/1/3 29/1/3 1/1/3
f 22/1/1 26/1/1 25/1/1 23/1/1
f 30/1/2 31/1/2 32/1/2 33/1/2 20/1/2 19/1/2 34/1/2
f 35/1/3 36/1/3 37/1/3 38/1/3
f 32/1/1 37/1/1 36/1/1 33/1/1
f 39/1/3 1/1/3 29/1/3 40/1/3
f 41/1/2 5/1/2 8/1/2 2/1/2 42/1/2
f 39/1/4 42/1/4 2/1/4 1/1/4
f 43/1/3 17/1/3 16/1/3 15/1/3 44/1/3
f 45/1/2 34/1/2 19/1/2 46/1/2
f 43/1/4 46/1/4 19/1/4 17/1/4
f 47/1/3 7/1/3 6/1/3 48/1/3 49/1/3
f 50/1/2 51/1/2 14/1/2 11/1/2 52/1/2
f 47/1/4 52/1/4 11/1/4 7/1/4
usemtl MI_Arch_Bordur
f 53/1/5 54/1/5 6/1/5 5/1/5 29/1/5
f 27/1/1 55/1/1 54/1/1 53/1/1
f 28/1/2 27/1/2 53/1/2 29/1/2
f 6/1/3 54/1/3 55/1/3 48/1/3
f 56/1/5 57/1/5 34/1/5 15/1/5 14/1/5
f 58/1/1 31/1/1 57/1/1 56/1/1
f 51/1/2 58/1/2 56/1/2 14/1/2
f 34/1/3 57/1/3 31/1/3 30/1/3
f 24/1/2 23/1/2 59/1/2 60/1/2 61/1/2
f 62/1/3 63/1/3 64/1/3 36/1/3 35/1/3
f 24/1/4 4/1/4 3/1/4 10/1/4 13/1/4 18/1/4 20/1/4 35/1/4 36/1/4 64/1/4 59/1/4 23/1/4
f 60/1/5 63/1/5 62/1/5 61/1/5
f 59/1/1 64/1/1 63/1/1 60/1/1
f 29/1/5 5/1/5 41/1/5 40/1/5
f 15/1/5 34/1/5 45/1/5 44/1/5
f 48/1/5 51/1/5 50/1/5 49/1/5
usemtl MI_Ext_ShopInterior
f 40/2/1 41/3/1 42/4/1 39/5/1
f 44/6/1 45/7/1 46/8/1 43/9/1
usemtl MI_Arch_Kapi
f 49/1/1 50/1/1 52/1/1 47/1/1
