# Cook No Evil! · sokak modelleri
# SE-01 · Sokak lambası
# Pivot: Taban ortası
# birim m · Y yukarı · ön +Z · üçgen 242
mtllib CNE_Sokak.mtl
v 0.13858 0.40000 0.05740
v 0.05740 0.40000 0.13858
v 0.05740 0.00000 0.13858
v 0.13858 0.00000 0.05740
v -0.05740 0.40000 0.13858
v -0.05740 0.00000 0.13858
v -0.13858 0.40000 0.05740
v -0.13858 0.00000 0.05740
v -0.13858 0.40000 -0.05740
v -0.13858 0.00000 -0.05740
v -0.05740 0.40000 -0.13858
v -0.05740 0.00000 -0.13858
v 0.05740 0.40000 -0.13858
v 0.05740 0.00000 -0.13858
v 0.13858 0.40000 -0.05740
v 0.13858 0.00000 -0.05740
v 0.07853 0.48000 0.03253
v 0.03253 0.48000 0.07853
v 0.03827 0.40000 0.09239
v 0.09239 0.40000 0.03827
v -0.03253 0.48000 0.07853
v -0.03827 0.40000 0.09239
v -0.07853 0.48000 0.03253
v -0.09239 0.40000 0.03827
v -0.07853 0.48000 -0.03253
v -0.09239 0.40000 -0.03827
v -0.03253 0.48000 -0.07853
v -0.03827 0.40000 -0.09239
v 0.03253 0.48000 -0.07853
v 0.03827 0.40000 -0.09239
v 0.07853 0.48000 -0.03253
v 0.09239 0.40000 -0.03827
v 0.05543 3.98000 0.02296
v 0.02296 3.98000 0.05543
v 0.02296 0.48000 0.05543
v 0.05543 0.48000 0.02296
v -0.02296 3.98000 0.05543
v -0.02296 0.48000 0.05543
v -0.05543 3.98000 0.02296
v -0.05543 0.48000 0.02296
v -0.05543 3.98000 -0.02296
v -0.05543 0.48000 -0.02296
v -0.02296 3.98000 -0.05543
v -0.02296 0.48000 -0.05543
v 0.02296 3.98000 -0.05543
v 0.02296 0.48000 -0.05543
v 0.05543 3.98000 -0.02296
v 0.05543 0.48000 -0.02296
v 0.09239 4.03000 0.03827
v 0.03827 4.03000 0.09239
v 0.02679 3.96000 0.06467
v 0.06467 3.96000 0.02679
v -0.03827 4.03000 0.09239
v -0.02679 3.96000 0.06467
v -0.09239 4.03000 0.03827
v -0.06467 3.96000 0.02679
v -0.09239 4.03000 -0.03827
v -0.06467 3.96000 -0.02679
v -0.03827 4.03000 -0.09239
v -0.02679 3.96000 -0.06467
v 0.03827 4.03000 -0.09239
v 0.02679 3.96000 -0.06467
v 0.09239 4.03000 -0.03827
v 0.06467 3.96000 -0.02679
v 0.00000 4.38000 0.00000
v 0.06318 4.36217 0.04591
v 0.07810 4.36217 0.00000
v 0.02413 4.36217 0.07428
v -0.02413 4.36217 0.07428
v -0.06318 4.36217 0.04591
v -0.07810 4.36217 0.00000
v -0.06318 4.36217 -0.04591
v -0.02413 4.36217 -0.07428
v 0.02413 4.36217 -0.07428
v 0.06318 4.36217 -0.04591
v 0.11385 4.31223 0.08272
v 0.14073 4.31223 0.00000
v 0.04349 4.31223 0.13384
v -0.04349 4.31223 0.13384
v -0.11385 4.31223 0.08272
v -0.14073 4.31223 0.00000
v -0.11385 4.31223 -0.08272
v -0.04349 4.31223 -0.13384
v 0.04349 4.31223 -0.13384
v 0.11385 4.31223 -0.08272
v 0.14197 4.24005 0.10315
v 0.17549 4.24005 0.00000
v 0.05423 4.24005 0.16690
v -0.05423 4.24005 0.16690
v -0.14197 4.24005 0.10315
v -0.17549 4.24005 0.00000
v -0.14197 4.24005 -0.10315
v -0.05423 4.24005 -0.16690
v 0.05423 4.24005 -0.16690
v 0.14197 4.24005 -0.10315
v 0.14197 4.15995 0.10315
v 0.17549 4.15995 0.00000
v 0.05423 4.15995 0.16690
v -0.05423 4.15995 0.16690
v -0.14197 4.15995 0.10315
v -0.17549 4.15995 0.00000
v -0.14197 4.15995 -0.10315
v -0.05423 4.15995 -0.16690
v 0.05423 4.15995 -0.16690
v 0.14197 4.15995 -0.10315
v 0.11385 4.08777 0.08272
v 0.14073 4.08777 0.00000
v 0.04349 4.08777 0.13384
v -0.04349 4.08777 0.13384
v -0.11385 4.08777 0.08272
v -0.14073 4.08777 0.00000
v -0.11385 4.08777 -0.08272
v -0.04349 4.08777 -0.13384
v 0.04349 4.08777 -0.13384
v 0.11385 4.08777 -0.08272
v 0.06318 4.03783 0.04591
v 0.07810 4.03783 0.00000
v 0.02413 4.03783 0.07428
v -0.02413 4.03783 0.07428
v -0.06318 4.03783 0.04591
v -0.07810 4.03783 0.00000
v -0.06318 4.03783 -0.04591
v -0.02413 4.03783 -0.07428
v 0.02413 4.03783 -0.07428
v 0.06318 4.03783 -0.04591
v 0.00000 4.02000 0.00000
v 0.11087 4.43000 0.04592
v 0.04592 4.43000 0.11087
v 0.07654 4.35000 0.18478
v 0.18478 4.35000 0.07654
v -0.04592 4.43000 0.11087
v -0.07654 4.35000 0.18478
v -0.11087 4.43000 0.04592
v -0.18478 4.35000 0.07654
v -0.11087 4.43000 -0.04592
v -0.18478 4.35000 -0.07654
v -0.04592 4.43000 -0.11087
v -0.07654 4.35000 -0.18478
v 0.04592 4.43000 -0.11087
v 0.07654 4.35000 -0.18478
v 0.11087 4.43000 -0.04592
v 0.18478 4.35000 -0.07654
v 0.00000 4.50000 0.00000
v 0.00000 4.43000 0.03000
v 0.02598 4.43000 0.01500
v -0.02598 4.43000 0.01500
v -0.02598 4.43000 -0.01500
v -0.00000 4.43000 -0.03000
v 0.02598 4.43000 -0.01500
vt 0.406250 0.656250
vt 0.468750 0.656250
vt 0.031250 0.531250
vn 0.9239 0.0000 0.3827
vn 0.3827 0.0000 0.9239
vn -0.3827 0.0000 0.9239
vn -0.9239 0.0000 0.3827
vn -0.9239 0.0000 -0.3827
vn -0.3827 0.0000 -0.9239
vn 0.3827 0.0000 -0.9239
vn 0.9239 0.0000 -0.3827
vn 0.0000 1.0000 0.0000
vn 0.9081 0.1843 0.3761
vn 0.3761 0.1843 0.9081
vn -0.3761 0.1843 0.9081
vn -0.9081 0.1843 0.3761
vn -0.9081 0.1843 -0.3761
vn -0.3761 0.1843 -0.9081
vn 0.3761 0.1843 -0.9081
vn 0.9081 0.1843 -0.3761
vn 0.8492 -0.3939 0.3517
vn 0.3517 -0.3939 0.8492
vn -0.3517 -0.3939 0.8492
vn -0.8492 -0.3939 0.3517
vn -0.8492 -0.3939 -0.3517
vn -0.3517 -0.3939 -0.8492
vn 0.3517 -0.3939 -0.8492
vn 0.8492 -0.3939 -0.3517
vn 0.0000 -1.0000 0.0000
vn 0.4274 0.8491 0.3105
vn 0.5283 0.8491 0.0000
vn 0.1632 0.8491 0.5024
vn -0.1632 0.8491 0.5024
vn -0.4274 0.8491 0.3105
vn -0.5283 0.8491 0.0000
vn -0.4274 0.8491 -0.3105
vn -0.1632 0.8491 -0.5024
vn 0.1632 0.8491 -0.5024
vn 0.4274 0.8491 -0.3105
vn 0.6529 0.5905 0.4744
vn 0.8070 0.5905 -0.0000
vn 0.2494 0.5905 0.7675
vn -0.2494 0.5905 0.7675
vn -0.6529 0.5905 0.4744
vn -0.8070 0.5905 0.0000
vn -0.6529 0.5905 -0.4744
vn -0.2494 0.5905 -0.7675
vn 0.2494 0.5905 -0.7675
vn 0.6529 0.5905 -0.4744
vn 0.7908 0.2109 0.5746
vn 0.9775 0.2109 -0.0000
vn 0.3021 0.2109 0.9297
vn -0.3021 0.2109 0.9297
vn -0.7908 0.2109 0.5746
vn -0.9775 0.2109 0.0000
vn -0.7908 0.2109 -0.5746
vn -0.3021 0.2109 -0.9297
vn 0.3021 0.2109 -0.9297
vn 0.7908 0.2109 -0.5746
vn 0.7908 -0.2109 0.5746
vn 0.9775 -0.2109 0.0000
vn 0.3021 -0.2109 0.9297
vn -0.3021 -0.2109 0.9297
vn -0.7908 -0.2109 0.5746
vn -0.9775 -0.2109 0.0000
vn -0.7908 -0.2109 -0.5746
vn -0.3021 -0.2109 -0.9297
vn 0.3021 -0.2109 -0.9297
vn 0.7908 -0.2109 -0.5746
vn 0.6529 -0.5905 0.4744
vn 0.8070 -0.5905 0.0000
vn 0.2494 -0.5905 0.7675
vn -0.2494 -0.5905 0.7675
vn -0.6529 -0.5905 0.4744
vn -0.8070 -0.5905 0.0000
vn -0.6529 -0.5905 -0.4744
vn -0.2494 -0.5905 -0.7675
vn 0.2494 -0.5905 -0.7675
vn 0.6529 -0.5905 -0.4744
vn 0.4274 -0.8491 0.3105
vn 0.5283 -0.8491 0.0000
vn 0.1632 -0.8491 0.5024
vn -0.1632 -0.8491 0.5024
vn -0.4274 -0.8491 0.3105
vn -0.5283 -0.8491 0.0000
vn -0.4274 -0.8491 -0.3105
vn -0.1632 -0.8491 -0.5024
vn 0.1632 -0.8491 -0.5024
vn 0.4274 -0.8491 -0.3105
vn 0.6533 0.7071 0.2706
vn 0.2706 0.7071 0.6533
vn -0.2706 0.7071 0.6533
vn -0.6533 0.7071 0.2706
vn -0.6533 0.7071 -0.2706
vn -0.2706 0.7071 -0.6533
vn 0.2706 0.7071 -0.6533
vn 0.6533 0.7071 -0.2706
vn 0.4369 0.4864 0.7567
vn 0.0000 0.3939 0.9191
vn 0.7960 0.3939 0.4596
vn -0.4369 0.4864 0.7567
vn -0.7960 0.3939 0.4596
vn -0.8737 0.4864 -0.0000
vn -0.7960 0.3939 -0.4596
vn -0.4369 0.4864 -0.7567
vn 0.0000 0.3939 -0.9191
vn 0.4369 0.4864 -0.7567
vn 0.7960 0.3939 -0.4596
vn 0.8737 0.4864 0.0000
o StreetLamp
g StreetLamp
usemtl MI_Palette
f 1/1/1 2/1/2 3/1/2 4/1/1
f 2/1/2 5/1/3 6/1/3 3/1/2
f 5/1/3 7/1/4 8/1/4 6/1/3
f 7/1/4 9/1/5 10/1/5 8/1/4
f 9/1/5 11/1/6 12/1/6 10/1/5
f 11/1/6 13/1/7 14/1/7 12/1/6
f 13/1/7 15/1/8 16/1/8 14/1/7
f 15/1/8 1/1/1 4/1/1 16/1/8
f 15/1/9 13/1/9 11/1/9 9/1/9 7/1/9 5/1/9 2/1/9 1/1/9
f 17/2/10 18/2/11 19/2/11 20/2/10
f 18/2/11 21/2/12 22/2/12 19/2/11
f 21/2/12 23/2/13 24/2/13 22/2/12
f 23/2/13 25/2/14 26/2/14 24/2/13
f 25/2/14 27/2/15 28/2/15 26/2/14
f 27/2/15 29/2/16 30/2/16 28/2/15
f 29/2/16 31/2/17 32/2/17 30/2/16
f 31/2/17 17/2/10 20/2/10 32/2/17
f 31/2/9 29/2/9 27/2/9 25/2/9 23/2/9 21/2/9 18/2/9 17/2/9
f 33/1/1 34/1/2 35/1/2 36/1/1
f 34/1/2 37/1/3 38/1/3 35/1/2
f 37/1/3 39/1/4 40/1/4 38/1/3
f 39/1/4 41/1/5 42/1/5 40/1/4
f 41/1/5 43/1/6 44/1/6 42/1/5
f 43/1/6 45/1/7 46/1/7 44/1/6
f 45/1/7 47/1/8 48/1/8 46/1/7
f 47/1/8 33/1/1 36/1/1 48/1/8
f 49/2/18 50/2/19 51/2/19 52/2/18
f 50/2/19 53/2/20 54/2/20 51/2/19
f 53/2/20 55/2/21 56/2/21 54/2/20
f 55/2/21 57/2/22 58/2/22 56/2/21
f 57/2/22 59/2/23 60/2/23 58/2/22
f 59/2/23 61/2/24 62/2/24 60/2/23
f 61/2/24 63/2/25 64/2/25 62/2/24
f 63/2/25 49/2/18 52/2/18 64/2/25
f 63/2/9 61/2/9 59/2/9 57/2/9 55/2/9 53/2/9 50/2/9 49/2/9
f 52/2/26 51/2/26 54/2/26 56/2/26 58/2/26 60/2/26 62/2/26 64/2/26
f 65/3/9 66/3/27 67/3/28
f 65/3/9 68/3/29 66/3/27
f 65/3/9 69/3/30 68/3/29
f 65/3/9 70/3/31 69/3/30
f 65/3/9 71/3/32 70/3/31
f 65/3/9 72/3/33 71/3/32
f 65/3/9 73/3/34 72/3/33
f 65/3/9 74/3/35 73/3/34
f 65/3/9 75/3/36 74/3/35
f 65/3/9 67/3/28 75/3/36
f 67/3/28 66/3/27 76/3/37 77/3/38
f 66/3/27 68/3/29 78/3/39 76/3/37
f 68/3/29 69/3/30 79/3/40 78/3/39
f 69/3/30 70/3/31 80/3/41 79/3/40
f 70/3/31 71/3/32 81/3/42 80/3/41
f 71/3/32 72/3/33 82/3/43 81/3/42
f 72/3/33 73/3/34 83/3/44 82/3/43
f 73/3/34 74/3/35 84/3/45 83/3/44
f 74/3/35 75/3/36 85/3/46 84/3/45
f 75/3/36 67/3/28 77/3/38 85/3/46
f 77/3/38 76/3/37 86/3/47 87/3/48
f 76/3/37 78/3/39 88/3/49 86/3/47
f 78/3/39 79/3/40 89/3/50 88/3/49
f 79/3/40 80/3/41 90/3/51 89/3/50
f 80/3/41 81/3/42 91/3/52 90/3/51
f 81/3/42 82/3/43 92/3/53 91/3/52
f 82/3/43 83/3/44 93/3/54 92/3/53
f 83/3/44 84/3/45 94/3/55 93/3/54
f 84/3/45 85/3/46 95/3/56 94/3/55
f 85/3/46 77/3/38 87/3/48 95/3/56
f 87/3/48 86/3/47 96/3/57 97/3/58
f 86/3/47 88/3/49 98/3/59 96/3/57
f 88/3/49 89/3/50 99/3/60 98/3/59
f 89/3/50 90/3/51 100/3/61 99/3/60
f 90/3/51 91/3/52 101/3/62 100/3/61
f 91/3/52 92/3/53 102/3/63 101/3/62
f 92/3/53 93/3/54 103/3/64 102/3/63
f 93/3/54 94/3/55 104/3/65 103/3/64
f 94/3/55 95/3/56 105/3/66 104/3/65
f 95/3/56 87/3/48 97/3/58 105/3/66
f 97/3/58 96/3/57 106/3/67 107/3/68
f 96/3/57 98/3/59 108/3/69 106/3/67
f 98/3/59 99/3/60 109/3/70 108/3/69
f 99/3/60 100/3/61 110/3/71 109/3/70
f 100/3/61 101/3/62 111/3/72 110/3/71
f 101/3/62 102/3/63 112/3/73 111/3/72
f 102/3/63 103/3/64 113/3/74 112/3/73
f 103/3/64 104/3/65 114/3/75 113/3/74
f 104/3/65 105/3/66 115/3/76 114/3/75
f 105/3/66 97/3/58 107/3/68 115/3/76
f 107/3/68 106/3/67 116/3/77 117/3/78
f 106/3/67 108/3/69 118/3/79 116/3/77
f 108/3/69 109/3/70 119/3/80 118/3/79
f 109/3/70 110/3/71 120/3/81 119/3/80
f 110/3/71 111/3/72 121/3/82 120/3/81
f 111/3/72 112/3/73 122/3/83 121/3/82
f 112/3/73 113/3/74 123/3/84 122/3/83
f 113/3/74 114/3/75 124/3/85 123/3/84
f 114/3/75 115/3/76 125/3/86 124/3/85
f 115/3/76 107/3/68 117/3/78 125/3/86
f 117/3/78 116/3/77 126/3/26
f 116/3/77 118/3/79 126/3/26
f 118/3/79 119/3/80 126/3/26
f 119/3/80 120/3/81 126/3/26
f 120/3/81 121/3/82 126/3/26
f 121/3/82 122/3/83 126/3/26
f 122/3/83 123/3/84 126/3/26
f 123/3/84 124/3/85 126/3/26
f 124/3/85 125/3/86 126/3/26
f 125/3/86 117/3/78 126/3/26
f 127/1/87 128/1/88 129/1/88 130/1/87
f 128/1/88 131/1/89 132/1/89 129/1/88
f 131/1/89 133/1/90 134/1/90 132/1/89
f 133/1/90 135/1/91 136/1/91 134/1/90
f 135/1/91 137/1/92 138/1/92 136/1/91
f 137/1/92 139/1/93 140/1/93 138/1/92
f 139/1/93 141/1/94 142/1/94 140/1/93
f 141/1/94 127/1/87 130/1/87 142/1/94
f 141/1/9 139/1/9 137/1/9 135/1/9 133/1/9 131/1/9 128/1/9 127/1/9
f 130/1/26 129/1/26 132/1/26 134/1/26 136/1/26 138/1/26 140/1/26 142/1/26
f 143/1/95 144/1/96 145/1/97
f 143/1/98 146/1/99 144/1/96
f 143/1/100 147/1/101 146/1/99
f 143/1/102 148/1/103 147/1/101
f 143/1/104 149/1/105 148/1/103
f 143/1/106 145/1/97 149/1/105
