# Cook No Evil! · sokak modelleri
# CK-01 · Dükkân cephesi 6 m · RADYO vitrini
# Pivot: Taban, ön duvar yüzü, sol kenar
# birim m · Y yukarı · ön +Z · üçgen 96
mtllib CNE_Sokak.mtl
v 0.40000 2.80000 0.00000
v 4.20000 2.80000 0.00000
v 4.20000 3.75000 0.00000
v 0.40000 3.75000 0.00000
v 4.20000 0.50000 0.00000
v 4.40000 0.50000 0.00000
v 4.40000 2.30000 0.00000
v 4.20000 2.30000 0.00000
v 4.40000 2.80000 0.00000
v 4.40000 3.75000 0.00000
v 5.40000 2.30000 0.00000
v 5.40000 2.80000 0.00000
v 5.40000 3.75000 0.00000
v 5.40000 0.50000 0.00000
v 5.60000 0.50000 0.00000
v 5.60000 2.30000 0.00000
v 5.60000 2.80000 0.00000
v 5.60000 3.75000 0.00000
v 0.00000 0.00000 0.00000
v 0.00000 0.00000 0.10000
v 0.00000 3.75000 0.10000
v 0.00000 3.75000 0.00000
v 0.40000 3.75000 0.10000
v 0.40000 0.00000 0.10000
v 0.40000 0.00000 0.05000
v 0.40000 0.00000 0.00000
v 0.40000 0.50000 0.00000
v 5.60000 0.00000 0.00000
v 5.60000 0.00000 0.05000
v 5.60000 0.00000 0.10000
v 5.60000 3.75000 0.10000
v 6.00000 3.75000 0.00000
v 6.00000 3.75000 0.10000
v 6.00000 0.00000 0.10000
v 6.00000 0.00000 0.00000
v 0.40000 2.80000 -0.15000
v 0.40000 0.50000 -0.15000
v 4.20000 0.50000 -0.15000
v 4.20000 2.80000 -0.15000
v 4.40000 2.30000 -0.15000
v 4.40000 0.00000 0.00000
v 4.40000 0.00000 -0.15000
v 5.40000 0.00000 -0.15000
v 5.40000 0.00000 0.00000
v 5.40000 2.30000 -0.15000
v 0.40000 0.50000 0.05000
v 4.40000 0.50000 0.05000
v 4.40000 0.00000 0.05000
v 5.40000 0.50000 0.05000
v 5.60000 0.50000 0.05000
v 5.40000 0.00000 0.05000
v 0.00000 3.75000 0.20000
v 0.00000 4.00000 0.20000
v 0.00000 4.00000 0.00000
v 6.00000 4.00000 0.00000
v 6.00000 4.00000 0.20000
v 6.00000 3.75000 0.20000
vt 0.500000 0.500000
vt 0.043478 0.250000
vt 0.456522 0.250000
vt 0.456522 0.500000
vt 0.043478 0.500000
vn 0.0000 0.0000 1.0000
vn -1.0000 0.0000 0.0000
vn 1.0000 0.0000 0.0000
vn 0.0000 -1.0000 0.0000
vn 0.0000 1.0000 0.0000
o ShopFront
g ShopFront
usemtl MI_Arch_Cephe
f 1/1/1 2/1/1 3/1/1 4/1/1
f 5/1/1 6/1/1 7/1/1 8/1/1
f 8/1/1 7/1/1 9/1/1 2/1/1
f 2/1/1 9/1/1 10/1/1 3/1/1
f 7/1/1 11/1/1 12/1/1 9/1/1
f 9/1/1 12/1/1 13/1/1 10/1/1
f 14/1/1 15/1/1 16/1/1 11/1/1
f 11/1/1 16/1/1 17/1/1 12/1/1
f 12/1/1 17/1/1 18/1/1 13/1/1
f 19/1/2 20/1/2 21/1/2 22/1/2
f 4/1/3 23/1/3 24/1/3 25/1/3 26/1/3 27/1/3 1/1/3
f 20/1/1 24/1/1 23/1/1 21/1/1
f 28/1/2 29/1/2 30/1/2 31/1/2 18/1/2 17/1/2 16/1/2 15/1/2
f 32/1/3 33/1/3 34/1/3 35/1/3
f 30/1/1 34/1/1 33/1/1 31/1/1
f 36/1/3 1/1/3 27/1/3 37/1/3
f 38/1/2 5/1/2 8/1/2 2/1/2 39/1/2
f 36/1/4 39/1/4 2/1/4 1/1/4
f 40/1/3 7/1/3 6/1/3 41/1/3 42/1/3
f 43/1/2 44/1/2 14/1/2 11/1/2 45/1/2
f 40/1/4 45/1/4 11/1/4 7/1/4
usemtl MI_Arch_Bordur
f 46/1/5 47/1/5 6/1/5 5/1/5 27/1/5
f 25/1/1 48/1/1 47/1/1 46/1/1
f 26/1/2 25/1/2 46/1/2 27/1/2
f 6/1/3 47/1/3 48/1/3 41/1/3
f 49/1/5 50/1/5 15/1/5 14/1/5
f 51/1/1 29/1/1 50/1/1 49/1/1
f 44/1/2 51/1/2 49/1/2 14/1/2
f 15/1/3 50/1/3 29/1/3 28/1/3
f 22/1/2 21/1/2 52/1/2 53/1/2 54/1/2
f 55/1/3 56/1/3 57/1/3 33/1/3 32/1/3
f 22/1/4 4/1/4 3/1/4 10/1/4 13/1/4 18/1/4 32/1/4 33/1/4 57/1/4 52/1/4 21/1/4
f 53/1/5 56/1/5 55/1/5 54/1/5
f 52/1/1 57/1/1 56/1/1 53/1/1
f 27/1/5 5/1/5 38/1/5 37/1/5
f 41/1/5 44/1/5 43/1/5 42/1/5
usemtl MI_Ext_ShopInterior
f 37/2/1 38/3/1 39/4/1 36/5/1
usemtl MI_Arch_Kapi
f 42/1/1 43/1/1 45/1/1 40/1/1
