# Cook No Evil! · sokak modelleri
# SE-06 · Ağaç B (küçük)
# Pivot: Taban ortası
# birim m · Y yukarı · ön +Z · üçgen 376
mtllib CNE_Sokak.mtl
v 0.07391 2.90000 0.03061
v 0.03061 2.90000 0.07391
v 0.04592 0.00000 0.11087
v 0.11087 0.00000 0.04592
v -0.03061 2.90000 0.07391
v -0.04592 0.00000 0.11087
v -0.07391 2.90000 0.03061
v -0.11087 0.00000 0.04592
v -0.07391 2.90000 -0.03061
v -0.11087 0.00000 -0.04592
v -0.03061 2.90000 -0.07391
v -0.04592 0.00000 -0.11087
v 0.03061 2.90000 -0.07391
v 0.04592 0.00000 -0.11087
v 0.07391 2.90000 -0.03061
v 0.11087 0.00000 -0.04592
v 0.00000 4.45880 0.00000
v 0.36773 4.31835 0.26717
v 0.47390 4.35534 0.00000
v 0.13980 4.31429 0.43027
v -0.14485 4.34548 0.44580
v -0.38641 4.36247 0.28075
v -0.44964 4.30900 0.00000
v -0.38585 4.36115 -0.28034
v -0.14682 4.35768 -0.45187
v 0.13624 4.29228 -0.41932
v 0.37258 4.32981 -0.27070
v 0.83774 4.06463 0.00000
v 0.69355 4.07896 0.50389
v 0.25788 4.06227 0.79368
v -0.24438 4.03021 0.75212
v -0.66400 4.05216 0.48242
v -0.82040 4.05191 0.00000
v -0.66416 4.05230 -0.48254
v -0.26531 4.07991 -0.81655
v 0.24987 4.04325 -0.76903
v 0.64580 4.03565 -0.46920
v 0.83986 3.66799 0.61019
v 1.02594 3.66543 0.00000
v 0.33022 3.67439 1.01632
v -0.31893 3.66672 0.98156
v -0.80894 3.65996 0.58773
v -1.06767 3.67419 0.00000
v -0.82748 3.66478 -0.60120
v -0.32189 3.66873 -0.99069
v 0.31557 3.66444 -0.97124
v 0.80473 3.65887 -0.58467
v 0.85058 3.22923 0.61798
v 1.04339 3.23091 0.00000
v 0.30655 3.24169 0.94347
v -0.31506 3.23591 0.96967
v -0.81673 3.23802 0.59339
v -0.98997 3.24212 0.00000
v -0.80509 3.24103 -0.58493
v -0.33096 3.22510 -1.01860
v 0.32849 3.22679 -1.01098
v 0.81842 3.23757 -0.59462
v 0.63372 2.87530 0.46043
v 0.84058 2.83329 0.00000
v 0.26421 2.82271 0.81315
v -0.25462 2.84547 0.78365
v -0.68541 2.82842 0.49798
v -0.80253 2.86120 0.00000
v -0.65591 2.85517 -0.47655
v -0.24982 2.85686 -0.76888
v 0.26566 2.81925 -0.81763
v 0.65946 2.85196 -0.47912
v 0.45556 2.57969 0.00000
v 0.38538 2.53998 0.27999
v 0.14646 2.54457 0.45075
v -0.13930 2.58880 0.42873
v -0.36147 2.59643 0.26262
v -0.46957 2.55294 0.00000
v -0.35410 2.61383 -0.25727
v -0.13926 2.58905 -0.42861
v 0.14608 2.54690 -0.44959
v 0.38396 2.54332 -0.27897
v 0.00000 2.50975 0.00000
v -0.45000 3.86105 0.20000
v -0.19372 3.75516 0.38619
v -0.11963 3.78114 0.20000
v -0.35010 3.76762 0.50747
v -0.55533 3.80115 0.52416
v -0.72373 3.79639 0.39888
v -0.78661 3.79307 0.20000
v -0.71043 3.76498 0.01079
v -0.55049 3.77123 -0.10927
v -0.34767 3.78265 -0.11495
v -0.19830 3.74437 0.01713
v 0.13963 3.58260 0.20000
v 0.01354 3.57038 0.53678
v -0.26192 3.59654 0.77885
v -0.62330 3.56146 0.73337
v -0.93289 3.58792 0.55084
v -1.05807 3.59613 0.20000
v -0.91145 3.56848 -0.13526
v -0.63836 3.59722 -0.37973
v -0.26206 3.59622 -0.37843
v 0.00155 3.55949 -0.12807
v 0.11204 3.29588 0.60835
v 0.29637 3.30673 0.20000
v -0.22397 3.30359 0.89564
v -0.67452 3.30257 0.89100
v -1.02400 3.29898 0.61703
v -1.16840 3.30085 0.20000
v -1.05966 3.30824 -0.24295
v -0.67180 3.30072 -0.48264
v -0.23198 3.29815 -0.47100
v 0.15329 3.30659 -0.23832
v 0.27743 2.99725 0.20000
v 0.15923 2.99187 0.64263
v -0.23002 3.00052 0.87702
v -0.67188 2.99923 0.88288
v -1.05929 2.99186 0.64267
v -1.18171 2.99635 0.20000
v -1.04193 2.99636 -0.23006
v -0.66999 3.00051 -0.47706
v -0.23502 3.00391 -0.46165
v 0.16718 2.98981 -0.24841
v 0.11209 2.73761 0.20000
v 0.04075 2.70495 0.55655
v -0.27119 2.72548 0.75031
v -0.63937 2.70039 0.78283
v -0.91962 2.72412 0.54120
v -1.06197 2.70102 0.20000
v -0.92705 2.71738 -0.14660
v -0.62649 2.73097 -0.34318
v -0.26443 2.70941 -0.37114
v 0.03266 2.71229 -0.15067
v -0.18769 2.53058 0.39058
v -0.11859 2.51688 0.20000
v -0.35224 2.54562 0.50088
v -0.55198 2.51957 0.51385
v -0.70292 2.55276 0.38376
v -0.78167 2.51638 0.20000
v -0.71683 2.51991 0.00614
v -0.54932 2.53601 -0.10566
v -0.34644 2.50977 -0.11872
v -0.19479 2.54735 0.01458
v -0.45000 2.46756 0.20000
v 0.45000 3.89263 -0.15000
v 0.72248 3.84344 0.04797
v 0.76083 3.79380 -0.15000
v 0.54562 3.79114 0.14429
v 0.34463 3.85143 0.17430
v 0.17813 3.84200 0.04753
v 0.11531 3.83940 -0.15000
v 0.19863 3.79357 -0.33263
v 0.35238 3.80348 -0.45043
v 0.55408 3.84342 -0.47031
v 0.71149 3.81747 -0.33998
v 0.90647 3.61396 0.18164
v 1.04385 3.63569 -0.15000
v 0.62552 3.61671 0.39018
v 0.26885 3.63009 0.40752
v -0.03669 3.64137 0.20360
v -0.13871 3.63192 -0.15000
v -0.00574 3.61330 -0.48111
v 0.26217 3.64596 -0.72810
v 0.62467 3.61471 -0.68758
v 0.92152 3.62761 -0.49258
v 1.18755 3.35487 -0.15000
v 1.03085 3.35076 0.27201
v 0.67410 3.35228 0.53971
v 0.21530 3.35948 0.57232
v -0.13884 3.35284 0.27782
v -0.28407 3.35414 -0.15000
v -0.16938 3.36076 -0.60001
v 0.22911 3.35010 -0.82983
v 0.68487 3.35960 -0.87286
v 1.03338 3.35142 -0.57385
v 1.16745 3.04935 -0.15000
v 1.06411 3.04061 0.29617
v 0.66613 3.05313 0.51519
v 0.21576 3.04083 0.57091
v -0.16094 3.04143 0.29387
v -0.31006 3.04040 -0.15000
v -0.11551 3.05322 -0.56087
v 0.22995 3.05047 -0.82724
v 0.68217 3.04224 -0.86454
v 1.03781 3.04743 -0.57707
v 0.93352 2.76151 0.20130
v 1.00737 2.79107 -0.15000
v 0.63663 2.75690 0.42439
v 0.26022 2.74942 0.43409
v -0.00781 2.78482 0.18262
v -0.12183 2.78046 -0.15000
v -0.04058 2.75511 -0.50643
v 0.27620 2.78735 -0.68491
v 0.62711 2.77950 -0.69509
v 0.92210 2.77187 -0.49300
v 0.71439 2.57567 0.04209
v 0.77276 2.58341 -0.15000
v 0.55427 2.55541 0.17090
v 0.34812 2.57017 0.16355
v 0.18268 2.56876 0.04422
v 0.12159 2.57260 -0.15000
v 0.19435 2.59631 -0.33574
v 0.34995 2.58146 -0.45793
v 0.55546 2.54802 -0.47457
v 0.72404 2.55289 -0.34910
v 0.45000 2.49155 -0.15000
vt 0.406250 0.718750
vt 0.656250 0.281250
vn 0.9238 0.0138 0.3826
vn 0.3826 0.0138 0.9238
vn -0.3826 0.0138 0.9238
vn -0.9238 0.0138 0.3826
vn -0.9238 0.0138 -0.3826
vn -0.3826 0.0138 -0.9238
vn 0.3826 0.0138 -0.9238
vn 0.9238 0.0138 -0.3826
vn 0.0191 0.9998 -0.0016
vn 0.3695 0.8741 0.3152
vn 0.4860 0.8708 -0.0746
vn 0.0981 0.8626 0.4962
vn -0.0564 0.8752 0.4804
vn -0.3961 0.8551 0.3346
vn -0.5543 0.8323 -0.0010
vn -0.4141 0.8920 -0.1814
vn -0.0853 0.8715 -0.4829
vn 0.2622 0.8512 -0.4546
vn 0.3019 0.8765 -0.3749
vn 0.7893 0.6123 0.0458
vn 0.6000 0.6679 0.4404
vn 0.2133 0.6428 0.7357
vn -0.2994 0.6342 0.7129
vn -0.6333 0.6384 0.4375
vn -0.7891 0.6142 0.0067
vn -0.6231 0.6255 -0.4695
vn -0.2253 0.6351 -0.7388
vn 0.2913 0.6039 -0.7419
vn 0.6391 0.6238 -0.4499
vn 0.7595 0.2337 0.6070
vn 0.9757 0.2082 -0.0682
vn 0.2995 0.1885 0.9353
vn -0.2439 0.2343 0.9411
vn -0.7820 0.2176 0.5841
vn -0.9786 0.2049 0.0161
vn -0.8403 0.1967 -0.5052
vn -0.3580 0.2634 -0.8958
vn 0.3319 0.2159 -0.9183
vn 0.7436 0.2978 -0.5986
vn 0.8112 -0.2360 0.5351
vn 0.9552 -0.2928 0.0443
vn 0.2939 -0.2501 0.9225
vn -0.3653 -0.1927 0.9107
vn -0.7915 -0.2658 0.5503
vn -0.9763 -0.2164 -0.0017
vn -0.7719 -0.2718 -0.5747
vn -0.2676 -0.2017 -0.9422
vn 0.2665 -0.2645 -0.9268
vn 0.7992 -0.1940 -0.5689
vn 0.6448 -0.6061 0.4658
vn 0.7795 -0.6241 -0.0532
vn 0.2922 -0.5958 0.7481
vn -0.2579 -0.5980 0.7589
vn -0.6224 -0.6592 0.4220
vn -0.8021 -0.5965 -0.0272
vn -0.6087 -0.6643 -0.4338
vn -0.2887 -0.6453 -0.7072
vn 0.3188 -0.6142 -0.7219
vn 0.6147 -0.6719 -0.4131
vn 0.5128 -0.8584 0.0168
vn 0.3822 -0.9040 0.1917
vn 0.1297 -0.8804 0.4561
vn -0.2144 -0.9211 0.3250
vn -0.3698 -0.8822 0.2914
vn -0.4009 -0.9154 -0.0363
vn -0.3975 -0.8584 -0.3242
vn -0.2488 -0.9105 -0.3302
vn 0.1015 -0.8853 -0.4538
vn 0.3508 -0.9201 -0.1744
vn -0.0446 -0.9990 -0.0063
vn 0.0424 0.9988 -0.0241
vn 0.4243 0.8599 0.2838
vn 0.4640 0.8790 -0.1095
vn 0.1993 0.8643 0.4618
vn -0.0693 0.8792 0.4713
vn -0.3537 0.8594 0.3692
vn -0.4923 0.8683 -0.0607
vn -0.3329 0.8881 -0.3169
vn -0.1977 0.8774 -0.4370
vn 0.2828 0.8873 -0.3642
vn 0.3870 0.8798 -0.2760
vn 0.7653 0.6356 0.1013
vn 0.6201 0.6059 0.4984
vn 0.2131 0.6603 0.7201
vn -0.2581 0.5862 0.7679
vn -0.6801 0.5748 0.4550
vn -0.7895 0.6123 -0.0420
vn -0.6341 0.6159 -0.4675
vn -0.2209 0.5712 -0.7905
vn 0.2735 0.6507 -0.7083
vn 0.6300 0.6278 -0.4572
vn 0.7991 0.2185 0.5601
vn 0.9535 0.3007 -0.0212
vn 0.3160 0.2714 0.9091
vn -0.2522 0.2025 0.9462
vn -0.7612 0.2216 0.6094
vn -0.9713 0.2357 -0.0307
vn -0.7783 0.2713 -0.5662
vn -0.3181 0.1626 -0.9340
vn 0.2954 0.2521 -0.9215
vn 0.7700 0.2139 -0.6011
vn 0.9779 -0.2092 -0.0028
vn 0.8225 -0.2230 0.5232
vn 0.3185 -0.1840 0.9299
vn -0.3291 -0.2232 0.9175
vn -0.7814 -0.2190 0.5843
vn -0.9749 -0.2189 0.0412
vn -0.7890 -0.1766 -0.5884
vn -0.3073 -0.2842 -0.9082
vn 0.2665 -0.1983 -0.9432
vn 0.7657 -0.2432 -0.5955
vn 0.7563 -0.6534 0.0320
vn 0.5837 -0.6315 0.5103
vn 0.1942 -0.6335 0.7490
vn -0.2374 -0.6289 0.7403
vn -0.6291 -0.6242 0.4633
vn -0.7681 -0.6402 0.0146
vn -0.6376 -0.5915 -0.4935
vn -0.1954 -0.6136 -0.7650
vn 0.2471 -0.6401 -0.7275
vn 0.6445 -0.6217 -0.4452
vn 0.3679 -0.8822 0.2940
vn 0.4326 -0.9003 -0.0483
vn 0.1553 -0.9129 0.3774
vn -0.1395 -0.9034 0.4054
vn -0.3218 -0.9146 0.2448
vn -0.4441 -0.8947 0.0482
vn -0.2960 -0.8850 -0.3594
vn -0.1561 -0.9077 -0.3895
vn 0.0716 -0.8966 -0.4371
vn 0.4297 -0.8645 -0.2610
vn 0.0029 -0.9998 0.0172
vn 0.0200 0.9995 -0.0239
vn 0.3536 0.8966 0.2667
vn 0.5088 0.8607 -0.0164
vn 0.2024 0.8239 0.5294
vn 0.0120 0.9031 0.4292
vn -0.4180 0.8615 0.2883
vn -0.4011 0.9057 -0.1370
vn -0.4017 0.8550 -0.3280
vn -0.2087 0.8756 -0.4357
vn 0.0979 0.8967 -0.4318
vn 0.4135 0.8637 -0.2883
vn 0.6291 0.6481 0.4292
vn 0.7636 0.6432 -0.0565
vn 0.3275 0.6447 0.6908
vn -0.2007 0.6332 0.7475
vn -0.6291 0.6251 0.4620
vn -0.7718 0.6359 0.0051
vn -0.6180 0.6440 -0.4509
vn -0.2350 0.6606 -0.7130
vn 0.2516 0.6309 -0.7339
vn 0.6528 0.6380 -0.4085
vn 0.9563 0.2924 0.0081
vn 0.7608 0.2324 0.6060
vn 0.2911 0.2825 0.9140
vn -0.2134 0.2102 0.9541
vn -0.7898 0.2510 0.5596
vn -0.9621 0.2525 -0.1029
vn -0.7750 0.2354 -0.5864
vn -0.3118 0.2074 -0.9272
vn 0.2880 0.3091 -0.9064
vn 0.7939 0.2328 -0.5617
vn 0.9761 -0.2175 0.0029
vn 0.7819 -0.2000 0.5904
vn 0.3150 -0.1943 0.9290
vn -0.3859 -0.2370 0.8916
vn -0.7869 -0.3286 0.5223
vn -0.9796 -0.1993 0.0271
vn -0.7650 -0.2512 -0.5930
vn -0.2944 -0.3149 -0.9023
vn 0.2923 -0.2059 -0.9339
vn 0.7806 -0.3302 -0.5307
vn 0.6657 -0.5989 0.4450
vn 0.7771 -0.6267 -0.0581
vn 0.2543 -0.6595 0.7074
vn -0.1924 -0.6031 0.7741
vn -0.6034 -0.6550 0.4549
vn -0.7725 -0.6349 -0.0126
vn -0.6109 -0.6423 -0.4628
vn -0.3023 -0.6068 -0.7351
vn 0.2152 -0.6191 -0.7553
vn 0.6594 -0.6402 -0.3941
vn 0.4537 -0.8587 0.2384
vn 0.5473 -0.8369 0.0020
vn 0.1390 -0.9154 0.3777
vn -0.1974 -0.8697 0.4524
vn -0.3762 -0.8878 0.2650
vn -0.5212 -0.8533 0.0182
vn -0.3898 -0.8683 -0.3068
vn -0.2016 -0.8350 -0.5120
vn 0.0629 -0.8907 -0.4501
vn 0.4124 -0.8550 -0.3145
vn -0.0203 -0.9998 -0.0038
o Tree
g Tree
usemtl MI_Palette
f 1/1/1 2/1/2 3/1/2 4/1/1
f 2/1/2 5/1/3 6/1/3 3/1/2
f 5/1/3 7/1/4 8/1/4 6/1/3
f 7/1/4 9/1/5 10/1/5 8/1/4
f 9/1/5 11/1/6 12/1/6 10/1/5
f 11/1/6 13/1/7 14/1/7 12/1/6
f 13/1/7 15/1/8 16/1/8 14/1/7
f 15/1/8 1/1/1 4/1/1 16/1/8
f 17/2/9 18/2/10 19/2/11
f 17/2/9 20/2/12 18/2/10
f 17/2/9 21/2/13 20/2/12
f 17/2/9 22/2/14 21/2/13
f 17/2/9 23/2/15 22/2/14
f 17/2/9 24/2/16 23/2/15
f 17/2/9 25/2/17 24/2/16
f 17/2/9 26/2/18 25/2/17
f 17/2/9 27/2/19 26/2/18
f 17/2/9 19/2/11 27/2/19
f 19/2/11 18/2/10 28/2/20
f 18/2/10 29/2/21 28/2/20
f 18/2/10 20/2/12 30/2/22
f 18/2/10 30/2/22 29/2/21
f 20/2/12 21/2/13 31/2/23
f 20/2/12 31/2/23 30/2/22
f 21/2/13 22/2/14 31/2/23
f 22/2/14 32/2/24 31/2/23
f 22/2/14 23/2/15 32/2/24
f 23/2/15 33/2/25 32/2/24
f 23/2/15 24/2/16 34/2/26
f 23/2/15 34/2/26 33/2/25
f 24/2/16 25/2/17 34/2/26
f 25/2/17 35/2/27 34/2/26
f 25/2/17 26/2/18 36/2/28
f 25/2/17 36/2/28 35/2/27
f 26/2/18 27/2/19 37/2/29
f 26/2/18 37/2/29 36/2/28
f 27/2/19 19/2/11 37/2/29
f 19/2/11 28/2/20 37/2/29
f 28/2/20 29/2/21 38/2/30
f 28/2/20 38/2/30 39/2/31
f 29/2/21 30/2/22 38/2/30
f 30/2/22 40/2/32 38/2/30
f 30/2/22 31/2/23 41/2/33
f 30/2/22 41/2/33 40/2/32
f 31/2/23 32/2/24 42/2/34
f 31/2/23 42/2/34 41/2/33
f 32/2/24 33/2/25 42/2/34
f 33/2/25 43/2/35 42/2/34
f 33/2/25 34/2/26 44/2/36
f 33/2/25 44/2/36 43/2/35
f 34/2/26 35/2/27 45/2/37
f 34/2/26 45/2/37 44/2/36
f 35/2/27 36/2/28 45/2/37
f 36/2/28 46/2/38 45/2/37
f 36/2/28 37/2/29 47/2/39
f 36/2/28 47/2/39 46/2/38
f 37/2/29 28/2/20 39/2/31
f 37/2/29 39/2/31 47/2/39
f 39/2/31 38/2/30 48/2/40
f 39/2/31 48/2/40 49/2/41
f 38/2/30 40/2/32 50/2/42
f 38/2/30 50/2/42 48/2/40
f 40/2/32 41/2/33 50/2/42
f 41/2/33 51/2/43 50/2/42
f 41/2/33 42/2/34 51/2/43
f 42/2/34 52/2/44 51/2/43
f 42/2/34 43/2/35 53/2/45
f 42/2/34 53/2/45 52/2/44
f 43/2/35 44/2/36 53/2/45
f 44/2/36 54/2/46 53/2/45
f 44/2/36 45/2/37 54/2/46
f 45/2/37 55/2/47 54/2/46
f 45/2/37 46/2/38 55/2/47
f 46/2/38 56/2/48 55/2/47
f 46/2/38 47/2/39 57/2/49
f 46/2/38 57/2/49 56/2/48
f 47/2/39 39/2/31 57/2/49
f 39/2/31 49/2/41 57/2/49
f 49/2/41 48/2/40 58/2/50
f 49/2/41 58/2/50 59/2/51
f 48/2/40 50/2/42 58/2/50
f 50/2/42 60/2/52 58/2/50
f 50/2/42 51/2/43 61/2/53
f 50/2/42 61/2/53 60/2/52
f 51/2/43 52/2/44 61/2/53
f 52/2/44 62/2/54 61/2/53
f 52/2/44 53/2/45 63/2/55
f 52/2/44 63/2/55 62/2/54
f 53/2/45 54/2/46 63/2/55
f 54/2/46 64/2/56 63/2/55
f 54/2/46 55/2/47 65/2/57
f 54/2/46 65/2/57 64/2/56
f 55/2/47 56/2/48 65/2/57
f 56/2/48 66/2/58 65/2/57
f 56/2/48 57/2/49 66/2/58
f 57/2/49 67/2/59 66/2/58
f 57/2/49 49/2/41 59/2/51
f 57/2/49 59/2/51 67/2/59
f 59/2/51 58/2/50 68/2/60
f 58/2/50 69/2/61 68/2/60
f 58/2/50 60/2/52 70/2/62
f 58/2/50 70/2/62 69/2/61
f 60/2/52 61/2/53 70/2/62
f 61/2/53 71/2/63 70/2/62
f 61/2/53 62/2/54 72/2/64
f 61/2/53 72/2/64 71/2/63
f 62/2/54 63/2/55 72/2/64
f 63/2/55 73/2/65 72/2/64
f 63/2/55 64/2/56 74/2/66
f 63/2/55 74/2/66 73/2/65
f 64/2/56 65/2/57 74/2/66
f 65/2/57 75/2/67 74/2/66
f 65/2/57 66/2/58 76/2/68
f 65/2/57 76/2/68 75/2/67
f 66/2/58 67/2/59 76/2/68
f 67/2/59 77/2/69 76/2/68
f 67/2/59 59/2/51 68/2/60
f 67/2/59 68/2/60 77/2/69
f 68/2/60 69/2/61 78/2/70
f 69/2/61 70/2/62 78/2/70
f 70/2/62 71/2/63 78/2/70
f 71/2/63 72/2/64 78/2/70
f 72/2/64 73/2/65 78/2/70
f 73/2/65 74/2/66 78/2/70
f 74/2/66 75/2/67 78/2/70
f 75/2/67 76/2/68 78/2/70
f 76/2/68 77/2/69 78/2/70
f 77/2/69 68/2/60 78/2/70
f 79/2/71 80/2/72 81/2/73
f 79/2/71 82/2/74 80/2/72
f 79/2/71 83/2/75 82/2/74
f 79/2/71 84/2/76 83/2/75
f 79/2/71 85/2/77 84/2/76
f 79/2/71 86/2/78 85/2/77
f 79/2/71 87/2/79 86/2/78
f 79/2/71 88/2/80 87/2/79
f 79/2/71 89/2/81 88/2/80
f 79/2/71 81/2/73 89/2/81
f 81/2/73 80/2/72 90/2/82
f 80/2/72 91/2/83 90/2/82
f 80/2/72 82/2/74 91/2/83
f 82/2/74 92/2/84 91/2/83
f 82/2/74 83/2/75 93/2/85
f 82/2/74 93/2/85 92/2/84
f 83/2/75 84/2/76 93/2/85
f 84/2/76 94/2/86 93/2/85
f 84/2/76 85/2/77 94/2/86
f 85/2/77 95/2/87 94/2/86
f 85/2/77 86/2/78 96/2/88
f 85/2/77 96/2/88 95/2/87
f 86/2/78 87/2/79 96/2/88
f 87/2/79 97/2/89 96/2/88
f 87/2/79 88/2/80 98/2/90
f 87/2/79 98/2/90 97/2/89
f 88/2/80 89/2/81 99/2/91
f 88/2/80 99/2/91 98/2/90
f 89/2/81 81/2/73 99/2/91
f 81/2/73 90/2/82 99/2/91
f 90/2/82 91/2/83 100/2/92
f 90/2/82 100/2/92 101/2/93
f 91/2/83 92/2/84 102/2/94
f 91/2/83 102/2/94 100/2/92
f 92/2/84 93/2/85 102/2/94
f 93/2/85 103/2/95 102/2/94
f 93/2/85 94/2/86 104/2/96
f 93/2/85 104/2/96 103/2/95
f 94/2/86 95/2/87 105/2/97
f 94/2/86 105/2/97 104/2/96
f 95/2/87 96/2/88 105/2/97
f 96/2/88 106/2/98 105/2/97
f 96/2/88 97/2/89 107/2/99
f 96/2/88 107/2/99 106/2/98
f 97/2/89 98/2/90 108/2/100
f 97/2/89 108/2/100 107/2/99
f 98/2/90 99/2/91 108/2/100
f 99/2/91 109/2/101 108/2/100
f 99/2/91 90/2/82 101/2/93
f 99/2/91 101/2/93 109/2/101
f 101/2/93 100/2/92 110/2/102
f 100/2/92 111/2/103 110/2/102
f 100/2/92 102/2/94 112/2/104
f 100/2/92 112/2/104 111/2/103
f 102/2/94 103/2/95 112/2/104
f 103/2/95 113/2/105 112/2/104
f 103/2/95 104/2/96 113/2/105
f 104/2/96 114/2/106 113/2/105
f 104/2/96 105/2/97 115/2/107
f 104/2/96 115/2/107 114/2/106
f 105/2/97 106/2/98 116/2/108
f 105/2/97 116/2/108 115/2/107
f 106/2/98 107/2/99 116/2/108
f 107/2/99 117/2/109 116/2/108
f 107/2/99 108/2/100 118/2/110
f 107/2/99 118/2/110 117/2/109
f 108/2/100 109/2/101 118/2/110
f 109/2/101 119/2/111 118/2/110
f 109/2/101 101/2/93 110/2/102
f 109/2/101 110/2/102 119/2/111
f 110/2/102 111/2/103 120/2/112
f 111/2/103 121/2/113 120/2/112
f 111/2/103 112/2/104 121/2/113
f 112/2/104 122/2/114 121/2/113
f 112/2/104 113/2/105 122/2/114
f 113/2/105 123/2/115 122/2/114
f 113/2/105 114/2/106 124/2/116
f 113/2/105 124/2/116 123/2/115
f 114/2/106 115/2/107 124/2/116
f 115/2/107 125/2/117 124/2/116
f 115/2/107 116/2/108 126/2/118
f 115/2/107 126/2/118 125/2/117
f 116/2/108 117/2/109 126/2/118
f 117/2/109 127/2/119 126/2/118
f 117/2/109 118/2/110 127/2/119
f 118/2/110 128/2/120 127/2/119
f 118/2/110 119/2/111 129/2/121
f 118/2/110 129/2/121 128/2/120
f 119/2/111 110/2/102 129/2/121
f 110/2/102 120/2/112 129/2/121
f 120/2/112 121/2/113 130/2/122
f 120/2/112 130/2/122 131/2/123
f 121/2/113 122/2/114 130/2/122
f 122/2/114 132/2/124 130/2/122
f 122/2/114 123/2/115 133/2/125
f 122/2/114 133/2/125 132/2/124
f 123/2/115 124/2/116 133/2/125
f 124/2/116 134/2/126 133/2/125
f 124/2/116 125/2/117 135/2/127
f 124/2/116 135/2/127 134/2/126
f 125/2/117 126/2/118 135/2/127
f 126/2/118 136/2/128 135/2/127
f 126/2/118 127/2/119 136/2/128
f 127/2/119 137/2/129 136/2/128
f 127/2/119 128/2/120 138/2/130
f 127/2/119 138/2/130 137/2/129
f 128/2/120 129/2/121 139/2/131
f 128/2/120 139/2/131 138/2/130
f 129/2/121 120/2/112 139/2/131
f 120/2/112 131/2/123 139/2/131
f 131/2/123 130/2/122 140/2/132
f 130/2/122 132/2/124 140/2/132
f 132/2/124 133/2/125 140/2/132
f 133/2/125 134/2/126 140/2/132
f 134/2/126 135/2/127 140/2/132
f 135/2/127 136/2/128 140/2/132
f 136/2/128 137/2/129 140/2/132
f 137/2/129 138/2/130 140/2/132
f 138/2/130 139/2/131 140/2/132
f 139/2/131 131/2/123 140/2/132
f 141/2/133 142/2/134 143/2/135
f 141/2/133 144/2/136 142/2/134
f 141/2/133 145/2/137 144/2/136
f 141/2/133 146/2/138 145/2/137
f 141/2/133 147/2/139 146/2/138
f 141/2/133 148/2/140 147/2/139
f 141/2/133 149/2/141 148/2/140
f 141/2/133 150/2/142 149/2/141
f 141/2/133 151/2/143 150/2/142
f 141/2/133 143/2/135 151/2/143
f 143/2/135 142/2/134 152/2/144
f 143/2/135 152/2/144 153/2/145
f 142/2/134 144/2/136 152/2/144
f 144/2/136 154/2/146 152/2/144
f 144/2/136 145/2/137 155/2/147
f 144/2/136 155/2/147 154/2/146
f 145/2/137 146/2/138 155/2/147
f 146/2/138 156/2/148 155/2/147
f 146/2/138 147/2/139 157/2/149
f 146/2/138 157/2/149 156/2/148
f 147/2/139 148/2/140 157/2/149
f 148/2/140 158/2/150 157/2/149
f 148/2/140 149/2/141 158/2/150
f 149/2/141 159/2/151 158/2/150
f 149/2/141 150/2/142 160/2/152
f 149/2/141 160/2/152 159/2/151
f 150/2/142 151/2/143 160/2/152
f 151/2/143 161/2/153 160/2/152
f 151/2/143 143/2/135 161/2/153
f 143/2/135 153/2/145 161/2/153
f 153/2/145 152/2/144 162/2/154
f 152/2/144 163/2/155 162/2/154
f 152/2/144 154/2/146 163/2/155
f 154/2/146 164/2/156 163/2/155
f 154/2/146 155/2/147 164/2/156
f 155/2/147 165/2/157 164/2/156
f 155/2/147 156/2/148 166/2/158
f 155/2/147 166/2/158 165/2/157
f 156/2/148 157/2/149 166/2/158
f 157/2/149 167/2/159 166/2/158
f 157/2/149 158/2/150 167/2/159
f 158/2/150 168/2/160 167/2/159
f 158/2/150 159/2/151 169/2/161
f 158/2/150 169/2/161 168/2/160
f 159/2/151 160/2/152 169/2/161
f 160/2/152 170/2/162 169/2/161
f 160/2/152 161/2/153 171/2/163
f 160/2/152 171/2/163 170/2/162
f 161/2/153 153/2/145 162/2/154 171/2/163
f 162/2/154 163/2/155 172/2/164
f 163/2/155 173/2/165 172/2/164
f 163/2/155 164/2/156 174/2/166
f 163/2/155 174/2/166 173/2/165
f 164/2/156 165/2/157 174/2/166
f 165/2/157 175/2/167 174/2/166
f 165/2/157 166/2/158 175/2/167
f 166/2/158 176/2/168 175/2/167
f 166/2/158 167/2/159 177/2/169
f 166/2/158 177/2/169 176/2/168
f 167/2/159 168/2/160 178/2/170
f 167/2/159 178/2/170 177/2/169
f 168/2/160 169/2/161 178/2/170
f 169/2/161 179/2/171 178/2/170
f 169/2/161 170/2/162 180/2/172
f 169/2/161 180/2/172 179/2/171
f 170/2/162 171/2/163 180/2/172
f 171/2/163 181/2/173 180/2/172
f 171/2/163 162/2/154 172/2/164
f 171/2/163 172/2/164 181/2/173
f 172/2/164 173/2/165 182/2/174
f 172/2/164 182/2/174 183/2/175
f 173/2/165 174/2/166 182/2/174
f 174/2/166 184/2/176 182/2/174
f 174/2/166 175/2/167 185/2/177
f 174/2/166 185/2/177 184/2/176
f 175/2/167 176/2/168 186/2/178
f 175/2/167 186/2/178 185/2/177
f 176/2/168 177/2/169 187/2/179
f 176/2/168 187/2/179 186/2/178
f 177/2/169 178/2/170 187/2/179
f 178/2/170 188/2/180 187/2/179
f 178/2/170 179/2/171 189/2/181
f 178/2/170 189/2/181 188/2/180
f 179/2/171 180/2/172 190/2/182
f 179/2/171 190/2/182 189/2/181
f 180/2/172 181/2/173 190/2/182
f 181/2/173 191/2/183 190/2/182
f 181/2/173 172/2/164 183/2/175
f 181/2/173 183/2/175 191/2/183
f 183/2/175 182/2/174 192/2/184
f 183/2/175 192/2/184 193/2/185
f 182/2/174 184/2/176 192/2/184
f 184/2/176 194/2/186 192/2/184
f 184/2/176 185/2/177 195/2/187
f 184/2/176 195/2/187 194/2/186
f 185/2/177 186/2/178 195/2/187
f 186/2/178 196/2/188 195/2/187
f 186/2/178 187/2/179 197/2/189
f 186/2/178 197/2/189 196/2/188
f 187/2/179 188/2/180 198/2/190
f 187/2/179 198/2/190 197/2/189
f 188/2/180 189/2/181 198/2/190
f 189/2/181 199/2/191 198/2/190
f 189/2/181 190/2/182 199/2/191
f 190/2/182 200/2/192 199/2/191
f 190/2/182 191/2/183 201/2/193
f 190/2/182 201/2/193 200/2/192
f 191/2/183 183/2/175 193/2/185
f 191/2/183 193/2/185 201/2/193
f 193/2/185 192/2/184 202/2/194
f 192/2/184 194/2/186 202/2/194
f 194/2/186 195/2/187 202/2/194
f 195/2/187 196/2/188 202/2/194
f 196/2/188 197/2/189 202/2/194
f 197/2/189 198/2/190 202/2/194
f 198/2/190 199/2/191 202/2/194
f 199/2/191 200/2/192 202/2/194
f 200/2/192 201/2/193 202/2/194
f 201/2/193 193/2/185 202/2/194
