# Cook No Evil! · sokak modelleri
# SE-06 · Ağaç A (büyük)
# Pivot: Taban ortası
# birim m · Y yukarı · ön +Z · üçgen 376
mtllib CNE_Sokak.mtl
v 0.07391 3.40000 0.03061
v 0.03061 3.40000 0.07391
v 0.04592 0.00000 0.11087
v 0.11087 0.00000 0.04592
v -0.03061 3.40000 0.07391
v -0.04592 0.00000 0.11087
v -0.07391 3.40000 0.03061
v -0.11087 0.00000 0.04592
v -0.07391 3.40000 -0.03061
v -0.11087 0.00000 -0.04592
v -0.03061 3.40000 -0.07391
v -0.04592 0.00000 -0.11087
v 0.03061 3.40000 -0.07391
v 0.04592 0.00000 -0.11087
v 0.07391 3.40000 -0.03061
v 0.11087 0.00000 -0.04592
v 0.00000 5.49741 0.00000
v 0.45807 5.38167 0.33280
v 0.57835 5.40488 0.00000
v 0.17133 5.35921 0.52731
v -0.17933 5.40864 0.55191
v -0.44734 5.35635 0.32501
v -0.56143 5.37255 0.00000
v -0.43963 5.33812 -0.31941
v -0.17261 5.36712 -0.53124
v 0.16913 5.34560 -0.52053
v 0.44548 5.35195 -0.32366
v 0.80421 5.02932 0.58430
v 1.04183 5.06436 0.00000
v 0.31361 5.04459 0.96520
v -0.32918 5.08154 1.01311
v -0.86023 5.08012 0.62499
v -1.03923 5.06246 0.00000
v -0.82566 5.04877 -0.59988
v -0.30707 5.02906 -0.94507
v 0.30342 5.02039 -0.93383
v 0.86091 5.08074 -0.62549
v 1.26944 4.56656 0.00000
v 0.98597 4.55591 0.71635
v 0.39649 4.56942 1.22026
v -0.40249 4.57350 1.23873
v -1.03694 4.56914 0.75338
v -1.32029 4.57724 0.00000
v -0.97815 4.55388 -0.71066
v -0.39277 4.56690 -1.20882
v 0.39006 4.56505 -1.20047
v 0.98048 4.55449 -0.71236
v 1.28532 4.03010 0.00000
v 1.06151 4.02448 0.77123
v 0.39529 4.03139 1.21658
v -0.38225 4.04025 1.17646
v -1.06020 4.02482 0.77028
v -1.26861 4.03361 0.00000
v -1.02647 4.03358 -0.74577
v -0.40156 4.02713 -1.23587
v 0.37786 4.04323 -1.16294
v 1.05813 4.02536 -0.76877
v 0.84588 3.53290 0.61457
v 1.03501 3.54064 0.00000
v 0.30439 3.57730 0.93683
v -0.32358 3.53176 0.99586
v -0.79689 3.57732 0.57897
v -0.97385 3.58551 0.00000
v -0.85148 3.52782 -0.61864
v -0.32543 3.52737 -1.00156
v 0.32591 3.52623 -1.00303
v 0.81996 3.55640 -0.59574
v 0.43383 3.27555 0.31520
v 0.55130 3.24679 0.00000
v 0.17684 3.20674 0.54426
v -0.17813 3.19874 0.54824
v -0.47164 3.18628 0.34267
v -0.55175 3.24595 0.00000
v -0.44333 3.25313 -0.32210
v -0.17673 3.20743 -0.54392
v 0.17962 3.18957 -0.55281
v 0.47748 3.17248 -0.34691
v 0.00000 3.14580 0.00000
v -0.60000 4.40316 0.25000
v -0.27820 4.30989 0.48380
v -0.18524 4.34235 0.25000
v -0.47348 4.33214 0.63937
v -0.72953 4.35078 0.64865
v -0.93089 4.33137 0.49041
v -1.01768 4.34793 0.25000
v -0.94906 4.37425 -0.00360
v -0.72971 4.35186 -0.14919
v -0.47401 4.32891 -0.13777
v -0.27696 4.31282 0.01530
v 0.13130 4.08654 0.25000
v 0.00155 4.09553 0.68705
v -0.36150 4.11625 0.98402
v -0.83584 4.10995 0.97585
v -1.18996 4.08502 0.67863
v -1.37425 4.11805 0.25000
v -1.19914 4.09334 -0.18530
v -0.83397 4.10549 -0.47007
v -0.37950 4.07353 -0.42864
v -0.02287 4.07338 -0.16931
v 0.29857 3.73869 0.25000
v 0.17810 3.75196 0.81533
v -0.30865 3.74798 1.14669
v -0.89620 3.75128 1.16161
v -1.36012 3.74729 0.80226
v -1.51753 3.74267 0.25000
v -1.35054 3.74481 -0.29530
v -0.88888 3.74630 -0.63908
v -0.30343 3.75153 -0.66275
v 0.14466 3.74328 -0.29103
v 0.15782 3.35331 0.80059
v 0.36251 3.34789 0.25000
v -0.30437 3.34911 1.15986
v -0.88615 3.35555 1.13068
v -1.36372 3.35177 0.80488
v -1.51127 3.35865 0.25000
v -1.35101 3.35507 -0.29564
v -0.87808 3.36104 -0.60585
v -0.32522 3.36328 -0.59568
v 0.11472 3.36449 -0.26928
v 0.15774 2.99407 0.25000
v -0.00173 3.00744 0.68467
v -0.36135 2.98340 0.98448
v -0.83721 2.98680 0.98006
v -1.19398 3.01133 0.68156
v -1.37792 2.97926 0.25000
v -1.20642 3.00005 -0.19059
v -0.83562 2.99058 -0.47517
v -0.37261 3.01013 -0.44983
v -0.01737 3.02163 -0.17331
v -0.20134 2.78840 0.25000
v -0.27716 2.78766 0.48456
v -0.47130 2.75438 0.64608
v -0.72244 2.79306 0.62683
v -0.91746 2.80036 0.48065
v -1.02592 2.73633 0.25000
v -0.92011 2.79410 0.01743
v -0.72674 2.76644 -0.14008
v -0.47277 2.76346 -0.14156
v -0.26252 2.75308 0.00481
v -0.60000 2.67565 0.25000
v 0.60000 4.48188 -0.20000
v 0.95161 4.43028 0.05546
v 1.02916 4.41988 -0.20000
v 0.73315 4.42314 0.20979
v 0.46476 4.43609 0.21623
v 0.24063 4.44861 0.06110
v 0.14632 4.46671 -0.20000
v 0.25656 4.41100 -0.44953
v 0.46393 4.44120 -0.61878
v 0.73671 4.44516 -0.62074
v 0.94374 4.41171 -0.44974
v 1.34286 4.14502 -0.20000
v 1.26246 4.20077 0.28131
v 0.83673 4.16205 0.52858
v 0.36289 4.16294 0.52973
v -0.05729 4.19608 0.27755
v -0.18849 4.17850 -0.20000
v -0.03070 4.17196 -0.65823
v 0.35180 4.18929 -0.96389
v 0.83025 4.14667 -0.90864
v 1.24561 4.18548 -0.66906
v 1.35646 3.79634 0.34960
v 1.56267 3.80214 -0.20000
v 0.90610 3.80801 0.74209
v 0.28573 3.81355 0.76722
v -0.16564 3.79872 0.35627
v -0.38761 3.80738 -0.20000
v -0.17281 3.80059 -0.76148
v 0.29145 3.80967 -1.14963
v 0.90796 3.80927 -1.14781
v 1.36655 3.79896 -0.75693
v 1.60709 3.38853 -0.20000
v 1.40117 3.39205 0.38208
v 0.90678 3.39154 0.74416
v 0.28909 3.38873 0.75689
v -0.18310 3.39674 0.36896
v -0.40015 3.38998 -0.20000
v -0.21859 3.38753 -0.79474
v 0.31071 3.40342 -1.09034
v 0.91181 3.38812 -1.15964
v 1.38037 3.39745 -0.76697
v 1.21015 3.04668 0.24330
v 1.38024 3.02755 -0.20000
v 0.84639 3.01501 0.55832
v 0.36343 3.03832 0.52810
v -0.05599 3.00510 0.27660
v -0.16427 3.03927 -0.20000
v -0.03642 3.02284 -0.66239
v 0.36083 3.03215 -0.93610
v 0.84433 3.01991 -0.95196
v 1.21333 3.04379 -0.64561
v 1.02001 2.79761 -0.20000
v 0.95968 2.75065 0.06133
v 0.73746 2.75020 0.22306
v 0.46502 2.76556 0.21541
v 0.23420 2.73621 0.06577
v 0.17888 2.79550 -0.20000
v 0.23666 2.74202 -0.46398
v 0.47036 2.79855 -0.59899
v 0.74030 2.73262 -0.63181
v 0.95536 2.76086 -0.45819
v 0.60000 2.67017 -0.20000
vt 0.406250 0.718750
vt 0.656250 0.281250
vn 0.9238 0.0118 0.3827
vn 0.3827 0.0118 0.9238
vn -0.3827 0.0118 0.9238
vn -0.9238 0.0118 0.3827
vn -0.9238 0.0118 -0.3827
vn -0.3827 0.0118 -0.9238
vn 0.3827 0.0118 -0.9238
vn 0.9238 0.0118 -0.3827
vn -0.0151 0.9995 -0.0287
vn 0.3001 0.9022 0.3098
vn 0.4528 0.8899 0.0559
vn 0.2453 0.8751 0.4172
vn -0.0515 0.9067 0.4187
vn -0.3888 0.8905 0.2363
vn -0.4225 0.9025 -0.0839
vn -0.3253 0.8832 -0.3379
vn -0.1438 0.9045 -0.4015
vn 0.1173 0.8670 -0.4842
vn 0.3280 0.8868 -0.3257
vn 0.6462 0.6208 0.4439
vn 0.7912 0.6075 -0.0696
vn 0.2876 0.6083 0.7398
vn -0.3049 0.6359 0.7090
vn -0.6070 0.6792 0.4126
vn -0.7850 0.6193 -0.0174
vn -0.5848 0.6702 -0.4570
vn -0.2829 0.6540 -0.7016
vn 0.2389 0.6087 -0.7566
vn 0.5895 0.6374 -0.4962
vn 0.9617 0.2668 0.0620
vn 0.7698 0.2397 0.5916
vn 0.2664 0.1783 0.9472
vn -0.2389 0.2247 0.9447
vn -0.7896 0.1988 0.5806
vn -0.9752 0.2174 -0.0414
vn -0.7774 0.2310 -0.5850
vn -0.2055 0.2651 -0.9421
vn 0.3320 0.2392 -0.9124
vn 0.7782 0.2222 -0.5874
vn 0.9820 -0.1889 -0.0065
vn 0.7429 -0.2381 0.6256
vn 0.3494 -0.1973 0.9160
vn -0.2909 -0.2501 0.9235
vn -0.7644 -0.2866 0.5775
vn -0.9695 -0.2451 0.0060
vn -0.7964 -0.2618 -0.5452
vn -0.3610 -0.1434 -0.9215
vn 0.3137 -0.1865 -0.9310
vn 0.7722 -0.1949 -0.6048
vn 0.6315 -0.6623 0.4032
vn 0.6958 -0.7182 0.0031
vn 0.2404 -0.6225 0.7448
vn -0.2431 -0.6175 0.7481
vn -0.6473 -0.6299 0.4292
vn -0.7646 -0.6432 -0.0417
vn -0.6353 -0.6767 -0.3720
vn -0.2618 -0.5963 -0.7589
vn 0.2387 -0.6378 -0.7323
vn 0.6414 -0.6145 -0.4593
vn 0.3713 -0.8900 0.2647
vn 0.4581 -0.8883 0.0339
vn 0.2433 -0.9086 0.3395
vn -0.1377 -0.8717 0.4702
vn -0.3690 -0.9132 0.1728
vn -0.5102 -0.8600 -0.0108
vn -0.4013 -0.8915 -0.2104
vn -0.1395 -0.9064 -0.3988
vn 0.1860 -0.8969 -0.4012
vn 0.3571 -0.9228 -0.1446
vn 0.0016 -0.9999 0.0105
vn 0.0416 0.9991 0.0122
vn 0.4042 0.8872 0.2227
vn 0.3973 0.9177 0.0068
vn 0.1853 0.8972 0.4008
vn -0.2153 0.9002 0.3784
vn -0.3272 0.9166 0.2300
vn -0.4713 0.8806 0.0487
vn -0.3173 0.9225 -0.2198
vn -0.0933 0.8674 -0.4887
vn 0.2125 0.9043 -0.3702
vn 0.4138 0.8475 -0.3324
vn 0.7279 0.6850 -0.0309
vn 0.6408 0.6372 0.4281
vn 0.2512 0.6741 0.6946
vn -0.1801 0.6454 0.7423
vn -0.6376 0.6203 0.4568
vn -0.7710 0.6367 0.0143
vn -0.6467 0.5964 -0.4755
vn -0.2024 0.6475 -0.7347
vn 0.2712 0.6503 -0.7096
vn 0.6671 0.6232 -0.4082
vn 0.9661 0.2563 -0.0314
vn 0.8026 0.2517 0.5409
vn 0.3018 0.2207 0.9275
vn -0.3576 0.2701 0.8940
vn -0.8101 0.1725 0.5604
vn -0.9591 0.2829 -0.0039
vn -0.8035 0.1483 -0.5766
vn -0.2598 0.2329 -0.9372
vn 0.3104 0.2400 -0.9198
vn 0.7514 0.2208 -0.6218
vn 0.8125 -0.2030 0.5464
vn 0.9817 -0.1857 -0.0415
vn 0.3500 -0.2697 0.8971
vn -0.3123 -0.2310 0.9215
vn -0.7859 -0.2687 0.5569
vn -0.9787 -0.2051 -0.0055
vn -0.7815 -0.2326 -0.5789
vn -0.3287 -0.2432 -0.9126
vn 0.3453 -0.2500 -0.9046
vn 0.8180 -0.2278 -0.5283
vn 0.7757 -0.6304 -0.0295
vn 0.5791 -0.6733 0.4597
vn 0.1553 -0.6509 0.7431
vn -0.2693 -0.6849 0.6771
vn -0.6196 -0.6293 0.4692
vn -0.7884 -0.6149 0.0192
vn -0.6313 -0.6070 -0.4827
vn -0.2222 -0.6357 -0.7393
vn 0.2056 -0.5954 -0.7767
vn 0.5911 -0.6237 -0.5115
vn 0.4785 -0.8778 0.0214
vn 0.3754 -0.9097 0.1777
vn 0.1947 -0.9079 0.3711
vn -0.2037 -0.8929 0.4016
vn -0.2594 -0.9022 0.3447
vn -0.4174 -0.9086 0.0162
vn -0.2816 -0.9157 -0.2867
vn -0.1612 -0.8897 -0.4271
vn 0.2056 -0.8707 -0.4468
vn 0.3831 -0.8999 -0.2082
vn -0.0025 -0.9998 0.0201
vn 0.0291 0.9996 -0.0035
vn 0.3713 0.8949 0.2475
vn 0.4127 0.9100 -0.0399
vn 0.0917 0.8819 0.4625
vn -0.0674 0.9221 0.3811
vn -0.3565 0.8814 0.3099
vn -0.3580 0.9303 -0.0797
vn -0.3926 0.8838 -0.2545
vn -0.1526 0.8852 -0.4394
vn 0.1863 0.9102 -0.3700
vn 0.4078 0.8736 -0.2654
vn 0.8021 0.5971 -0.0127
vn 0.6515 0.6194 0.4381
vn 0.2967 0.6250 0.7220
vn -0.2195 0.6348 0.7409
vn -0.6251 0.6113 0.4854
vn -0.7978 0.6024 -0.0243
vn -0.6005 0.6744 -0.4297
vn -0.2950 0.6141 -0.7320
vn 0.2630 0.6227 -0.7369
vn 0.6172 0.6489 -0.4449
vn 0.7908 0.2476 0.5598
vn 0.9593 0.2725 -0.0744
vn 0.2464 0.2721 0.9302
vn -0.3259 0.2946 0.8983
vn -0.7939 0.2207 0.5666
vn -0.9658 0.2592 0.0066
vn -0.7838 0.2361 -0.5744
vn -0.2557 0.2514 -0.9335
vn 0.2415 0.2356 -0.9414
vn 0.7614 0.2792 -0.5850
vn 0.9704 -0.2203 0.0991
vn 0.7804 -0.2345 0.5796
vn 0.3650 -0.2753 0.8894
vn -0.3222 -0.1986 0.9256
vn -0.7744 -0.2975 0.5584
vn -0.9874 -0.1570 0.0217
vn -0.7877 -0.2778 -0.5499
vn -0.3064 -0.2383 -0.9216
vn 0.3640 -0.1948 -0.9108
vn 0.8086 -0.2609 -0.5273
vn 0.6350 -0.6337 0.4417
vn 0.7450 -0.6622 -0.0803
vn 0.2482 -0.6495 0.7187
vn -0.2388 -0.6185 0.7486
vn -0.6386 -0.6155 0.4620
vn -0.7837 -0.6211 -0.0030
vn -0.5575 -0.6651 -0.4967
vn -0.2394 -0.6495 -0.7217
vn 0.2114 -0.6169 -0.7581
vn 0.6117 -0.6787 -0.4066
vn 0.5326 -0.8463 -0.0071
vn 0.4186 -0.8902 0.1799
vn 0.1513 -0.8601 0.4871
vn -0.1065 -0.9008 0.4209
vn -0.3968 -0.8825 0.2525
vn -0.5077 -0.8597 -0.0568
vn -0.3270 -0.9125 -0.2459
vn -0.1774 -0.8419 -0.5096
vn 0.1797 -0.8777 -0.4443
vn 0.4342 -0.8887 -0.1475
vn 0.0013 -0.9999 -0.0114
o Tree
g Tree
usemtl MI_Palette
f 1/1/1 2/1/2 3/1/2 4/1/1
f 2/1/2 5/1/3 6/1/3 3/1/2
f 5/1/3 7/1/4 8/1/4 6/1/3
f 7/1/4 9/1/5 10/1/5 8/1/4
f 9/1/5 11/1/6 12/1/6 10/1/5
f 11/1/6 13/1/7 14/1/7 12/1/6
f 13/1/7 15/1/8 16/1/8 14/1/7
f 15/1/8 1/1/1 4/1/1 16/1/8
f 17/2/9 18/2/10 19/2/11
f 17/2/9 20/2/12 18/2/10
f 17/2/9 21/2/13 20/2/12
f 17/2/9 22/2/14 21/2/13
f 17/2/9 23/2/15 22/2/14
f 17/2/9 24/2/16 23/2/15
f 17/2/9 25/2/17 24/2/16
f 17/2/9 26/2/18 25/2/17
f 17/2/9 27/2/19 26/2/18
f 17/2/9 19/2/11 27/2/19
f 19/2/11 18/2/10 28/2/20
f 19/2/11 28/2/20 29/2/21
f 18/2/10 20/2/12 28/2/20
f 20/2/12 30/2/22 28/2/20
f 20/2/12 21/2/13 30/2/22
f 21/2/13 31/2/23 30/2/22
f 21/2/13 22/2/14 31/2/23
f 22/2/14 32/2/24 31/2/23
f 22/2/14 23/2/15 33/2/25
f 22/2/14 33/2/25 32/2/24
f 23/2/15 24/2/16 34/2/26
f 23/2/15 34/2/26 33/2/25
f 24/2/16 25/2/17 35/2/27
f 24/2/16 35/2/27 34/2/26
f 25/2/17 26/2/18 35/2/27
f 26/2/18 36/2/28 35/2/27
f 26/2/18 27/2/19 36/2/28
f 27/2/19 37/2/29 36/2/28
f 27/2/19 19/2/11 29/2/21
f 27/2/19 29/2/21 37/2/29
f 29/2/21 28/2/20 38/2/30
f 28/2/20 39/2/31 38/2/30
f 28/2/20 30/2/22 39/2/31
f 30/2/22 40/2/32 39/2/31
f 30/2/22 31/2/23 41/2/33
f 30/2/22 41/2/33 40/2/32
f 31/2/23 32/2/24 42/2/34
f 31/2/23 42/2/34 41/2/33
f 32/2/24 33/2/25 42/2/34
f 33/2/25 43/2/35 42/2/34
f 33/2/25 34/2/26 44/2/36
f 33/2/25 44/2/36 43/2/35
f 34/2/26 35/2/27 44/2/36
f 35/2/27 45/2/37 44/2/36
f 35/2/27 36/2/28 45/2/37
f 36/2/28 46/2/38 45/2/37
f 36/2/28 37/2/29 47/2/39
f 36/2/28 47/2/39 46/2/38
f 37/2/29 29/2/21 47/2/39
f 29/2/21 38/2/30 47/2/39
f 38/2/30 39/2/31 48/2/40
f 39/2/31 49/2/41 48/2/40
f 39/2/31 40/2/32 50/2/42
f 39/2/31 50/2/42 49/2/41
f 40/2/32 41/2/33 51/2/43
f 40/2/32 51/2/43 50/2/42
f 41/2/33 42/2/34 51/2/43
f 42/2/34 52/2/44 51/2/43
f 42/2/34 43/2/35 53/2/45
f 42/2/34 53/2/45 52/2/44
f 43/2/35 44/2/36 53/2/45
f 44/2/36 54/2/46 53/2/45
f 44/2/36 45/2/37 55/2/47
f 44/2/36 55/2/47 54/2/46
f 45/2/37 46/2/38 56/2/48
f 45/2/37 56/2/48 55/2/47
f 46/2/38 47/2/39 56/2/48
f 47/2/39 57/2/49 56/2/48
f 47/2/39 38/2/30 48/2/40
f 47/2/39 48/2/40 57/2/49
f 48/2/40 49/2/41 58/2/50
f 48/2/40 58/2/50 59/2/51
f 49/2/41 50/2/42 60/2/52
f 49/2/41 60/2/52 58/2/50
f 50/2/42 51/2/43 60/2/52
f 51/2/43 61/2/53 60/2/52
f 51/2/43 52/2/44 62/2/54
f 51/2/43 62/2/54 61/2/53
f 52/2/44 53/2/45 62/2/54
f 53/2/45 63/2/55 62/2/54
f 53/2/45 54/2/46 63/2/55
f 54/2/46 64/2/56 63/2/55
f 54/2/46 55/2/47 65/2/57
f 54/2/46 65/2/57 64/2/56
f 55/2/47 56/2/48 65/2/57
f 56/2/48 66/2/58 65/2/57
f 56/2/48 57/2/49 67/2/59
f 56/2/48 67/2/59 66/2/58
f 57/2/49 48/2/40 67/2/59
f 48/2/40 59/2/51 67/2/59
f 59/2/51 58/2/50 68/2/60
f 59/2/51 68/2/60 69/2/61
f 58/2/50 60/2/52 68/2/60
f 60/2/52 70/2/62 68/2/60
f 60/2/52 61/2/53 71/2/63
f 60/2/52 71/2/63 70/2/62
f 61/2/53 62/2/54 71/2/63
f 62/2/54 72/2/64 71/2/63
f 62/2/54 63/2/55 73/2/65
f 62/2/54 73/2/65 72/2/64
f 63/2/55 64/2/56 74/2/66
f 63/2/55 74/2/66 73/2/65
f 64/2/56 65/2/57 74/2/66
f 65/2/57 75/2/67 74/2/66
f 65/2/57 66/2/58 75/2/67
f 66/2/58 76/2/68 75/2/67
f 66/2/58 67/2/59 76/2/68
f 67/2/59 77/2/69 76/2/68
f 67/2/59 59/2/51 69/2/61
f 67/2/59 69/2/61 77/2/69
f 69/2/61 68/2/60 78/2/70
f 68/2/60 70/2/62 78/2/70
f 70/2/62 71/2/63 78/2/70
f 71/2/63 72/2/64 78/2/70
f 72/2/64 73/2/65 78/2/70
f 73/2/65 74/2/66 78/2/70
f 74/2/66 75/2/67 78/2/70
f 75/2/67 76/2/68 78/2/70
f 76/2/68 77/2/69 78/2/70
f 77/2/69 69/2/61 78/2/70
f 79/2/71 80/2/72 81/2/73
f 79/2/71 82/2/74 80/2/72
f 79/2/71 83/2/75 82/2/74
f 79/2/71 84/2/76 83/2/75
f 79/2/71 85/2/77 84/2/76
f 79/2/71 86/2/78 85/2/77
f 79/2/71 87/2/79 86/2/78
f 79/2/71 88/2/80 87/2/79
f 79/2/71 89/2/81 88/2/80
f 79/2/71 81/2/73 89/2/81
f 81/2/73 80/2/72 90/2/82
f 80/2/72 91/2/83 90/2/82
f 80/2/72 82/2/74 91/2/83
f 82/2/74 92/2/84 91/2/83
f 82/2/74 83/2/75 93/2/85
f 82/2/74 93/2/85 92/2/84
f 83/2/75 84/2/76 94/2/86
f 83/2/75 94/2/86 93/2/85
f 84/2/76 85/2/77 94/2/86
f 85/2/77 95/2/87 94/2/86
f 85/2/77 86/2/78 96/2/88
f 85/2/77 96/2/88 95/2/87
f 86/2/78 87/2/79 96/2/88
f 87/2/79 97/2/89 96/2/88
f 87/2/79 88/2/80 98/2/90
f 87/2/79 98/2/90 97/2/89
f 88/2/80 89/2/81 98/2/90
f 89/2/81 99/2/91 98/2/90
f 89/2/81 81/2/73 90/2/82
f 89/2/81 90/2/82 99/2/91
f 90/2/82 91/2/83 100/2/92
f 91/2/83 101/2/93 100/2/92
f 91/2/83 92/2/84 102/2/94
f 91/2/83 102/2/94 101/2/93
f 92/2/84 93/2/85 102/2/94
f 93/2/85 103/2/95 102/2/94
f 93/2/85 94/2/86 103/2/95
f 94/2/86 104/2/96 103/2/95
f 94/2/86 95/2/87 105/2/97
f 94/2/86 105/2/97 104/2/96
f 95/2/87 96/2/88 105/2/97
f 96/2/88 106/2/98 105/2/97
f 96/2/88 97/2/89 107/2/99
f 96/2/88 107/2/99 106/2/98
f 97/2/89 98/2/90 107/2/99
f 98/2/90 108/2/100 107/2/99
f 98/2/90 99/2/91 109/2/101
f 98/2/90 109/2/101 108/2/100
f 99/2/91 90/2/82 100/2/92
f 99/2/91 100/2/92 109/2/101
f 100/2/92 101/2/93 110/2/102
f 100/2/92 110/2/102 111/2/103
f 101/2/93 102/2/94 110/2/102
f 102/2/94 112/2/104 110/2/102
f 102/2/94 103/2/95 113/2/105
f 102/2/94 113/2/105 112/2/104
f 103/2/95 104/2/96 113/2/105
f 104/2/96 114/2/106 113/2/105
f 104/2/96 105/2/97 115/2/107
f 104/2/96 115/2/107 114/2/106
f 105/2/97 106/2/98 115/2/107
f 106/2/98 116/2/108 115/2/107
f 106/2/98 107/2/99 117/2/109
f 106/2/98 117/2/109 116/2/108
f 107/2/99 108/2/100 118/2/110
f 107/2/99 118/2/110 117/2/109
f 108/2/100 109/2/101 118/2/110
f 109/2/101 119/2/111 118/2/110
f 109/2/101 100/2/92 119/2/111
f 100/2/92 111/2/103 119/2/111
f 111/2/103 110/2/102 120/2/112
f 110/2/102 121/2/113 120/2/112
f 110/2/102 112/2/104 121/2/113
f 112/2/104 122/2/114 121/2/113
f 112/2/104 113/2/105 122/2/114
f 113/2/105 123/2/115 122/2/114
f 113/2/105 114/2/106 124/2/116
f 113/2/105 124/2/116 123/2/115
f 114/2/106 115/2/107 124/2/116
f 115/2/107 125/2/117 124/2/116
f 115/2/107 116/2/108 126/2/118
f 115/2/107 126/2/118 125/2/117
f 116/2/108 117/2/109 126/2/118
f 117/2/109 127/2/119 126/2/118
f 117/2/109 118/2/110 128/2/120
f 117/2/109 128/2/120 127/2/119
f 118/2/110 119/2/111 129/2/121
f 118/2/110 129/2/121 128/2/120
f 119/2/111 111/2/103 120/2/112
f 119/2/111 120/2/112 129/2/121
f 120/2/112 121/2/113 130/2/122
f 121/2/113 131/2/123 130/2/122
f 121/2/113 122/2/114 132/2/124
f 121/2/113 132/2/124 131/2/123
f 122/2/114 123/2/115 133/2/125
f 122/2/114 133/2/125 132/2/124
f 123/2/115 124/2/116 133/2/125
f 124/2/116 134/2/126 133/2/125
f 124/2/116 125/2/117 135/2/127
f 124/2/116 135/2/127 134/2/126
f 125/2/117 126/2/118 135/2/127
f 126/2/118 136/2/128 135/2/127
f 126/2/118 127/2/119 137/2/129
f 126/2/118 137/2/129 136/2/128
f 127/2/119 128/2/120 137/2/129
f 128/2/120 138/2/130 137/2/129
f 128/2/120 129/2/121 138/2/130
f 129/2/121 139/2/131 138/2/130
f 129/2/121 120/2/112 130/2/122
f 129/2/121 130/2/122 139/2/131
f 130/2/122 131/2/123 140/2/132
f 131/2/123 132/2/124 140/2/132
f 132/2/124 133/2/125 140/2/132
f 133/2/125 134/2/126 140/2/132
f 134/2/126 135/2/127 140/2/132
f 135/2/127 136/2/128 140/2/132
f 136/2/128 137/2/129 140/2/132
f 137/2/129 138/2/130 140/2/132
f 138/2/130 139/2/131 140/2/132
f 139/2/131 130/2/122 140/2/132
f 141/2/133 142/2/134 143/2/135
f 141/2/133 144/2/136 142/2/134
f 141/2/133 145/2/137 144/2/136
f 141/2/133 146/2/138 145/2/137
f 141/2/133 147/2/139 146/2/138
f 141/2/133 148/2/140 147/2/139
f 141/2/133 149/2/141 148/2/140
f 141/2/133 150/2/142 149/2/141
f 141/2/133 151/2/143 150/2/142
f 141/2/133 143/2/135 151/2/143
f 143/2/135 142/2/134 152/2/144
f 142/2/134 153/2/145 152/2/144
f 142/2/134 144/2/136 154/2/146
f 142/2/134 154/2/146 153/2/145
f 144/2/136 145/2/137 155/2/147
f 144/2/136 155/2/147 154/2/146
f 145/2/137 146/2/138 155/2/147
f 146/2/138 156/2/148 155/2/147
f 146/2/138 147/2/139 157/2/149
f 146/2/138 157/2/149 156/2/148
f 147/2/139 148/2/140 157/2/149
f 148/2/140 158/2/150 157/2/149
f 148/2/140 149/2/141 158/2/150
f 149/2/141 159/2/151 158/2/150
f 149/2/141 150/2/142 160/2/152
f 149/2/141 160/2/152 159/2/151
f 150/2/142 151/2/143 160/2/152
f 151/2/143 161/2/153 160/2/152
f 151/2/143 143/2/135 152/2/144
f 151/2/143 152/2/144 161/2/153
f 152/2/144 153/2/145 162/2/154
f 152/2/144 162/2/154 163/2/155
f 153/2/145 154/2/146 162/2/154
f 154/2/146 164/2/156 162/2/154
f 154/2/146 155/2/147 164/2/156
f 155/2/147 165/2/157 164/2/156
f 155/2/147 156/2/148 166/2/158
f 155/2/147 166/2/158 165/2/157
f 156/2/148 157/2/149 166/2/158
f 157/2/149 167/2/159 166/2/158
f 157/2/149 158/2/150 168/2/160
f 157/2/149 168/2/160 167/2/159
f 158/2/150 159/2/151 168/2/160
f 159/2/151 169/2/161 168/2/160
f 159/2/151 160/2/152 169/2/161
f 160/2/152 170/2/162 169/2/161
f 160/2/152 161/2/153 171/2/163
f 160/2/152 171/2/163 170/2/162
f 161/2/153 152/2/144 171/2/163
f 152/2/144 163/2/155 171/2/163
f 163/2/155 162/2/154 172/2/164
f 162/2/154 173/2/165 172/2/164
f 162/2/154 164/2/156 174/2/166
f 162/2/154 174/2/166 173/2/165
f 164/2/156 165/2/157 175/2/167
f 164/2/156 175/2/167 174/2/166
f 165/2/157 166/2/158 175/2/167
f 166/2/158 176/2/168 175/2/167
f 166/2/158 167/2/159 177/2/169
f 166/2/158 177/2/169 176/2/168
f 167/2/159 168/2/160 177/2/169
f 168/2/160 178/2/170 177/2/169
f 168/2/160 169/2/161 179/2/171
f 168/2/160 179/2/171 178/2/170
f 169/2/161 170/2/162 179/2/171
f 170/2/162 180/2/172 179/2/171
f 170/2/162 171/2/163 180/2/172
f 171/2/163 181/2/173 180/2/172
f 171/2/163 163/2/155 181/2/173
f 163/2/155 172/2/164 181/2/173
f 172/2/164 173/2/165 182/2/174
f 172/2/164 182/2/174 183/2/175
f 173/2/165 174/2/166 182/2/174
f 174/2/166 184/2/176 182/2/174
f 174/2/166 175/2/167 185/2/177
f 174/2/166 185/2/177 184/2/176
f 175/2/167 176/2/168 185/2/177
f 176/2/168 186/2/178 185/2/177
f 176/2/168 177/2/169 187/2/179
f 176/2/168 187/2/179 186/2/178
f 177/2/169 178/2/170 187/2/179
f 178/2/170 188/2/180 187/2/179
f 178/2/170 179/2/171 188/2/180
f 179/2/171 189/2/181 188/2/180
f 179/2/171 180/2/172 190/2/182
f 179/2/171 190/2/182 189/2/181
f 180/2/172 181/2/173 190/2/182
f 181/2/173 191/2/183 190/2/182
f 181/2/173 172/2/164 183/2/175
f 181/2/173 183/2/175 191/2/183
f 183/2/175 182/2/174 192/2/184
f 182/2/174 193/2/185 192/2/184
f 182/2/174 184/2/176 194/2/186
f 182/2/174 194/2/186 193/2/185
f 184/2/176 185/2/177 194/2/186
f 185/2/177 195/2/187 194/2/186
f 185/2/177 186/2/178 196/2/188
f 185/2/177 196/2/188 195/2/187
f 186/2/178 187/2/179 196/2/188
f 187/2/179 197/2/189 196/2/188
f 187/2/179 188/2/180 197/2/189
f 188/2/180 198/2/190 197/2/189
f 188/2/180 189/2/181 199/2/191
f 188/2/180 199/2/191 198/2/190
f 189/2/181 190/2/182 199/2/191
f 190/2/182 200/2/192 199/2/191
f 190/2/182 191/2/183 200/2/192
f 191/2/183 201/2/193 200/2/192
f 191/2/183 183/2/175 192/2/184
f 191/2/183 192/2/184 201/2/193
f 192/2/184 193/2/185 202/2/194
f 193/2/185 194/2/186 202/2/194
f 194/2/186 195/2/187 202/2/194
f 195/2/187 196/2/188 202/2/194
f 196/2/188 197/2/189 202/2/194
f 197/2/189 198/2/190 202/2/194
f 198/2/190 199/2/191 202/2/194
f 199/2/191 200/2/192 202/2/194
f 200/2/192 201/2/193 202/2/194
f 201/2/193 192/2/184 202/2/194
