# Cook No Evil! · sokak modelleri
# CK-04 · Üst kat 3 m
# Pivot: Kendi tabanı (dünyada Y 4,00), ön yüz, sol kenar
# birim m · Y yukarı · ön +Z · üçgen 14
mtllib CNE_Sokak.mtl
v 0.00000 0.00000 0.00000
v 3.00000 0.00000 0.00000
v 3.00000 3.50000 0.00000
v 0.00000 3.50000 0.00000
v 0.00000 3.50000 0.10000
v 0.00000 3.60000 0.10000
v 0.00000 3.60000 0.00000
v 3.00000 3.60000 0.00000
v 3.00000 3.60000 0.10000
v 3.00000 3.50000 0.10000
v 1.00000 0.75000 0.01000
v 2.00000 0.75000 0.01000
v 2.00000 2.75000 0.01000
v 1.00000 2.75000 0.01000
vt 0.500000 0.500000
vt 0.000000 0.000000
vt 0.500000 0.000000
vt 0.500000 1.000000
vt 0.000000 1.000000
vn 0.0000 0.0000 1.0000
vn -1.0000 0.0000 0.0000
vn 1.0000 0.0000 0.0000
vn 0.0000 -1.0000 0.0000
vn 0.0000 1.0000 0.0000
o UpperFloor
g UpperFloor
usemtl MI_Arch_Cephe
f 1/1/1 2/1/1 3/1/1 4/1/1
usemtl MI_Arch_Bordur
f 4/1/2 5/1/2 6/1/2 7/1/2
f 8/1/3 9/1/3 10/1/3 3/1/3
f 4/1/4 3/1/4 10/1/4 5/1/4
f 6/1/5 9/1/5 8/1/5 7/1/5
f 5/1/1 10/1/1 9/1/1 6/1/1
usemtl MI_Ext_Windows
f 11/2/1 12/3/1 13/4/1 14/5/1
