# Cook No Evil! · sokak modelleri
# AR-03 · Kamyonet (gövde + cam)
# Pivot: Taban ortası, ön +Z
# birim m · Y yukarı · ön +Z · üçgen 656
mtllib CNE_Sokak.mtl
v 0.87000 0.40000 -2.50000
v 0.92000 0.45000 -2.50000
v 0.97000 0.37000 -2.40000
v 0.92000 0.32000 -2.40000
v 0.92000 1.98000 -2.50000
v 0.97000 2.02000 -2.40000
v 0.87314 2.09314 -2.50000
v 0.91728 2.14728 -2.40000
v 0.76000 2.14000 -2.50000
v 0.79000 2.20000 -2.40000
v 0.46000 2.14000 -2.50000
v 0.48500 2.20000 -2.40000
v 0.00000 2.14000 -2.50000
v 0.00000 2.20000 -2.40000
v -0.46000 2.14000 -2.50000
v -0.48500 2.20000 -2.40000
v -0.76000 2.14000 -2.50000
v -0.79000 2.20000 -2.40000
v -0.87314 2.09314 -2.50000
v -0.91728 2.14728 -2.40000
v -0.92000 1.98000 -2.50000
v -0.97000 2.02000 -2.40000
v -0.92000 0.45000 -2.50000
v -0.97000 0.37000 -2.40000
v -0.87000 0.40000 -2.50000
v -0.92000 0.32000 -2.40000
v 0.99000 0.37000 -2.16000
v 0.94000 0.32000 -2.16000
v 0.99000 2.04000 -2.16000
v 0.93728 2.16728 -2.16000
v 0.81000 2.22000 -2.16000
v 0.49500 2.22000 -2.16000
v 0.00000 2.22000 -2.16000
v -0.49500 2.22000 -2.16000
v -0.81000 2.22000 -2.16000
v -0.93728 2.16728 -2.16000
v -0.99000 2.04000 -2.16000
v -0.99000 0.37000 -2.16000
v -0.94000 0.32000 -2.16000
v 0.99000 0.67984 -2.04000
v 0.94000 0.62984 -2.04000
v 0.99000 2.04000 -2.04000
v 0.93728 2.16728 -2.04000
v 0.81000 2.22000 -2.04000
v 0.49500 2.22000 -2.04000
v 0.00000 2.22000 -2.04000
v -0.49500 2.22000 -2.04000
v -0.81000 2.22000 -2.04000
v -0.93728 2.16728 -2.04000
v -0.99000 2.04000 -2.04000
v -0.99000 0.67984 -2.04000
v -0.94000 0.62984 -2.04000
v 0.99000 0.79332 -1.88000
v 0.94000 0.74332 -1.88000
v 0.99000 2.04000 -1.88000
v 0.93728 2.16728 -1.88000
v 0.81000 2.22000 -1.88000
v 0.49500 2.22000 -1.88000
v 0.00000 2.22000 -1.88000
v -0.49500 2.22000 -1.88000
v -0.81000 2.22000 -1.88000
v -0.93728 2.16728 -1.88000
v -0.99000 2.04000 -1.88000
v -0.99000 0.79332 -1.88000
v -0.94000 0.74332 -1.88000
v 0.99000 0.83000 -1.70000
v 0.94000 0.78000 -1.70000
v 0.99000 2.04000 -1.70000
v 0.93728 2.16728 -1.70000
v 0.81000 2.22000 -1.70000
v 0.49500 2.22000 -1.70000
v 0.00000 2.22000 -1.70000
v -0.49500 2.22000 -1.70000
v -0.81000 2.22000 -1.70000
v -0.93728 2.16728 -1.70000
v -0.99000 2.04000 -1.70000
v -0.99000 0.83000 -1.70000
v -0.94000 0.78000 -1.70000
v 0.99000 0.79332 -1.52000
v 0.94000 0.74332 -1.52000
v 0.99000 2.04000 -1.52000
v 0.93728 2.16728 -1.52000
v 0.81000 2.22000 -1.52000
v 0.49500 2.22000 -1.52000
v 0.00000 2.22000 -1.52000
v -0.49500 2.22000 -1.52000
v -0.81000 2.22000 -1.52000
v -0.93728 2.16728 -1.52000
v -0.99000 2.04000 -1.52000
v -0.99000 0.79332 -1.52000
v -0.94000 0.74332 -1.52000
v 0.99000 0.67984 -1.36000
v 0.94000 0.62984 -1.36000
v 0.99000 2.04000 -1.36000
v 0.93728 2.16728 -1.36000
v 0.81000 2.22000 -1.36000
v 0.49500 2.22000 -1.36000
v 0.00000 2.22000 -1.36000
v -0.49500 2.22000 -1.36000
v -0.81000 2.22000 -1.36000
v -0.93728 2.16728 -1.36000
v -0.99000 2.04000 -1.36000
v -0.99000 0.67984 -1.36000
v -0.94000 0.62984 -1.36000
v 0.99000 0.37000 -1.24000
v 0.94000 0.32000 -1.24000
v 0.99000 2.04000 -1.24000
v 0.93728 2.16728 -1.24000
v 0.81000 2.22000 -1.24000
v 0.49500 2.22000 -1.24000
v 0.00000 2.22000 -1.24000
v -0.49500 2.22000 -1.24000
v -0.81000 2.22000 -1.24000
v -0.93728 2.16728 -1.24000
v -0.99000 2.04000 -1.24000
v -0.99000 0.37000 -1.24000
v -0.94000 0.32000 -1.24000
v 0.99000 0.37000 -0.60000
v 0.94000 0.32000 -0.60000
v 0.99000 2.04000 -0.60000
v 0.93728 2.16728 -0.60000
v 0.81000 2.22000 -0.60000
v 0.49500 2.22000 -0.60000
v 0.00000 2.22000 -0.60000
v -0.49500 2.22000 -0.60000
v -0.81000 2.22000 -0.60000
v -0.93728 2.16728 -0.60000
v -0.99000 2.04000 -0.60000
v -0.99000 0.37000 -0.60000
v -0.94000 0.32000 -0.60000
v 0.99000 0.37000 0.60000
v 0.94000 0.32000 0.60000
v 0.99000 2.04000 0.60000
v 0.93728 2.16728 0.60000
v 0.81000 2.22000 0.60000
v 0.49500 2.22000 0.60000
v 0.00000 2.22000 0.60000
v -0.49500 2.22000 0.60000
v -0.81000 2.22000 0.60000
v -0.93728 2.16728 0.60000
v -0.99000 2.04000 0.60000
v -0.99000 0.37000 0.60000
v -0.94000 0.32000 0.60000
v 0.99000 0.37000 1.24000
v 0.94000 0.32000 1.24000
v 0.99000 2.02000 1.24000
v 0.93728 2.14728 1.24000
v 0.81000 2.20000 1.24000
v 0.49500 2.20000 1.24000
v 0.00000 2.20000 1.24000
v -0.49500 2.20000 1.24000
v -0.81000 2.20000 1.24000
v -0.93728 2.14728 1.24000
v -0.99000 2.02000 1.24000
v -0.99000 0.37000 1.24000
v -0.94000 0.32000 1.24000
v 0.99000 0.67984 1.36000
v 0.94000 0.62984 1.36000
v 0.99000 1.93000 1.36000
v 0.94021 2.05021 1.36000
v 0.82000 2.10000 1.36000
v 0.49500 2.10000 1.36000
v 0.00000 2.10000 1.36000
v -0.49500 2.10000 1.36000
v -0.82000 2.10000 1.36000
v -0.94021 2.05021 1.36000
v -0.99000 1.93000 1.36000
v -0.99000 0.67984 1.36000
v -0.94000 0.62984 1.36000
v 0.99000 0.78425 1.50000
v 0.94000 0.73425 1.50000
v 0.99000 1.81000 1.50000
v 0.94021 1.93021 1.50000
v 0.82000 1.98000 1.50000
v 0.49500 1.98000 1.50000
v 0.00000 1.98000 1.50000
v -0.49500 1.98000 1.50000
v -0.82000 1.98000 1.50000
v -0.94021 1.93021 1.50000
v -0.99000 1.81000 1.50000
v -0.99000 0.78425 1.50000
v -0.94000 0.73425 1.50000
v 0.99000 0.80128 1.86000
v 0.94000 0.75128 1.86000
v 0.99000 1.19000 1.86000
v 0.94021 1.31021 1.86000
v 0.82000 1.36000 1.86000
v 0.49500 1.36000 1.86000
v 0.00000 1.36000 1.86000
v -0.49500 1.36000 1.86000
v -0.82000 1.36000 1.86000
v -0.94021 1.31021 1.86000
v -0.99000 1.19000 1.86000
v -0.99000 0.80128 1.86000
v -0.94000 0.75128 1.86000
v 0.98000 0.67984 2.04000
v 0.93000 0.62984 2.04000
v 0.98000 1.04000 2.04000
v 0.93607 1.14607 2.04000
v 0.83000 1.19000 2.04000
v 0.49000 1.19000 2.04000
v 0.00000 1.17000 2.04000
v -0.49000 1.19000 2.04000
v -0.83000 1.19000 2.04000
v -0.93607 1.14607 2.04000
v -0.98000 1.04000 2.04000
v -0.98000 0.67984 2.04000
v -0.93000 0.62984 2.04000
v 0.97500 0.37000 2.16000
v 0.92500 0.32000 2.16000
v 0.97500 1.00000 2.16000
v 0.93107 1.10607 2.16000
v 0.82500 1.15000 2.16000
v 0.48750 1.15000 2.16000
v 0.00000 1.12000 2.16000
v -0.48750 1.15000 2.16000
v -0.82500 1.15000 2.16000
v -0.93107 1.10607 2.16000
v -0.97500 1.00000 2.16000
v -0.97500 0.37000 2.16000
v -0.92500 0.32000 2.16000
v 0.96000 0.37000 2.30000
v 0.91000 0.32000 2.30000
v 0.96000 0.96000 2.30000
v 0.91899 1.05899 2.30000
v 0.82000 1.10000 2.30000
v 0.48000 1.10000 2.30000
v 0.00000 1.06000 2.30000
v -0.48000 1.10000 2.30000
v -0.82000 1.10000 2.30000
v -0.91899 1.05899 2.30000
v -0.96000 0.96000 2.30000
v -0.96000 0.37000 2.30000
v -0.91000 0.32000 2.30000
v 0.92000 0.43000 2.44000
v 0.87000 0.38000 2.44000
v 0.92000 0.90000 2.44000
v 0.88485 0.98485 2.44000
v 0.80000 1.02000 2.44000
v 0.46000 1.02000 2.44000
v 0.00000 0.98000 2.44000
v -0.46000 1.02000 2.44000
v -0.80000 1.02000 2.44000
v -0.88485 0.98485 2.44000
v -0.92000 0.90000 2.44000
v -0.92000 0.43000 2.44000
v -0.87000 0.38000 2.44000
v 0.84000 0.52000 2.50000
v 0.79000 0.47000 2.50000
v 0.84000 0.82000 2.50000
v 0.81071 0.89071 2.50000
v 0.74000 0.92000 2.50000
v 0.42000 0.92000 2.50000
v 0.00000 0.90000 2.50000
v -0.42000 0.92000 2.50000
v -0.74000 0.92000 2.50000
v -0.81071 0.89071 2.50000
v -0.84000 0.82000 2.50000
v -0.84000 0.52000 2.50000
v -0.79000 0.47000 2.50000
v -0.32000 0.58000 2.50600
v 0.32000 0.58000 2.50600
v 0.32000 0.79000 2.50600
v -0.32000 0.79000 2.50600
v 0.69853 0.76747 2.54000
v 0.65253 0.72147 2.54000
v 0.65253 0.72147 2.47000
v 0.69853 0.76747 2.47000
v 0.58747 0.72147 2.54000
v 0.58747 0.72147 2.47000
v 0.54147 0.76747 2.54000
v 0.54147 0.76747 2.47000
v 0.54147 0.83253 2.54000
v 0.54147 0.83253 2.47000
v 0.58747 0.87853 2.54000
v 0.58747 0.87853 2.47000
v 0.65253 0.87853 2.54000
v 0.65253 0.87853 2.47000
v 0.69853 0.83253 2.54000
v 0.69853 0.83253 2.47000
v 0.78000 1.10000 -2.50300
v 0.88000 1.10000 -2.50300
v 0.88000 0.70000 -2.50300
v 0.78000 0.70000 -2.50300
v -0.54147 0.76747 2.54000
v -0.58747 0.72147 2.54000
v -0.58747 0.72147 2.47000
v -0.54147 0.76747 2.47000
v -0.65253 0.72147 2.54000
v -0.65253 0.72147 2.47000
v -0.69853 0.76747 2.54000
v -0.69853 0.76747 2.47000
v -0.69853 0.83253 2.54000
v -0.69853 0.83253 2.47000
v -0.65253 0.87853 2.54000
v -0.65253 0.87853 2.47000
v -0.58747 0.87853 2.54000
v -0.58747 0.87853 2.47000
v -0.54147 0.83253 2.54000
v -0.54147 0.83253 2.47000
v -0.88000 1.10000 -2.50300
v -0.78000 1.10000 -2.50300
v -0.78000 0.70000 -2.50300
v -0.88000 0.70000 -2.50300
v 0.64000 0.32000 1.24000
v 0.64000 0.55000 1.30163
v 0.64000 0.71837 1.47000
v 0.64000 0.78000 1.70000
v 0.64000 0.71837 1.93000
v 0.64000 0.55000 2.09837
v 0.64000 0.32000 2.16000
v -0.64000 0.32000 2.16000
v -0.64000 0.55000 2.09837
v -0.64000 0.71837 1.93000
v -0.64000 0.78000 1.70000
v -0.64000 0.71837 1.47000
v -0.64000 0.55000 1.30163
v -0.64000 0.32000 1.24000
v 0.64000 0.32000 -2.16000
v 0.64000 0.55000 -2.09837
v 0.64000 0.71837 -1.93000
v 0.64000 0.78000 -1.70000
v 0.64000 0.71837 -1.47000
v 0.64000 0.55000 -1.30163
v 0.64000 0.32000 -1.24000
v -0.64000 0.32000 -1.24000
v -0.64000 0.55000 -1.30163
v -0.64000 0.71837 -1.47000
v -0.64000 0.78000 -1.70000
v -0.64000 0.71837 -1.93000
v -0.64000 0.55000 -2.09837
v -0.64000 0.32000 -2.16000
v -0.97000 0.38000 2.24000
v -0.93000 0.38000 2.57000
v -0.93000 0.52000 2.57000
v -0.97000 0.52000 2.24000
v 0.93000 0.38000 2.57000
v 0.93000 0.52000 2.57000
v 0.97000 0.38000 2.24000
v 0.97000 0.52000 2.24000
v 0.90000 0.38000 2.24000
v 0.90000 0.52000 2.24000
v 0.86000 0.38000 2.49000
v 0.86000 0.52000 2.49000
v -0.86000 0.38000 2.49000
v -0.86000 0.52000 2.49000
v -0.90000 0.38000 2.24000
v -0.90000 0.52000 2.24000
v -0.95000 0.52000 -2.24000
v -0.91000 0.52000 -2.56000
v -0.91000 0.40000 -2.56000
v -0.95000 0.40000 -2.24000
v 0.91000 0.52000 -2.56000
v 0.91000 0.40000 -2.56000
v 0.95000 0.52000 -2.24000
v 0.95000 0.40000 -2.24000
v 0.88000 0.52000 -2.24000
v 0.88000 0.40000 -2.24000
v 0.84000 0.52000 -2.48000
v 0.84000 0.40000 -2.48000
v -0.84000 0.52000 -2.48000
v -0.84000 0.40000 -2.48000
v -0.88000 0.52000 -2.24000
v -0.88000 0.40000 -2.24000
v -0.36000 0.55000 2.50200
v 0.36000 0.55000 2.50200
v 0.36000 0.82000 2.50200
v -0.36000 0.82000 2.50200
v 0.03500 1.42401 1.82746
v 0.75000 1.42401 1.82746
v 0.75000 1.92001 1.53946
v 0.03500 1.92001 1.53946
v -0.75000 1.42401 1.82746
v -0.03500 1.42401 1.82746
v -0.03500 1.92001 1.53946
v -0.75000 1.92001 1.53946
v 0.99400 1.92000 0.85000
v 0.99400 1.92000 1.30000
v 0.99400 1.32000 1.30000
v 0.99400 1.32000 0.85000
v 0.08000 1.90000 -2.50400
v 0.62000 1.90000 -2.50400
v 0.62000 1.45000 -2.50400
v 0.08000 1.45000 -2.50400
v -0.99400 1.32000 0.85000
v -0.99400 1.32000 1.30000
v -0.99400 1.92000 1.30000
v -0.99400 1.92000 0.85000
v -0.62000 1.90000 -2.50400
v -0.08000 1.90000 -2.50400
v -0.08000 1.45000 -2.50400
v -0.62000 1.45000 -2.50400
vt 0.406250 0.593750
vt 0.531250 0.656250
vt 0.031250 0.531250
vt 0.031250 0.656250
vt 0.406250 0.656250
vn 0.0211 -0.7755 -0.6310
vn 0.8853 -0.0270 -0.4642
vn 0.8931 -0.0863 -0.4415
vn 0.0686 -0.7909 -0.6081
vn 0.8899 0.0259 -0.4553
vn 0.9788 0.0288 -0.2028
vn 0.9784 -0.0290 -0.2047
vn 0.5807 0.5807 -0.5707
vn 0.6808 0.6808 -0.2704
vn 0.0989 0.8399 -0.5336
vn 0.1154 0.9639 -0.2400
vn 0.0000 0.8575 -0.5145
vn 0.0000 0.9741 -0.2259
vn 0.0000 0.9743 -0.2255
vn -0.0989 0.8399 -0.5336
vn -0.1154 0.9639 -0.2400
vn -0.5807 0.5807 -0.5707
vn -0.6808 0.6808 -0.2704
vn -0.8899 0.0259 -0.4553
vn -0.9788 0.0288 -0.2028
vn -0.8853 -0.0270 -0.4642
vn -0.9784 -0.0290 -0.2047
vn -0.0211 -0.7755 -0.6310
vn -0.0686 -0.7909 -0.6081
vn -0.8931 -0.0863 -0.4415
vn 0.0367 -0.9992 -0.0162
vn 0.9981 -0.0202 -0.0576
vn 0.0262 -0.9997 -0.0022
vn 0.9804 -0.0207 -0.1958
vn 0.9978 0.0303 -0.0587
vn 0.7049 0.7049 -0.0783
vn 0.1190 0.9910 -0.0615
vn 0.0000 0.9985 -0.0552
vn 0.0000 0.9985 -0.0553
vn -0.1190 0.9910 -0.0615
vn -0.7049 0.7049 -0.0783
vn -0.9978 0.0303 -0.0587
vn -0.9804 -0.0207 -0.1958
vn -0.9981 -0.0202 -0.0576
vn -0.0367 -0.9992 -0.0162
vn -0.0262 -0.9997 -0.0022
vn 0.0094 -0.3611 0.9325
vn 0.3397 -0.3397 0.8771
vn 0.4830 -0.4830 0.7303
vn 0.0143 -0.5516 0.8340
vn 0.9994 0.0346 0.0000
vn 1.0000 0.0000 0.0000
vn 0.7071 0.7071 0.0000
vn 0.1184 0.9930 0.0000
vn 0.0000 1.0000 0.0000
vn -0.1184 0.9930 0.0000
vn -0.7071 0.7071 0.0000
vn -0.9994 0.0346 0.0000
vn -1.0000 0.0000 0.0000
vn -0.3397 -0.3397 0.8771
vn -0.0094 -0.3611 0.9325
vn -0.0143 -0.5516 0.8340
vn -0.4830 -0.4830 0.7303
vn 0.6750 -0.6750 0.2981
vn 0.0237 -0.9145 0.4039
vn 0.9993 0.0379 0.0000
vn 0.9998 -0.0205 0.0042
vn -0.9993 0.0379 0.0000
vn -0.9998 -0.0205 0.0042
vn -0.0237 -0.9145 0.4039
vn -0.6750 -0.6750 0.2981
vn 0.9991 -0.0380 0.0168
vn 0.9992 -0.0391 0.0000
vn 0.0259 -0.9997 0.0000
vn 0.9992 0.0389 0.0000
vn -0.9992 0.0389 0.0000
vn -0.9992 -0.0391 0.0000
vn -0.9991 -0.0380 0.0168
vn -0.0259 -0.9997 0.0000
vn 0.9991 -0.0380 -0.0168
vn 0.0237 -0.9145 -0.4039
vn 0.9998 -0.0205 -0.0042
vn -0.9998 -0.0205 -0.0042
vn -0.0237 -0.9145 -0.4039
vn -0.9991 -0.0380 -0.0168
vn 0.6750 -0.6750 -0.2981
vn 0.4830 -0.4830 -0.7303
vn 0.0143 -0.5516 -0.8340
vn -0.6750 -0.6750 -0.2981
vn -0.0143 -0.5516 -0.8340
vn -0.4830 -0.4830 -0.7303
vn 0.3397 -0.3397 -0.8771
vn 0.0094 -0.3611 -0.9325
vn 0.9996 0.0297 0.0000
vn 0.9997 -0.0249 -0.0000
vn -0.9996 0.0297 0.0000
vn -0.9997 -0.0249 -0.0000
vn -0.0094 -0.3611 -0.9325
vn -0.3397 -0.3397 -0.8771
vn 0.9996 -0.0291 -0.0000
vn 0.9996 0.0293 0.0000
vn -0.9996 0.0293 0.0000
vn -0.9996 -0.0291 -0.0000
vn 0.9996 0.0294 0.0003
vn 0.7071 0.7071 0.0077
vn 0.1184 0.9929 0.0108
vn 0.0000 0.9999 0.0109
vn -0.1184 0.9929 0.0108
vn -0.7071 0.7071 0.0077
vn -0.9996 0.0294 0.0003
vn 0.9997 -0.0252 0.0000
vn 0.9995 0.0299 0.0043
vn 0.7304 0.6815 0.0461
vn 0.1164 0.9812 0.1538
vn 0.7033 0.7033 0.1037
vn 0.0000 0.9877 0.1566
vn 0.0000 0.9878 0.1560
vn -0.1164 0.9812 0.1538
vn -0.7033 0.7033 0.1037
vn -0.9995 0.0299 0.0043
vn -0.7304 0.6815 0.0461
vn -0.9997 -0.0252 0.0000
vn 0.4694 -0.4694 0.7479
vn 0.0138 -0.5316 0.8469
vn 0.9989 0.0359 0.0290
vn 0.6111 0.6111 0.5030
vn 0.4650 0.8704 0.1616
vn 0.0865 0.7622 0.6416
vn 0.0000 0.7634 0.6460
vn 0.0000 0.7634 0.6459
vn -0.0865 0.7622 0.6416
vn -0.4650 0.8704 0.1616
vn -0.6111 0.6111 0.5030
vn -0.9989 0.0359 0.0290
vn -0.0138 -0.5316 0.8469
vn -0.4694 -0.4694 0.7479
vn 0.6969 -0.6969 0.1693
vn 0.0252 -0.9714 0.2359
vn 0.9956 0.0523 0.0774
vn 0.9991 -0.0416 0.0020
vn 0.7122 0.4431 0.5444
vn 0.0625 0.5588 0.8270
vn 0.4885 0.4885 0.7230
vn 0.0000 0.5599 0.8286
vn -0.0625 0.5588 0.8270
vn -0.4885 0.4885 0.7230
vn -0.9956 0.0523 0.0774
vn -0.7122 0.4431 0.5444
vn -0.9991 -0.0416 0.0020
vn -0.0252 -0.9714 0.2359
vn -0.6969 -0.6969 0.1693
vn 0.0355 -0.9979 0.0542
vn 0.9983 -0.0569 0.0138
vn 0.9970 -0.0771 -0.0028
vn 0.0383 -0.9985 0.0387
vn 0.9916 0.0678 0.1100
vn 0.4902 0.4902 0.7207
vn 0.4303 0.4926 0.7564
vn 0.0618 0.5638 0.8236
vn 0.0000 0.5499 0.8353
vn 0.0000 0.5593 0.8290
vn -0.0618 0.5638 0.8236
vn -0.4303 0.4926 0.7564
vn -0.4902 0.4902 0.7207
vn -0.9916 0.0678 0.1100
vn -0.9970 -0.0771 -0.0028
vn -0.9983 -0.0569 0.0138
vn -0.0355 -0.9979 0.0542
vn -0.0383 -0.9985 0.0387
vn 0.0625 -0.8416 -0.5365
vn 0.9953 -0.0954 -0.0167
vn 0.5047 -0.5047 -0.7004
vn 0.0348 -0.8168 -0.5759
vn 0.9985 -0.0529 0.0135
vn 0.9910 0.0850 0.1033
vn 0.9988 0.0000 0.0490
vn 0.6302 0.6302 0.4535
vn 0.0838 0.8170 0.5706
vn 0.5477 0.6675 0.5045
vn -0.0109 0.7919 0.6105
vn -0.0000 0.8320 0.5548
vn 0.0109 0.7919 0.6105
vn -0.0838 0.8170 0.5706
vn -0.5477 0.6675 0.5045
vn -0.9910 0.0850 0.1033
vn -0.6302 0.6302 0.4535
vn -0.9985 -0.0529 0.0135
vn -0.9988 0.0000 0.0490
vn -0.9953 -0.0954 -0.0167
vn -0.0625 -0.8416 -0.5365
vn -0.0348 -0.8168 -0.5759
vn -0.5047 -0.5047 -0.7004
vn 0.0150 -0.5723 -0.8199
vn 0.3439 -0.3439 -0.8737
vn 0.0095 -0.3613 -0.9324
vn 0.9930 0.0648 0.0991
vn 0.9956 -0.0459 0.0812
vn 0.7843 0.5404 0.3048
vn 0.6804 0.6804 0.2723
vn 0.0916 0.9399 0.3288
vn -0.0266 0.9415 0.3359
vn 0.0000 0.9289 0.3703
vn 0.0266 0.9415 0.3359
vn -0.0916 0.9399 0.3288
vn -0.6804 0.6804 0.2723
vn -0.7843 0.5404 0.3048
vn -0.9930 0.0648 0.0991
vn -0.9956 -0.0459 0.0812
vn -0.0150 -0.5723 -0.8199
vn -0.0095 -0.3613 -0.9324
vn -0.3439 -0.3439 -0.8737
vn 0.0265 -0.9996 0.0028
vn 0.9760 -0.0787 0.2030
vn 0.0263 -0.9770 0.2114
vn 0.9766 0.0589 0.2067
vn 0.6529 0.6529 0.3841
vn 0.0832 0.9015 0.4247
vn -0.0357 0.9095 0.4142
vn 0.0000 0.8875 0.4607
vn 0.0357 0.9095 0.4142
vn -0.0832 0.9015 0.4247
vn -0.6529 0.6529 0.3841
vn -0.9766 0.0589 0.2067
vn -0.9760 -0.0787 0.2030
vn -0.0265 -0.9996 0.0028
vn -0.0263 -0.9770 0.2114
vn 0.0488 -0.9184 0.3927
vn 0.8508 -0.0793 0.5194
vn 0.0223 -0.7992 0.6007
vn 0.8632 0.0546 0.5018
vn 0.8760 -0.0588 0.4787
vn 0.5180 0.5180 0.6807
vn 0.0629 0.7350 0.6752
vn -0.0359 0.7752 0.6307
vn -0.0000 0.7144 0.6998
vn 0.0359 0.7752 0.6307
vn -0.0629 0.7350 0.6752
vn -0.5180 0.5180 0.6807
vn -0.8632 0.0546 0.5018
vn -0.8760 -0.0588 0.4787
vn -0.0488 -0.9184 0.3927
vn -0.0223 -0.7992 0.6007
vn -0.8508 -0.0793 0.5194
vn 0.0509 -0.5575 0.8286
vn 0.5890 -0.1779 0.7883
vn 0.5521 -0.0635 0.8313
vn 0.0159 -0.5448 0.8384
vn 0.5737 0.0399 0.8181
vn 0.3184 0.3184 0.8929
vn 0.0392 0.4967 0.8670
vn -0.0210 0.5399 0.8414
vn 0.0000 0.6000 0.8000
vn 0.0210 0.5399 0.8414
vn -0.0392 0.4967 0.8670
vn -0.3184 0.3184 0.8929
vn -0.5737 0.0399 0.8181
vn -0.5521 -0.0635 0.8313
vn -0.5890 -0.1779 0.7883
vn -0.0509 -0.5575 0.8286
vn -0.0159 -0.5448 0.8384
vn 0.0000 0.0000 -1.0000
vn 0.0000 0.0000 1.0000
vn 0.0077 -0.9729 -0.2310
vn -0.0077 -0.9729 -0.2310
vn -0.0184 -0.9752 -0.2206
vn 0.0184 -0.9752 -0.2206
vn 0.0072 -0.9709 0.2394
vn -0.0072 -0.9709 0.2394
vn 0.0171 -0.9826 -0.1850
vn -0.0171 -0.9826 -0.1850
vn -0.0086 -0.9812 -0.1926
vn 0.0086 -0.9812 -0.1926
vn -0.0060 -0.5689 -0.8224
vn 0.0060 -0.5689 -0.8224
vn 0.0134 -0.9786 0.2051
vn -0.0134 -0.9786 0.2051
vn 0.0159 -0.8060 0.5917
vn -0.0159 -0.8060 0.5917
vn 0.9239 -0.3827 0.0000
vn 0.3827 -0.9239 0.0000
vn -0.3827 -0.9239 0.0000
vn -0.9239 -0.3827 0.0000
vn -0.9239 0.3827 0.0000
vn -0.3827 0.9239 0.0000
vn 0.3827 0.9239 0.0000
vn 0.9239 0.3827 0.0000
vn -0.9927 0.0000 0.1203
vn 0.9927 0.0000 0.1203
vn -0.9874 0.0000 -0.1580
vn 0.9874 0.0000 -0.1580
vn 0.0000 -1.0000 0.0000
vn -0.9923 0.0000 -0.1240
vn 0.9923 0.0000 -0.1240
vn -0.9864 0.0000 0.1644
vn 0.9864 0.0000 0.1644
vn 0.0000 0.5021 0.8648
o Body
g Body
usemtl MI_CarBody_Lila
f 1/1/1 2/1/2 3/1/3 4/1/4
f 2/1/2 5/1/5 6/1/6 3/1/7
f 5/1/5 7/1/8 8/1/9 6/1/6
f 7/1/8 9/1/10 10/1/11 8/1/9
f 9/1/10 11/1/12 12/1/13 10/1/11
f 11/1/12 13/1/12 14/1/14 12/1/13
f 13/1/12 15/1/12 16/1/13 14/1/14
f 15/1/12 17/1/15 18/1/16 16/1/13
f 17/1/15 19/1/17 20/1/18 18/1/16
f 19/1/17 21/1/19 22/1/20 20/1/18
f 21/1/19 23/1/21 24/1/22 22/1/20
f 23/1/21 25/1/23 26/1/24 24/1/25
f 4/1/26 3/1/7 27/1/27 28/1/28
f 3/1/29 6/1/6 29/1/30 27/1/27
f 6/1/6 8/1/9 30/1/31 29/1/30
f 8/1/9 10/1/11 31/1/32 30/1/31
f 10/1/11 12/1/13 32/1/33 31/1/32
f 12/1/13 14/1/14 33/1/34 32/1/33
f 14/1/14 16/1/13 34/1/33 33/1/34
f 16/1/13 18/1/16 35/1/35 34/1/33
f 18/1/16 20/1/18 36/1/36 35/1/35
f 20/1/18 22/1/20 37/1/37 36/1/36
f 22/1/20 24/1/38 38/1/39 37/1/37
f 24/1/22 26/1/40 39/1/41 38/1/39
f 28/1/42 27/1/43 40/1/44 41/1/45
f 27/1/27 29/1/30 42/1/46 40/1/47
f 29/1/30 30/1/31 43/1/48 42/1/46
f 30/1/31 31/1/32 44/1/49 43/1/48
f 31/1/32 32/1/33 45/1/50 44/1/49
f 32/1/33 33/1/34 46/1/50 45/1/50
f 33/1/34 34/1/33 47/1/50 46/1/50
f 34/1/33 35/1/35 48/1/51 47/1/50
f 35/1/35 36/1/36 49/1/52 48/1/51
f 36/1/36 37/1/37 50/1/53 49/1/52
f 37/1/37 38/1/39 51/1/54 50/1/53
f 38/1/55 39/1/56 52/1/57 51/1/58
f 41/1/45 40/1/44 53/1/59 54/1/60
f 40/1/47 42/1/46 55/1/61 53/1/62
f 42/1/46 43/1/48 56/1/48 55/1/61
f 43/1/48 44/1/49 57/1/49 56/1/48
f 44/1/49 45/1/50 58/1/50 57/1/49
f 45/1/50 46/1/50 59/1/50 58/1/50
f 46/1/50 47/1/50 60/1/50 59/1/50
f 47/1/50 48/1/51 61/1/51 60/1/50
f 48/1/51 49/1/52 62/1/52 61/1/51
f 49/1/52 50/1/53 63/1/63 62/1/52
f 50/1/53 51/1/54 64/1/64 63/1/63
f 51/1/58 52/1/57 65/1/65 64/1/66
f 54/1/60 53/1/67 66/1/68 67/1/69
f 53/1/62 55/1/61 68/1/70 66/1/68
f 55/1/61 56/1/48 69/1/48 68/1/70
f 56/1/48 57/1/49 70/1/49 69/1/48
f 57/1/49 58/1/50 71/1/50 70/1/49
f 58/1/50 59/1/50 72/1/50 71/1/50
f 59/1/50 60/1/50 73/1/50 72/1/50
f 60/1/50 61/1/51 74/1/51 73/1/50
f 61/1/51 62/1/52 75/1/52 74/1/51
f 62/1/52 63/1/63 76/1/71 75/1/52
f 63/1/63 64/1/64 77/1/72 76/1/71
f 64/1/73 65/1/65 78/1/74 77/1/72
f 67/1/69 66/1/68 79/1/75 80/1/76
f 66/1/68 68/1/70 81/1/61 79/1/77
f 68/1/70 69/1/48 82/1/48 81/1/61
f 69/1/48 70/1/49 83/1/49 82/1/48
f 70/1/49 71/1/50 84/1/50 83/1/49
f 71/1/50 72/1/50 85/1/50 84/1/50
f 72/1/50 73/1/50 86/1/50 85/1/50
f 73/1/50 74/1/51 87/1/51 86/1/50
f 74/1/51 75/1/52 88/1/52 87/1/51
f 75/1/52 76/1/71 89/1/63 88/1/52
f 76/1/71 77/1/72 90/1/78 89/1/63
f 77/1/72 78/1/74 91/1/79 90/1/80
f 80/1/76 79/1/81 92/1/82 93/1/83
f 79/1/77 81/1/61 94/1/46 92/1/47
f 81/1/61 82/1/48 95/1/48 94/1/46
f 82/1/48 83/1/49 96/1/49 95/1/48
f 83/1/49 84/1/50 97/1/50 96/1/49
f 84/1/50 85/1/50 98/1/50 97/1/50
f 85/1/50 86/1/50 99/1/50 98/1/50
f 86/1/50 87/1/51 100/1/51 99/1/50
f 87/1/51 88/1/52 101/1/52 100/1/51
f 88/1/52 89/1/63 102/1/53 101/1/52
f 89/1/63 90/1/78 103/1/54 102/1/53
f 90/1/84 91/1/79 104/1/85 103/1/86
f 93/1/83 92/1/82 105/1/87 106/1/88
f 92/1/47 94/1/46 107/1/89 105/1/90
f 94/1/46 95/1/48 108/1/48 107/1/89
f 95/1/48 96/1/49 109/1/49 108/1/48
f 96/1/49 97/1/50 110/1/50 109/1/49
f 97/1/50 98/1/50 111/1/50 110/1/50
f 98/1/50 99/1/50 112/1/50 111/1/50
f 99/1/50 100/1/51 113/1/51 112/1/50
f 100/1/51 101/1/52 114/1/52 113/1/51
f 101/1/52 102/1/53 115/1/91 114/1/52
f 102/1/53 103/1/54 116/1/92 115/1/91
f 103/1/86 104/1/85 117/1/93 116/1/94
f 106/1/69 105/1/90 118/1/95 119/1/69
f 105/1/90 107/1/89 120/1/96 118/1/95
f 107/1/89 108/1/48 121/1/48 120/1/96
f 108/1/48 109/1/49 122/1/49 121/1/48
f 109/1/49 110/1/50 123/1/50 122/1/49
f 110/1/50 111/1/50 124/1/50 123/1/50
f 111/1/50 112/1/50 125/1/50 124/1/50
f 112/1/50 113/1/51 126/1/51 125/1/50
f 113/1/51 114/1/52 127/1/52 126/1/51
f 114/1/52 115/1/91 128/1/97 127/1/52
f 115/1/91 116/1/92 129/1/98 128/1/97
f 116/1/92 117/1/74 130/1/74 129/1/98
f 119/1/69 118/1/95 131/1/95 132/1/69
f 118/1/95 120/1/96 133/1/99 131/1/95
f 120/1/96 121/1/48 134/1/100 133/1/99
f 121/1/48 122/1/49 135/1/101 134/1/100
f 122/1/49 123/1/50 136/1/102 135/1/101
f 123/1/50 124/1/50 137/1/102 136/1/102
f 124/1/50 125/1/50 138/1/102 137/1/102
f 125/1/50 126/1/51 139/1/103 138/1/102
f 126/1/51 127/1/52 140/1/104 139/1/103
f 127/1/52 128/1/97 141/1/105 140/1/104
f 128/1/97 129/1/98 142/1/98 141/1/105
f 129/1/98 130/1/74 143/1/74 142/1/98
f 132/1/69 131/1/95 144/1/106 145/1/69
f 131/1/95 133/1/99 146/1/107 144/1/106
f 133/1/99 134/1/100 147/1/108 146/1/107
f 134/1/100 135/1/101 148/1/109 147/1/110
f 135/1/101 136/1/102 149/1/111 148/1/109
f 136/1/102 137/1/102 150/1/112 149/1/111
f 137/1/102 138/1/102 151/1/111 150/1/112
f 138/1/102 139/1/103 152/1/113 151/1/111
f 139/1/103 140/1/104 153/1/114 152/1/113
f 140/1/104 141/1/105 154/1/115 153/1/116
f 141/1/105 142/1/98 155/1/117 154/1/115
f 142/1/98 143/1/74 156/1/74 155/1/117
f 145/1/42 144/1/43 157/1/118 158/1/119
f 144/1/106 146/1/107 159/1/120 157/1/47
f 146/1/107 147/1/110 160/1/121 159/1/120
f 147/1/122 148/1/109 161/1/123 160/1/121
f 148/1/109 149/1/111 162/1/124 161/1/123
f 149/1/111 150/1/112 163/1/125 162/1/124
f 150/1/112 151/1/111 164/1/124 163/1/125
f 151/1/111 152/1/113 165/1/126 164/1/124
f 152/1/113 153/1/127 166/1/128 165/1/126
f 153/1/114 154/1/115 167/1/129 166/1/128
f 154/1/115 155/1/117 168/1/54 167/1/129
f 155/1/55 156/1/56 169/1/130 168/1/131
f 158/1/119 157/1/118 170/1/132 171/1/133
f 157/1/47 159/1/120 172/1/134 170/1/135
f 159/1/120 160/1/121 173/1/136 172/1/134
f 160/1/121 161/1/123 174/1/137 173/1/138
f 161/1/123 162/1/124 175/1/139 174/1/137
f 162/1/124 163/1/125 176/1/139 175/1/139
f 163/1/125 164/1/124 177/1/139 176/1/139
f 164/1/124 165/1/126 178/1/140 177/1/139
f 165/1/126 166/1/128 179/1/141 178/1/140
f 166/1/128 167/1/129 180/1/142 179/1/143
f 167/1/129 168/1/54 181/1/144 180/1/142
f 168/1/131 169/1/130 182/1/145 181/1/146
f 171/1/147 170/1/148 183/1/149 184/1/150
f 170/1/135 172/1/134 185/1/151 183/1/149
f 172/1/134 173/1/138 186/1/152 185/1/151
f 173/1/153 174/1/137 187/1/154 186/1/152
f 174/1/137 175/1/139 188/1/155 187/1/154
f 175/1/139 176/1/139 189/1/156 188/1/155
f 176/1/139 177/1/139 190/1/155 189/1/156
f 177/1/139 178/1/140 191/1/157 190/1/155
f 178/1/140 179/1/158 192/1/159 191/1/157
f 179/1/141 180/1/142 193/1/160 192/1/159
f 180/1/142 181/1/144 194/1/161 193/1/160
f 181/1/162 182/1/163 195/1/164 194/1/161
f 184/1/165 183/1/166 196/1/167 197/1/168
f 183/1/169 185/1/151 198/1/170 196/1/171
f 185/1/151 186/1/152 199/1/172 198/1/170
f 186/1/152 187/1/154 200/1/173 199/1/174
f 187/1/154 188/1/155 201/1/175 200/1/173
f 188/1/155 189/1/156 201/1/175
f 189/1/156 202/1/176 201/1/175
f 189/1/156 190/1/155 203/1/177
f 189/1/156 203/1/177 202/1/176
f 190/1/155 191/1/157 204/1/178 203/1/177
f 191/1/157 192/1/159 205/1/179 204/1/178
f 192/1/159 193/1/160 206/1/180 205/1/181
f 193/1/160 194/1/182 207/1/183 206/1/180
f 194/1/184 195/1/185 208/1/186 207/1/187
f 197/1/188 196/1/167 209/1/189 210/1/190
f 196/1/171 198/1/170 211/1/191 209/1/192
f 198/1/170 199/1/193 212/1/194 211/1/191
f 199/1/172 200/1/173 213/1/195 212/1/194
f 200/1/173 201/1/175 214/1/196 213/1/195
f 201/1/175 202/1/176 214/1/196
f 202/1/176 215/1/197 214/1/196
f 202/1/176 203/1/177 216/1/198
f 202/1/176 216/1/198 215/1/197
f 203/1/177 204/1/178 217/1/199 216/1/198
f 204/1/178 205/1/181 218/1/200 217/1/199
f 205/1/201 206/1/180 219/1/202 218/1/200
f 206/1/180 207/1/183 220/1/203 219/1/202
f 207/1/187 208/1/204 221/1/205 220/1/206
f 210/1/207 209/1/192 222/1/208 223/1/209
f 209/1/192 211/1/191 224/1/210 222/1/208
f 211/1/191 212/1/194 225/1/211 224/1/210
f 212/1/194 213/1/195 226/1/212 225/1/211
f 213/1/195 214/1/196 227/1/213 226/1/212
f 214/1/196 215/1/197 227/1/213
f 215/1/197 228/1/214 227/1/213
f 215/1/197 216/1/198 229/1/215
f 215/1/197 229/1/215 228/1/214
f 216/1/198 217/1/199 230/1/216 229/1/215
f 217/1/199 218/1/200 231/1/217 230/1/216
f 218/1/200 219/1/202 232/1/218 231/1/217
f 219/1/202 220/1/203 233/1/219 232/1/218
f 220/1/203 221/1/220 234/1/221 233/1/219
f 223/1/222 222/1/208 235/1/223 236/1/224
f 222/1/208 224/1/210 237/1/225 235/1/226
f 224/1/210 225/1/211 238/1/227 237/1/225
f 225/1/211 226/1/212 239/1/228 238/1/227
f 226/1/212 227/1/213 240/1/229 239/1/228
f 227/1/213 228/1/214 240/1/229
f 228/1/214 241/1/230 240/1/229
f 228/1/214 229/1/215 242/1/231
f 228/1/214 242/1/231 241/1/230
f 229/1/215 230/1/216 243/1/232 242/1/231
f 230/1/216 231/1/217 244/1/233 243/1/232
f 231/1/217 232/1/218 245/1/234 244/1/233
f 232/1/218 233/1/219 246/1/235 245/1/234
f 233/1/219 234/1/236 247/1/237 246/1/238
f 236/1/239 235/1/240 248/1/241 249/1/242
f 235/1/223 237/1/225 250/1/243 248/1/241
f 237/1/225 238/1/227 251/1/244 250/1/243
f 238/1/227 239/1/228 252/1/245 251/1/244
f 239/1/228 240/1/229 253/1/246 252/1/245
f 240/1/229 241/1/230 253/1/246
f 241/1/230 254/1/247 253/1/246
f 241/1/230 242/1/231 255/1/248
f 241/1/230 255/1/248 254/1/247
f 242/1/231 243/1/232 256/1/249 255/1/248
f 243/1/232 244/1/233 257/1/250 256/1/249
f 244/1/233 245/1/234 258/1/251 257/1/250
f 245/1/234 246/1/238 259/1/252 258/1/251
f 246/1/253 247/1/254 260/1/255 259/1/252
f 25/1/256 23/1/256 21/1/256 19/1/256 17/1/256 15/1/256 13/1/256 11/1/256 9/1/256 7/1/256 5/1/256 2/1/256 1/1/256
f 260/1/257 249/1/257 248/1/257
f 260/1/257 248/1/257 250/1/257
f 260/1/257 250/1/257 251/1/257
f 260/1/257 251/1/257 252/1/257
f 260/1/257 252/1/257 253/1/257
f 260/1/257 253/1/257 254/1/257
f 260/1/257 254/1/257 255/1/257
f 260/1/257 255/1/257 256/1/257
f 260/1/257 256/1/257 257/1/257
f 260/1/257 257/1/257 258/1/257
f 258/1/257 259/1/257 260/1/257
usemtl MI_Palette
f 25/2/23 1/2/1 4/2/258 26/2/259
f 26/2/260 4/2/261 28/2/28 39/2/41
f 39/2/56 28/2/42 41/2/45 52/2/57
f 52/2/57 41/2/45 54/2/60 65/2/65
f 65/2/65 54/2/60 67/2/69 78/2/74
f 78/2/74 67/2/69 80/2/76 91/2/79
f 91/2/79 80/2/76 93/2/83 104/2/85
f 104/2/85 93/2/83 106/2/88 117/2/93
f 117/2/74 106/2/69 119/2/69 130/2/74
f 130/2/74 119/2/69 132/2/69 143/2/74
f 143/2/74 132/2/69 145/2/69 156/2/74
f 156/2/56 145/2/42 158/2/119 169/2/130
f 169/2/130 158/2/119 171/2/262 182/2/263
f 182/2/145 171/2/133 184/2/264 195/2/265
f 195/2/266 184/2/267 197/2/188 208/2/204
f 208/2/268 197/2/269 210/2/190 221/2/205
f 221/2/220 210/2/207 223/2/270 234/2/271
f 234/2/221 223/2/209 236/2/272 247/2/273
f 247/2/237 236/2/224 249/2/242 260/2/255
f 261/2/257 262/2/257 263/2/257 264/2/257
f 265/3/274 266/3/275 267/3/275 268/3/274
f 266/3/275 269/3/276 270/3/276 267/3/275
f 269/3/276 271/3/277 272/3/277 270/3/276
f 271/3/277 273/3/278 274/3/278 272/3/277
f 273/3/278 275/3/279 276/3/279 274/3/278
f 275/3/279 277/3/280 278/3/280 276/3/279
f 277/3/280 279/3/281 280/3/281 278/3/280
f 279/3/281 265/3/274 268/3/274 280/3/281
f 279/3/257 277/3/257 275/3/257 273/3/257 271/3/257 269/3/257 266/3/257 265/3/257
f 281/1/256 282/1/256 283/1/256 284/1/256
f 285/3/274 286/3/275 287/3/275 288/3/274
f 286/3/275 289/3/276 290/3/276 287/3/275
f 289/3/276 291/3/277 292/3/277 290/3/276
f 291/3/277 293/3/278 294/3/278 292/3/277
f 293/3/278 295/3/279 296/3/279 294/3/278
f 295/3/279 297/3/280 298/3/280 296/3/279
f 297/3/280 299/3/281 300/3/281 298/3/280
f 299/3/281 285/3/274 288/3/274 300/3/281
f 299/3/257 297/3/257 295/3/257 293/3/257 291/3/257 289/3/257 286/3/257 285/3/257
f 301/1/256 302/1/256 303/1/256 304/1/256
f 305/2/47 306/2/47 307/2/47 308/2/47 309/2/47 310/2/47 311/2/47
f 312/2/54 313/2/54 314/2/54 315/2/54 316/2/54 317/2/54 318/2/54
f 319/2/47 320/2/47 321/2/47 322/2/47 323/2/47 324/2/47 325/2/47
f 326/2/54 327/2/54 328/2/54 329/2/54 330/2/54 331/2/54 332/2/54
usemtl MI_Palette_Chrome
f 333/4/282 334/4/282 335/4/282 336/4/282
f 334/4/257 337/4/257 338/4/257 335/4/257
f 337/4/283 339/4/283 340/4/283 338/4/283
f 339/4/256 341/4/256 342/4/256 340/4/256
f 341/4/284 343/4/284 344/4/284 342/4/284
f 343/4/256 345/4/256 346/4/256 344/4/256
f 345/4/285 347/4/285 348/4/285 346/4/285
f 347/4/256 333/4/256 336/4/256 348/4/256
f 333/4/286 347/4/286 345/4/286
f 343/4/286 341/4/286 339/4/286
f 343/4/286 339/4/286 337/4/286
f 345/4/286 343/4/286 337/4/286
f 345/4/286 337/4/286 334/4/286
f 345/4/286 334/4/286 333/4/286
f 348/4/50 336/4/50 335/4/50
f 338/4/50 340/4/50 342/4/50
f 338/4/50 342/4/50 344/4/50
f 335/4/50 338/4/50 344/4/50
f 335/4/50 344/4/50 346/4/50
f 335/4/50 346/4/50 348/4/50
f 349/4/287 350/4/287 351/4/287 352/4/287
f 350/4/256 353/4/256 354/4/256 351/4/256
f 353/4/288 355/4/288 356/4/288 354/4/288
f 355/4/257 357/4/257 358/4/257 356/4/257
f 357/4/289 359/4/289 360/4/289 358/4/289
f 359/4/257 361/4/257 362/4/257 360/4/257
f 361/4/290 363/4/290 364/4/290 362/4/290
f 363/4/257 349/4/257 352/4/257 364/4/257
f 364/4/286 352/4/286 351/4/286
f 354/4/286 356/4/286 358/4/286
f 354/4/286 358/4/286 360/4/286
f 351/4/286 354/4/286 360/4/286
f 351/4/286 360/4/286 362/4/286
f 351/4/286 362/4/286 364/4/286
f 349/4/50 363/4/50 361/4/50
f 359/4/50 357/4/50 355/4/50
f 359/4/50 355/4/50 353/4/50
f 361/4/50 359/4/50 353/4/50
f 361/4/50 353/4/50 350/4/50
f 361/4/50 350/4/50 349/4/50
f 365/4/257 366/4/257 367/4/257 368/4/257
usemtl MI_CarGlass
f 369/5/291 370/5/291 371/5/291 372/5/291
f 373/5/291 374/5/291 375/5/291 376/5/291
f 377/5/47 378/5/47 379/5/47 380/5/47
f 381/5/256 382/5/256 383/5/256 384/5/256
f 385/5/54 386/5/54 387/5/54 388/5/54
f 389/5/256 390/5/256 391/5/256 392/5/256
