# Cook No Evil! · sokak modelleri
# AR-04 · Tekerlek
# Pivot: Aks merkezi, aks X, jant +X
# birim m · Y yukarı · ön +Z · üçgen 60
mtllib CNE_Sokak.mtl
v 0.10000 0.08541 0.31876
v 0.10000 0.23335 0.23335
v -0.10000 0.23335 0.23335
v -0.10000 0.08541 0.31876
v 0.10000 0.03882 0.14489
v 0.10000 0.10607 0.10607
v 0.10000 0.31876 0.08541
v -0.10000 0.31876 0.08541
v 0.10000 0.14489 0.03882
v 0.10000 0.31876 -0.08541
v -0.10000 0.31876 -0.08541
v 0.10000 0.14489 -0.03882
v 0.10000 0.23335 -0.23335
v -0.10000 0.23335 -0.23335
v 0.10000 0.10607 -0.10607
v 0.10000 0.08541 -0.31876
v -0.10000 0.08541 -0.31876
v 0.10000 0.03882 -0.14489
v 0.10000 -0.08541 -0.31876
v -0.10000 -0.08541 -0.31876
v 0.10000 -0.03882 -0.14489
v 0.10000 -0.23335 -0.23335
v -0.10000 -0.23335 -0.23335
v 0.10000 -0.10607 -0.10607
v 0.10000 -0.31876 -0.08541
v -0.10000 -0.31876 -0.08541
v 0.10000 -0.14489 -0.03882
v 0.10000 -0.31876 0.08541
v -0.10000 -0.31876 0.08541
v 0.10000 -0.14489 0.03882
v 0.10000 -0.23335 0.23335
v -0.10000 -0.23335 0.23335
v 0.10000 -0.10607 0.10607
v 0.10000 -0.08541 0.31876
v -0.10000 -0.08541 0.31876
v 0.10000 -0.03882 0.14489
v 0.12500 0.00000 0.00000
vt 0.531250 0.656250
vt 0.031250 0.656250
vn 0.0000 0.2588 0.9659
vn 0.0000 0.7071 0.7071
vn 1.0000 0.0000 0.0000
vn 0.0000 0.9659 0.2588
vn 0.0000 0.9659 -0.2588
vn 0.0000 0.7071 -0.7071
vn 0.0000 0.2588 -0.9659
vn 0.0000 -0.2588 -0.9659
vn 0.0000 -0.7071 -0.7071
vn 0.0000 -0.9659 -0.2588
vn 0.0000 -0.9659 0.2588
vn 0.0000 -0.7071 0.7071
vn 0.0000 -0.2588 0.9659
vn 0.9864 0.1162 0.1162
vn 0.9864 0.0425 0.1588
vn 0.9864 0.1588 0.0425
vn 0.9864 0.1588 -0.0425
vn 0.9864 0.1162 -0.1162
vn 0.9864 0.0425 -0.1588
vn 0.9864 -0.0425 -0.1588
vn 0.9864 -0.1162 -0.1162
vn 0.9864 -0.1588 -0.0425
vn 0.9864 -0.1588 0.0425
vn 0.9864 -0.1162 0.1162
vn 0.9864 -0.0425 0.1588
o Wheel
g Wheel
usemtl MI_Palette
f 1/1/1 2/1/2 3/1/2 4/1/1
f 5/1/3 6/1/3 2/1/3 1/1/3
f 2/1/2 7/1/4 8/1/4 3/1/2
f 6/1/3 9/1/3 7/1/3 2/1/3
f 7/1/4 10/1/5 11/1/5 8/1/4
f 9/1/3 12/1/3 10/1/3 7/1/3
f 10/1/5 13/1/6 14/1/6 11/1/5
f 12/1/3 15/1/3 13/1/3 10/1/3
f 13/1/6 16/1/7 17/1/7 14/1/6
f 15/1/3 18/1/3 16/1/3 13/1/3
f 16/1/7 19/1/8 20/1/8 17/1/7
f 18/1/3 21/1/3 19/1/3 16/1/3
f 19/1/8 22/1/9 23/1/9 20/1/8
f 21/1/3 24/1/3 22/1/3 19/1/3
f 22/1/9 25/1/10 26/1/10 23/1/9
f 24/1/3 27/1/3 25/1/3 22/1/3
f 25/1/10 28/1/11 29/1/11 26/1/10
f 27/1/3 30/1/3 28/1/3 25/1/3
f 28/1/11 31/1/12 32/1/12 29/1/11
f 30/1/3 33/1/3 31/1/3 28/1/3
f 31/1/12 34/1/13 35/1/13 32/1/12
f 33/1/3 36/1/3 34/1/3 31/1/3
f 34/1/13 1/1/1 4/1/1 35/1/13
f 36/1/3 5/1/3 1/1/3 34/1/3
usemtl MI_Palette_Chrome
f 37/2/3 6/2/14 5/2/15
f 37/2/3 9/2/16 6/2/14
f 37/2/3 12/2/17 9/2/16
f 37/2/3 15/2/18 12/2/17
f 37/2/3 18/2/19 15/2/18
f 37/2/3 21/2/20 18/2/19
f 37/2/3 24/2/21 21/2/20
f 37/2/3 27/2/22 24/2/21
f 37/2/3 30/2/23 27/2/22
f 37/2/3 33/2/24 30/2/23
f 37/2/3 36/2/25 33/2/24
f 37/2/3 5/2/15 36/2/25
