# Cook No Evil! · sokak modelleri
# YT-01 · 11 Ekim yerleşimi: ARCH + yer tutucu bloklar
# birim m · Y yukarı · ön +Z · üçgen 196
mtllib CNE_Sokak.mtl
v -30.00000 0.00000 -0.20000
v 40.00000 0.00000 -0.20000
v 40.00000 0.00000 -3.00000
v -30.00000 0.00000 -3.00000
v -30.00000 -0.15000 -3.20000
v -30.00000 -0.15000 -0.20000
v -30.00000 0.00000 -3.20000
v 40.00000 0.00000 -3.20000
v 40.00000 -0.15000 -0.20000
v 40.00000 -0.15000 -3.20000
v 40.00000 -0.15000 -12.70000
v -30.00000 -0.15000 -12.70000
v -30.00000 -0.14900 -9.14000
v 40.00000 -0.14900 -9.14000
v 40.00000 -0.14900 -9.26000
v -30.00000 -0.14900 -9.26000
v -30.00000 0.00000 -12.90000
v 40.00000 0.00000 -12.90000
v 40.00000 0.00000 -15.70000
v -30.00000 0.00000 -15.70000
v -30.00000 -0.15000 -15.70000
v -30.00000 0.00000 -12.70000
v 40.00000 0.00000 -12.70000
v 40.00000 -0.15000 -15.70000
v -30.00000 6.00000 -15.70000
v -22.00000 6.00000 -15.70000
v -22.00000 6.00000 -18.70000
v -30.00000 6.00000 -18.70000
v -22.00000 0.00000 -15.70000
v -22.00000 3.75000 -15.70000
v -22.00000 4.00000 -15.70000
v -30.00000 4.00000 -15.70000
v -30.00000 3.75000 -15.70000
v -30.00000 0.00000 -18.70000
v -22.00000 3.75000 -15.50000
v -30.00000 3.75000 -15.50000
v -30.00000 4.00000 -15.50000
v -22.00000 4.00000 -15.50000
v -22.00000 7.50000 -15.70000
v -14.00000 7.50000 -15.70000
v -14.00000 7.50000 -18.70000
v -22.00000 7.50000 -18.70000
v -14.00000 0.00000 -15.70000
v -14.00000 3.75000 -15.70000
v -14.00000 4.00000 -15.70000
v -14.00000 4.50000 -15.70000
v -14.00000 4.50000 -18.70000
v -14.00000 3.75000 -15.50000
v -14.00000 4.00000 -15.50000
v -7.00000 4.50000 -15.70000
v -7.00000 4.50000 -18.70000
v -7.00000 0.00000 -15.70000
v -7.00000 3.75000 -15.70000
v -7.00000 4.00000 -15.70000
v -7.00000 3.75000 -15.50000
v -7.00000 4.00000 -15.50000
v -7.00000 6.00000 -15.70000
v -1.00000 6.00000 -15.70000
v -1.00000 6.00000 -18.70000
v -7.00000 6.00000 -18.70000
v -1.00000 0.00000 -15.70000
v -1.00000 3.75000 -15.70000
v -1.00000 4.00000 -15.70000
v -1.00000 3.75000 -15.50000
v -1.00000 4.00000 -15.50000
v 8.00000 6.00000 -15.70000
v 8.00000 6.00000 -18.70000
v 8.00000 0.00000 -15.70000
v 8.00000 3.75000 -15.70000
v 8.00000 4.00000 -15.70000
v 8.00000 3.75000 -15.50000
v 8.00000 4.00000 -15.50000
v 8.00000 7.50000 -15.70000
v 14.00000 7.50000 -15.70000
v 14.00000 7.50000 -18.70000
v 8.00000 7.50000 -18.70000
v 14.00000 0.00000 -15.70000
v 14.00000 3.75000 -15.70000
v 14.00000 4.00000 -15.70000
v 14.00000 5.00000 -15.70000
v 14.00000 5.00000 -18.70000
v 14.00000 3.75000 -15.50000
v 14.00000 4.00000 -15.50000
v 22.00000 5.00000 -15.70000
v 22.00000 5.00000 -18.70000
v 22.00000 0.00000 -15.70000
v 22.00000 3.75000 -15.70000
v 22.00000 4.00000 -15.70000
v 22.00000 0.00000 -18.70000
v 22.00000 3.75000 -15.50000
v 22.00000 4.00000 -15.50000
v 28.00000 7.00000 -15.70000
v 34.00000 7.00000 -15.70000
v 34.00000 7.00000 -18.70000
v 28.00000 7.00000 -18.70000
v 28.00000 0.00000 -15.70000
v 34.00000 0.00000 -15.70000
v 34.00000 3.75000 -15.70000
v 34.00000 4.00000 -15.70000
v 34.00000 6.00000 -15.70000
v 28.00000 4.00000 -15.70000
v 28.00000 3.75000 -15.70000
v 28.00000 0.00000 -18.70000
v 34.00000 6.00000 -18.70000
v 34.00000 3.75000 -15.50000
v 28.00000 3.75000 -15.50000
v 28.00000 4.00000 -15.50000
v 34.00000 4.00000 -15.50000
v 40.00000 6.00000 -15.70000
v 40.00000 6.00000 -18.70000
v 40.00000 3.75000 -15.70000
v 40.00000 4.00000 -15.70000
v 40.00000 0.00000 -18.70000
v 40.00000 3.75000 -15.50000
v 40.00000 4.00000 -15.50000
vt 0.500000 0.500000
vn 0.0000 1.0000 0.0000
vn -1.0000 -0.0000 0.0000
vn 1.0000 0.0000 0.0000
vn 0.0000 0.0000 -1.0000
vn 0.0000 0.0000 1.0000
vn 0.0000 -1.0000 0.0000
o ARCH_Sokak__Kaldirim_Yakin
g ARCH_Sokak__Kaldirim_Yakin
usemtl MI_Arch_Kaldirim
f 1/1/1 2/1/1 3/1/1 4/1/1
f 5/1/2 6/1/2 1/1/2 4/1/2 7/1/2
f 8/1/3 3/1/3 2/1/3 9/1/3 10/1/3
usemtl MI_Arch_Bordur
f 4/1/1 3/1/1 8/1/1 7/1/1
f 7/1/4 8/1/4 10/1/4 5/1/4
o ARCH_Sokak__Yol
g ARCH_Sokak__Yol
usemtl MI_Arch_Asfalt
f 5/1/1 10/1/1 11/1/1 12/1/1
usemtl MI_Arch_Bordur
f 13/1/1 14/1/1 15/1/1 16/1/1
o ARCH_Sokak__Kaldirim_Karsi
g ARCH_Sokak__Kaldirim_Karsi
usemtl MI_Arch_Kaldirim
f 17/1/1 18/1/1 19/1/1 20/1/1
f 21/1/2 12/1/2 22/1/2 17/1/2 20/1/2
f 19/1/3 18/1/3 23/1/3 11/1/3 24/1/3
usemtl MI_Arch_Bordur
f 22/1/1 23/1/1 18/1/1 17/1/1
f 12/1/5 11/1/5 23/1/5 22/1/5
o ARCH_KarsiCephe_Yer__Blok_01
g ARCH_KarsiCephe_Yer__Blok_01
usemtl MI_Arch_Cephe_K4
f 25/1/1 26/1/1 27/1/1 28/1/1
f 20/1/5 29/1/5 30/1/5 31/1/5 26/1/5 25/1/5 32/1/5 33/1/5
f 34/1/2 20/1/2 33/1/2 32/1/2 25/1/2 28/1/2
usemtl MI_Arch_Bordur
f 33/1/6 30/1/6 35/1/6 36/1/6
f 37/1/1 38/1/1 31/1/1 32/1/1
f 36/1/5 35/1/5 38/1/5 37/1/5
f 33/1/2 36/1/2 37/1/2 32/1/2
o ARCH_KarsiCephe_Yer__Blok_02
g ARCH_KarsiCephe_Yer__Blok_02
usemtl MI_Arch_Cephe_K5
f 39/1/1 40/1/1 41/1/1 42/1/1
f 29/1/5 43/1/5 44/1/5 45/1/5 46/1/5 40/1/5 39/1/5 26/1/5 31/1/5 30/1/5
f 27/1/2 26/1/2 39/1/2 42/1/2
f 41/1/3 40/1/3 46/1/3 47/1/3
usemtl MI_Arch_Bordur
f 30/1/6 44/1/6 48/1/6 35/1/6
f 38/1/1 49/1/1 45/1/1 31/1/1
f 35/1/5 48/1/5 49/1/5 38/1/5
o ARCH_KarsiCephe_Yer__Blok_03
g ARCH_KarsiCephe_Yer__Blok_03
usemtl MI_Arch_Cephe_K6
f 46/1/1 50/1/1 51/1/1 47/1/1
f 43/1/5 52/1/5 53/1/5 54/1/5 50/1/5 46/1/5 45/1/5 44/1/5
usemtl MI_Arch_Bordur
f 44/1/6 53/1/6 55/1/6 48/1/6
f 49/1/1 56/1/1 54/1/1 45/1/1
f 48/1/5 55/1/5 56/1/5 49/1/5
o ARCH_KarsiCephe_Yer__Blok_04
g ARCH_KarsiCephe_Yer__Blok_04
usemtl MI_Arch_Cephe_K4
f 57/1/1 58/1/1 59/1/1 60/1/1
f 52/1/5 61/1/5 62/1/5 63/1/5 58/1/5 57/1/5 50/1/5 54/1/5 53/1/5
f 51/1/2 50/1/2 57/1/2 60/1/2
usemtl MI_Arch_Bordur
f 53/1/6 62/1/6 64/1/6 55/1/6
f 56/1/1 65/1/1 63/1/1 54/1/1
f 55/1/5 64/1/5 65/1/5 56/1/5
o ARCH_KarsiCephe_Yer__Blok_05
g ARCH_KarsiCephe_Yer__Blok_05
usemtl MI_Arch_Cephe_K0
f 58/1/1 66/1/1 67/1/1 59/1/1
f 61/1/5 68/1/5 69/1/5 70/1/5 66/1/5 58/1/5 63/1/5 62/1/5
usemtl MI_Arch_Bordur
f 62/1/6 69/1/6 71/1/6 64/1/6
f 65/1/1 72/1/1 70/1/1 63/1/1
f 64/1/5 71/1/5 72/1/5 65/1/5
o ARCH_KarsiCephe_Yer__Blok_06
g ARCH_KarsiCephe_Yer__Blok_06
usemtl MI_Arch_Cephe_K5
f 73/1/1 74/1/1 75/1/1 76/1/1
f 68/1/5 77/1/5 78/1/5 79/1/5 80/1/5 74/1/5 73/1/5 66/1/5 70/1/5 69/1/5
f 67/1/2 66/1/2 73/1/2 76/1/2
f 75/1/3 74/1/3 80/1/3 81/1/3
usemtl MI_Arch_Bordur
f 69/1/6 78/1/6 82/1/6 71/1/6
f 72/1/1 83/1/1 79/1/1 70/1/1
f 71/1/5 82/1/5 83/1/5 72/1/5
o ARCH_KarsiCephe_Yer__Blok_07
g ARCH_KarsiCephe_Yer__Blok_07
usemtl MI_Arch_Cephe_K6
f 80/1/1 84/1/1 85/1/1 81/1/1
f 77/1/5 86/1/5 87/1/5 88/1/5 84/1/5 80/1/5 79/1/5 78/1/5
f 85/1/3 84/1/3 88/1/3 87/1/3 86/1/3 89/1/3
usemtl MI_Arch_Bordur
f 78/1/6 87/1/6 90/1/6 82/1/6
f 83/1/1 91/1/1 88/1/1 79/1/1
f 82/1/5 90/1/5 91/1/5 83/1/5
f 88/1/3 91/1/3 90/1/3 87/1/3
o ARCH_KarsiCephe_Yer__Blok_08
g ARCH_KarsiCephe_Yer__Blok_08
usemtl MI_Arch_Cephe_K4
f 92/1/1 93/1/1 94/1/1 95/1/1
f 96/1/5 97/1/5 98/1/5 99/1/5 100/1/5 93/1/5 92/1/5 101/1/5 102/1/5
f 103/1/2 96/1/2 102/1/2 101/1/2 92/1/2 95/1/2
f 94/1/3 93/1/3 100/1/3 104/1/3
usemtl MI_Arch_Bordur
f 102/1/6 98/1/6 105/1/6 106/1/6
f 107/1/1 108/1/1 99/1/1 101/1/1
f 106/1/5 105/1/5 108/1/5 107/1/5
f 102/1/2 106/1/2 107/1/2 101/1/2
o ARCH_KarsiCephe_Yer__Blok_09
g ARCH_KarsiCephe_Yer__Blok_09
usemtl MI_Arch_Cephe_K5
f 100/1/1 109/1/1 110/1/1 104/1/1
f 97/1/5 19/1/5 111/1/5 112/1/5 109/1/5 100/1/5 99/1/5 98/1/5
f 110/1/3 109/1/3 112/1/3 111/1/3 19/1/3 113/1/3
usemtl MI_Arch_Bordur
f 98/1/6 111/1/6 114/1/6 105/1/6
f 108/1/1 115/1/1 112/1/1 99/1/1
f 105/1/5 114/1/5 115/1/5 108/1/5
f 112/1/3 115/1/3 114/1/3 111/1/3
